<?xml version="1.0" encoding="UTF-8"?>
<svg xmlns="http://www.w3.org/2000/svg" version="1.1" width="100" height="100" viewBox="0 0 100 100"><rect x="0" y="0" width="100" height="100" fill="#ffffff"/><g transform="scale(4)"><g transform="translate(0,0)"><path fill-rule="evenodd" d="M9 0L9 1L11 1L11 2L9 2L9 3L8 3L8 5L9 5L9 6L8 6L8 7L9 7L9 9L10 9L10 10L9 10L9 11L8 11L8 8L5 8L5 10L4 10L4 12L1 12L1 11L3 11L3 10L2 10L2 8L0 8L0 17L1 17L1 13L2 13L2 14L4 14L4 12L5 12L5 17L7 17L7 16L6 16L6 15L8 15L8 13L10 13L10 14L9 14L9 16L8 16L8 20L9 20L9 23L8 23L8 25L12 25L12 24L13 24L13 23L12 23L12 24L11 24L11 22L10 22L10 21L12 21L12 22L13 22L13 21L14 21L14 20L12 20L12 19L15 19L15 21L16 21L16 25L17 25L17 22L19 22L19 21L21 21L21 16L22 16L22 17L23 17L23 15L24 15L24 16L25 16L25 14L24 14L24 13L25 13L25 10L24 10L24 9L22 9L22 8L20 8L20 9L19 9L19 10L21 10L21 11L19 11L19 12L18 12L18 10L16 10L16 9L17 9L17 8L16 8L16 7L17 7L17 4L16 4L16 7L15 7L15 6L14 6L14 7L15 7L15 10L14 10L14 14L15 14L15 15L14 15L14 16L13 16L13 15L12 15L12 17L14 17L14 18L12 18L12 19L10 19L10 18L11 18L11 17L9 17L9 16L11 16L11 12L12 12L12 11L13 11L13 10L11 10L11 8L10 8L10 7L11 7L11 4L12 4L12 5L13 5L13 4L14 4L14 5L15 5L15 3L17 3L17 2L15 2L15 0L14 0L14 1L12 1L12 0ZM16 0L16 1L17 1L17 0ZM12 2L12 4L13 4L13 3L14 3L14 2ZM9 3L9 5L10 5L10 3ZM9 6L9 7L10 7L10 6ZM12 6L12 9L14 9L14 8L13 8L13 6ZM6 9L6 10L5 10L5 12L7 12L7 13L6 13L6 14L7 14L7 13L8 13L8 11L6 11L6 10L7 10L7 9ZM10 10L10 11L9 11L9 12L10 12L10 11L11 11L11 10ZM22 10L22 12L20 12L20 14L22 14L22 15L23 15L23 13L24 13L24 11L23 11L23 10ZM15 12L15 13L16 13L16 12ZM17 12L17 14L16 14L16 15L15 15L15 16L14 16L14 17L15 17L15 19L16 19L16 15L18 15L18 16L19 16L19 15L18 15L18 14L19 14L19 13L18 13L18 12ZM12 13L12 14L13 14L13 13ZM2 15L2 17L4 17L4 15ZM20 15L20 16L21 16L21 15ZM17 17L17 20L20 20L20 17ZM18 18L18 19L19 19L19 18ZM24 18L24 20L25 20L25 18ZM9 19L9 20L10 20L10 19ZM22 20L22 21L23 21L23 22L21 22L21 23L18 23L18 25L19 25L19 24L21 24L21 25L22 25L22 24L21 24L21 23L23 23L23 22L24 22L24 25L25 25L25 21L23 21L23 20ZM9 23L9 24L10 24L10 23ZM14 24L14 25L15 25L15 24ZM0 0L0 7L7 7L7 0ZM1 1L1 6L6 6L6 1ZM2 2L2 5L5 5L5 2ZM18 0L18 7L25 7L25 0ZM19 1L19 6L24 6L24 1ZM20 2L20 5L23 5L23 2ZM0 18L0 25L7 25L7 18ZM1 19L1 24L6 24L6 19ZM2 20L2 23L5 23L5 20Z" fill="#000000"/></g></g></svg>
