<?xml version="1.0" encoding="UTF-8"?>
<svg xmlns="http://www.w3.org/2000/svg" version="1.1" width="100" height="100" viewBox="0 0 100 100"><rect x="0" y="0" width="100" height="100" fill="#ffffff"/><g transform="scale(2.041)"><g transform="translate(0,0)"><path fill-rule="evenodd" d="M8 0L8 1L9 1L9 2L8 2L8 5L10 5L10 4L9 4L9 3L10 3L10 2L13 2L13 1L14 1L14 2L15 2L15 1L16 1L16 0L13 0L13 1L12 1L12 0L11 0L11 1L9 1L9 0ZM17 0L17 2L16 2L16 3L15 3L15 4L12 4L12 3L11 3L11 6L10 6L10 7L11 7L11 8L12 8L12 7L13 7L13 10L12 10L12 9L11 9L11 10L12 10L12 11L13 11L13 13L12 13L12 15L11 15L11 14L10 14L10 15L11 15L11 16L9 16L9 18L8 18L8 19L9 19L9 20L5 20L5 19L4 19L4 18L5 18L5 17L8 17L8 16L6 16L6 15L7 15L7 14L9 14L9 13L11 13L11 11L10 11L10 9L9 9L9 8L8 8L8 9L7 9L7 8L6 8L6 9L7 9L7 10L6 10L6 11L9 11L9 12L8 12L8 13L7 13L7 12L5 12L5 14L6 14L6 15L5 15L5 16L4 16L4 18L1 18L1 17L2 17L2 15L4 15L4 11L5 11L5 9L4 9L4 8L0 8L0 9L4 9L4 10L2 10L2 11L1 11L1 10L0 10L0 13L1 13L1 14L0 14L0 15L1 15L1 17L0 17L0 18L1 18L1 19L0 19L0 22L1 22L1 21L3 21L3 23L4 23L4 26L3 26L3 25L2 25L2 26L3 26L3 30L2 30L2 29L1 29L1 26L0 26L0 29L1 29L1 31L0 31L0 34L1 34L1 35L0 35L0 38L1 38L1 40L0 40L0 41L3 41L3 40L4 40L4 39L2 39L2 38L1 38L1 36L2 36L2 37L3 37L3 38L4 38L4 35L2 35L2 34L1 34L1 32L3 32L3 33L4 33L4 32L5 32L5 37L8 37L8 36L9 36L9 35L11 35L11 33L13 33L13 34L14 34L14 35L15 35L15 34L16 34L16 32L15 32L15 33L14 33L14 32L13 32L13 31L14 31L14 28L15 28L15 29L16 29L16 30L17 30L17 29L16 29L16 27L19 27L19 23L18 23L18 22L21 22L21 23L20 23L20 26L22 26L22 27L21 27L21 28L18 28L18 29L19 29L19 30L18 30L18 31L17 31L17 32L18 32L18 31L20 31L20 32L19 32L19 36L18 36L18 33L17 33L17 35L16 35L16 36L15 36L15 37L13 37L13 36L12 36L12 39L10 39L10 38L11 38L11 36L10 36L10 37L9 37L9 39L8 39L8 40L6 40L6 41L8 41L8 42L9 42L9 43L11 43L11 44L10 44L10 45L8 45L8 49L9 49L9 48L10 48L10 49L12 49L12 48L11 48L11 47L9 47L9 46L10 46L10 45L12 45L12 46L13 46L13 48L14 48L14 47L16 47L16 49L17 49L17 47L18 47L18 46L19 46L19 48L18 48L18 49L21 49L21 48L20 48L20 47L21 47L21 46L22 46L22 45L25 45L25 46L26 46L26 47L25 47L25 48L23 48L23 47L22 47L22 48L23 48L23 49L28 49L28 47L27 47L27 46L29 46L29 44L30 44L30 43L27 43L27 42L28 42L28 41L27 41L27 39L24 39L24 38L23 38L23 36L24 36L24 37L28 37L28 40L29 40L29 39L30 39L30 41L29 41L29 42L30 42L30 41L31 41L31 40L32 40L32 41L34 41L34 43L35 43L35 44L33 44L33 46L31 46L31 45L32 45L32 42L31 42L31 45L30 45L30 47L32 47L32 48L33 48L33 49L34 49L34 48L35 48L35 49L37 49L37 48L38 48L38 49L39 49L39 48L40 48L40 49L42 49L42 48L40 48L40 45L42 45L42 46L44 46L44 47L43 47L43 48L44 48L44 47L45 47L45 48L47 48L47 49L49 49L49 48L47 48L47 47L49 47L49 45L48 45L48 43L49 43L49 40L48 40L48 39L47 39L47 40L48 40L48 41L46 41L46 42L48 42L48 43L47 43L47 46L46 46L46 44L45 44L45 40L43 40L43 39L45 39L45 36L44 36L44 35L42 35L42 34L41 34L41 37L40 37L40 36L39 36L39 34L40 34L40 33L42 33L42 31L43 31L43 32L44 32L44 33L45 33L45 34L46 34L46 32L45 32L45 31L46 31L46 30L48 30L48 31L47 31L47 32L48 32L48 31L49 31L49 28L48 28L48 29L47 29L47 28L46 28L46 27L47 27L47 26L45 26L45 22L47 22L47 23L46 23L46 25L47 25L47 23L48 23L48 20L47 20L47 21L46 21L46 20L45 20L45 22L44 22L44 19L46 19L46 18L48 18L48 19L49 19L49 17L48 17L48 16L49 16L49 15L48 15L48 16L46 16L46 15L47 15L47 14L46 14L46 13L47 13L47 11L48 11L48 9L49 9L49 8L48 8L48 9L47 9L47 8L44 8L44 9L45 9L45 10L44 10L44 12L45 12L45 10L46 10L46 13L45 13L45 15L44 15L44 14L42 14L42 13L41 13L41 10L40 10L40 8L39 8L39 5L38 5L38 2L39 2L39 4L40 4L40 3L41 3L41 0L40 0L40 1L38 1L38 0L37 0L37 1L38 1L38 2L36 2L36 0L35 0L35 2L36 2L36 3L35 3L35 5L36 5L36 4L37 4L37 5L38 5L38 8L37 8L37 9L36 9L36 8L34 8L34 9L32 9L32 12L33 12L33 13L32 13L32 14L30 14L30 13L31 13L31 9L30 9L30 8L31 8L31 6L32 6L32 7L33 7L33 6L34 6L34 7L35 7L35 6L34 6L34 4L31 4L31 2L32 2L32 3L33 3L33 2L34 2L34 1L33 1L33 0L32 0L32 1L31 1L31 0L30 0L30 4L26 4L26 1L24 1L24 0L23 0L23 1L22 1L22 2L21 2L21 1L20 1L20 0ZM28 0L28 1L29 1L29 0ZM18 1L18 3L16 3L16 4L17 4L17 5L14 5L14 6L13 6L13 5L12 5L12 6L11 6L11 7L12 7L12 6L13 6L13 7L14 7L14 9L15 9L15 7L16 7L16 6L17 6L17 7L18 7L18 8L16 8L16 10L17 10L17 12L16 12L16 11L15 11L15 10L14 10L14 11L15 11L15 14L17 14L17 12L18 12L18 15L19 15L19 16L18 16L18 17L19 17L19 19L18 19L18 18L16 18L16 17L15 17L15 18L14 18L14 16L15 16L15 15L14 15L14 16L13 16L13 15L12 15L12 16L11 16L11 17L10 17L10 18L9 18L9 19L10 19L10 21L11 21L11 22L9 22L9 21L6 21L6 22L9 22L9 25L10 25L10 26L11 26L11 28L12 28L12 31L11 31L11 29L10 29L10 32L7 32L7 31L9 31L9 30L8 30L8 28L10 28L10 27L8 27L8 28L7 28L7 27L6 27L6 28L5 28L5 27L4 27L4 28L5 28L5 30L7 30L7 31L6 31L6 32L7 32L7 33L6 33L6 34L7 34L7 35L6 35L6 36L7 36L7 35L8 35L8 34L10 34L10 33L11 33L11 32L12 32L12 31L13 31L13 28L14 28L14 26L15 26L15 27L16 27L16 26L18 26L18 23L16 23L16 20L17 20L17 21L19 21L19 20L20 20L20 21L21 21L21 22L22 22L22 21L23 21L23 22L24 22L24 21L25 21L25 22L27 22L27 23L28 23L28 25L27 25L27 26L28 26L28 25L30 25L30 26L31 26L31 25L32 25L32 27L33 27L33 26L34 26L34 29L32 29L32 28L31 28L31 27L27 27L27 28L28 28L28 29L25 29L25 28L24 28L24 27L22 27L22 28L24 28L24 29L20 29L20 31L21 31L21 33L20 33L20 34L21 34L21 35L22 35L22 36L19 36L19 37L18 37L18 36L16 36L16 37L17 37L17 38L13 38L13 39L12 39L12 40L10 40L10 39L9 39L9 40L8 40L8 41L9 41L9 42L10 42L10 41L11 41L11 43L12 43L12 45L13 45L13 46L15 46L15 45L14 45L14 44L17 44L17 42L16 42L16 41L15 41L15 42L16 42L16 43L12 43L12 42L14 42L14 40L16 40L16 39L17 39L17 40L18 40L18 41L19 41L19 42L18 42L18 43L20 43L20 42L21 42L21 40L23 40L23 39L21 39L21 40L18 40L18 39L19 39L19 37L20 37L20 38L22 38L22 36L23 36L23 35L24 35L24 32L26 32L26 33L28 33L28 34L27 34L27 35L26 35L26 36L27 36L27 35L28 35L28 37L29 37L29 35L28 35L28 34L29 34L29 33L30 33L30 32L31 32L31 31L32 31L32 34L31 34L31 35L30 35L30 38L31 38L31 39L33 39L33 40L35 40L35 43L36 43L36 41L37 41L37 42L38 42L38 43L39 43L39 45L37 45L37 44L36 44L36 45L34 45L34 46L35 46L35 47L36 47L36 48L37 48L37 47L38 47L38 48L39 48L39 45L40 45L40 43L39 43L39 42L40 42L40 40L42 40L42 39L43 39L43 38L44 38L44 37L43 37L43 36L42 36L42 37L41 37L41 38L40 38L40 39L38 39L38 38L35 38L35 36L36 36L36 35L37 35L37 36L38 36L38 34L39 34L39 33L40 33L40 32L41 32L41 31L40 31L40 32L39 32L39 33L38 33L38 30L39 30L39 29L40 29L40 30L41 30L41 29L42 29L42 30L43 30L43 29L42 29L42 28L44 28L44 31L45 31L45 30L46 30L46 29L45 29L45 27L42 27L42 28L41 28L41 29L40 29L40 28L39 28L39 27L40 27L40 25L39 25L39 24L40 24L40 23L39 23L39 21L38 21L38 22L37 22L37 20L35 20L35 19L36 19L36 18L37 18L37 16L41 16L41 15L40 15L40 14L41 14L41 13L40 13L40 14L39 14L39 15L35 15L35 11L33 11L33 12L34 12L34 13L33 13L33 14L34 14L34 15L33 15L33 18L32 18L32 21L31 21L31 20L29 20L29 21L28 21L28 22L27 22L27 20L28 20L28 19L29 19L29 18L30 18L30 19L31 19L31 17L32 17L32 16L30 16L30 17L29 17L29 16L28 16L28 14L29 14L29 12L30 12L30 9L29 9L29 10L28 10L28 11L27 11L27 9L28 9L28 8L27 8L27 9L26 9L26 10L24 10L24 11L23 11L23 12L24 12L24 11L26 11L26 12L25 12L25 13L21 13L21 11L20 11L20 10L22 10L22 6L21 6L21 7L20 7L20 6L19 6L19 7L18 7L18 5L19 5L19 4L20 4L20 5L21 5L21 3L19 3L19 1ZM23 1L23 2L22 2L22 3L23 3L23 4L24 4L24 3L25 3L25 2L24 2L24 1ZM23 2L23 3L24 3L24 2ZM18 3L18 4L19 4L19 3ZM30 4L30 5L31 5L31 4ZM23 5L23 8L26 8L26 5ZM8 6L8 7L9 7L9 6ZM14 6L14 7L15 7L15 6ZM24 6L24 7L25 7L25 6ZM27 6L27 7L28 7L28 6ZM29 6L29 7L30 7L30 6ZM36 6L36 7L37 7L37 6ZM40 6L40 7L41 7L41 6ZM19 7L19 10L18 10L18 9L17 9L17 10L18 10L18 12L19 12L19 13L20 13L20 14L21 14L21 16L19 16L19 17L21 17L21 19L20 19L20 20L22 20L22 19L23 19L23 21L24 21L24 18L25 18L25 17L27 17L27 18L26 18L26 19L25 19L25 21L26 21L26 20L27 20L27 18L28 18L28 17L27 17L27 14L28 14L28 13L26 13L26 15L25 15L25 14L21 14L21 13L20 13L20 11L19 11L19 10L20 10L20 7ZM38 8L38 9L37 9L37 10L36 10L36 9L34 9L34 10L36 10L36 11L37 11L37 10L38 10L38 12L37 12L37 14L38 14L38 12L39 12L39 11L40 11L40 10L39 10L39 8ZM41 8L41 9L42 9L42 11L43 11L43 9L42 9L42 8ZM46 9L46 10L47 10L47 9ZM2 11L2 12L1 12L1 13L3 13L3 11ZM48 12L48 14L49 14L49 12ZM6 13L6 14L7 14L7 13ZM13 13L13 14L14 14L14 13ZM1 14L1 15L2 15L2 14ZM16 15L16 16L17 16L17 15ZM22 15L22 18L24 18L24 15ZM12 16L12 17L11 17L11 18L12 18L12 19L13 19L13 20L12 20L12 22L11 22L11 23L10 23L10 25L11 25L11 26L14 26L14 25L13 25L13 24L14 24L14 23L12 23L12 22L14 22L14 20L16 20L16 19L13 19L13 16ZM34 16L34 19L35 19L35 18L36 18L36 16ZM43 16L43 17L42 17L42 18L41 18L41 20L40 20L40 22L42 22L42 20L43 20L43 19L44 19L44 18L46 18L46 17L44 17L44 16ZM38 17L38 18L39 18L39 19L38 19L38 20L39 20L39 19L40 19L40 17ZM6 18L6 19L7 19L7 18ZM42 18L42 19L43 19L43 18ZM1 19L1 20L2 20L2 19ZM34 20L34 21L33 21L33 22L32 22L32 24L33 24L33 25L35 25L35 27L37 27L37 29L34 29L34 31L35 31L35 32L33 32L33 34L32 34L32 36L33 36L33 35L34 35L34 36L35 36L35 35L36 35L36 34L38 34L38 33L36 33L36 31L37 31L37 29L38 29L38 27L37 27L37 26L39 26L39 25L37 25L37 24L38 24L38 23L37 23L37 24L35 24L35 23L36 23L36 22L34 22L34 21L35 21L35 20ZM30 21L30 23L29 23L29 24L30 24L30 23L31 23L31 21ZM1 23L1 24L2 24L2 23ZM5 23L5 26L8 26L8 23ZM11 23L11 25L12 25L12 23ZM15 23L15 24L16 24L16 25L17 25L17 24L16 24L16 23ZM21 23L21 25L22 25L22 23ZM23 23L23 26L26 26L26 23ZM33 23L33 24L34 24L34 23ZM41 23L41 26L44 26L44 23ZM6 24L6 25L7 25L7 24ZM24 24L24 25L25 25L25 24ZM42 24L42 25L43 25L43 24ZM48 24L48 26L49 26L49 24ZM12 27L12 28L13 28L13 27ZM6 28L6 29L7 29L7 28ZM28 29L28 30L29 30L29 31L27 31L27 32L28 32L28 33L29 33L29 32L30 32L30 30L29 30L29 29ZM31 29L31 30L32 30L32 29ZM22 30L22 31L23 31L23 30ZM25 30L25 31L26 31L26 30ZM35 30L35 31L36 31L36 30ZM22 32L22 33L21 33L21 34L23 34L23 32ZM34 33L34 34L35 34L35 33ZM47 34L47 35L46 35L46 37L47 37L47 36L48 36L48 38L49 38L49 36L48 36L48 34ZM32 37L32 38L33 38L33 39L34 39L34 38L33 38L33 37ZM42 37L42 38L41 38L41 39L42 39L42 38L43 38L43 37ZM5 38L5 39L7 39L7 38ZM17 38L17 39L18 39L18 38ZM13 39L13 40L12 40L12 41L13 41L13 40L14 40L14 39ZM36 39L36 40L37 40L37 41L39 41L39 40L38 40L38 39ZM9 40L9 41L10 41L10 40ZM23 41L23 44L26 44L26 41ZM41 41L41 44L44 44L44 41ZM24 42L24 43L25 43L25 42ZM42 42L42 43L43 43L43 42ZM19 44L19 46L21 46L21 44ZM27 44L27 45L26 45L26 46L27 46L27 45L28 45L28 44ZM16 45L16 47L17 47L17 46L18 46L18 45ZM36 46L36 47L37 47L37 46ZM45 46L45 47L46 47L46 46ZM26 47L26 48L27 48L27 47ZM33 47L33 48L34 48L34 47ZM0 0L0 7L7 7L7 0ZM1 1L1 6L6 6L6 1ZM2 2L2 5L5 5L5 2ZM42 0L42 7L49 7L49 0ZM43 1L43 6L48 6L48 1ZM44 2L44 5L47 5L47 2ZM0 42L0 49L7 49L7 42ZM1 43L1 48L6 48L6 43ZM2 44L2 47L5 47L5 44Z" fill="#000000"/></g></g></svg>
