<?xml version="1.0" encoding="UTF-8"?>
<svg xmlns="http://www.w3.org/2000/svg" version="1.1" width="100" height="100" viewBox="0 0 100 100"><rect x="0" y="0" width="100" height="100" fill="#ffffff"/><g transform="scale(2.041)"><g transform="translate(0,0)"><path fill-rule="evenodd" d="M11 0L11 1L8 1L8 2L9 2L9 3L8 3L8 4L9 4L9 5L8 5L8 7L9 7L9 8L6 8L6 9L5 9L5 8L0 8L0 9L5 9L5 10L6 10L6 11L7 11L7 12L5 12L5 11L4 11L4 12L5 12L5 13L7 13L7 14L6 14L6 15L5 15L5 14L1 14L1 16L0 16L0 17L1 17L1 18L2 18L2 19L4 19L4 20L2 20L2 22L3 22L3 23L4 23L4 25L3 25L3 26L4 26L4 27L3 27L3 31L2 31L2 30L1 30L1 29L2 29L2 28L0 28L0 30L1 30L1 33L0 33L0 35L2 35L2 36L0 36L0 37L2 37L2 38L1 38L1 40L0 40L0 41L3 41L3 40L4 40L4 39L2 39L2 38L3 38L3 35L4 35L4 36L5 36L5 37L7 37L7 38L5 38L5 39L7 39L7 40L6 40L6 41L8 41L8 43L9 43L9 42L10 42L10 44L8 44L8 49L9 49L9 47L10 47L10 46L11 46L11 47L12 47L12 48L10 48L10 49L12 49L12 48L13 48L13 47L14 47L14 46L13 46L13 45L15 45L15 46L16 46L16 45L15 45L15 44L16 44L16 41L17 41L17 43L18 43L18 41L19 41L19 42L20 42L20 43L19 43L19 45L18 45L18 44L17 44L17 45L18 45L18 49L21 49L21 48L22 48L22 45L26 45L26 46L23 46L23 47L24 47L24 48L23 48L23 49L27 49L27 48L29 48L29 49L30 49L30 48L33 48L33 49L34 49L34 47L35 47L35 49L37 49L37 47L36 47L36 46L34 46L34 45L33 45L33 46L34 46L34 47L32 47L32 46L31 46L31 44L34 44L34 43L35 43L35 42L34 42L34 41L37 41L37 42L36 42L36 43L37 43L37 44L35 44L35 45L37 45L37 44L38 44L38 45L39 45L39 46L38 46L38 47L39 47L39 46L40 46L40 45L42 45L42 46L41 46L41 47L40 47L40 49L42 49L42 48L43 48L43 46L45 46L45 47L47 47L47 46L49 46L49 42L48 42L48 39L49 39L49 38L48 38L48 37L49 37L49 34L48 34L48 35L47 35L47 36L46 36L46 33L47 33L47 32L46 32L46 29L47 29L47 30L48 30L48 33L49 33L49 30L48 30L48 28L46 28L46 27L45 27L45 26L46 26L46 25L47 25L47 26L48 26L48 27L49 27L49 26L48 26L48 25L49 25L49 22L48 22L48 21L49 21L49 18L48 18L48 17L49 17L49 14L48 14L48 13L49 13L49 10L48 10L48 8L47 8L47 10L46 10L46 8L45 8L45 11L42 11L42 10L43 10L43 9L44 9L44 8L43 8L43 9L42 9L42 8L40 8L40 7L41 7L41 6L40 6L40 7L39 7L39 5L38 5L38 3L35 3L35 2L32 2L32 1L33 1L33 0L32 0L32 1L31 1L31 0L30 0L30 1L29 1L29 0L28 0L28 1L25 1L25 2L24 2L24 0L23 0L23 1L21 1L21 2L20 2L20 0L17 0L17 1L18 1L18 2L17 2L17 3L18 3L18 4L16 4L16 0L13 0L13 1L15 1L15 4L16 4L16 5L15 5L15 6L14 6L14 7L13 7L13 5L14 5L14 4L13 4L13 5L12 5L12 4L11 4L11 5L10 5L10 4L9 4L9 3L11 3L11 1L12 1L12 0ZM35 0L35 1L36 1L36 2L37 2L37 1L38 1L38 2L39 2L39 4L40 4L40 3L41 3L41 0L40 0L40 1L38 1L38 0L37 0L37 1L36 1L36 0ZM28 1L28 2L29 2L29 3L27 3L27 2L25 2L25 3L26 3L26 4L27 4L27 8L28 8L28 9L29 9L29 10L27 10L27 9L26 9L26 10L25 10L25 11L24 11L24 10L23 10L23 11L22 11L22 9L21 9L21 8L19 8L19 9L18 9L18 6L19 6L19 7L20 7L20 5L17 5L17 9L16 9L16 6L15 6L15 8L13 8L13 7L12 7L12 5L11 5L11 7L10 7L10 6L9 6L9 7L10 7L10 8L11 8L11 9L10 9L10 10L9 10L9 11L8 11L8 9L6 9L6 10L7 10L7 11L8 11L8 12L7 12L7 13L8 13L8 17L9 17L9 18L7 18L7 17L6 17L6 18L7 18L7 19L6 19L6 20L7 20L7 21L6 21L6 22L9 22L9 21L10 21L10 24L9 24L9 26L10 26L10 27L11 27L11 30L10 30L10 31L9 31L9 29L10 29L10 28L9 28L9 27L8 27L8 28L7 28L7 27L6 27L6 28L7 28L7 29L5 29L5 27L4 27L4 29L5 29L5 30L7 30L7 29L8 29L8 31L3 31L3 32L2 32L2 33L1 33L1 34L4 34L4 35L6 35L6 36L7 36L7 37L8 37L8 35L9 35L9 34L10 34L10 36L11 36L11 37L12 37L12 38L11 38L11 39L12 39L12 41L11 41L11 40L10 40L10 38L9 38L9 39L8 39L8 40L9 40L9 41L10 41L10 42L11 42L11 44L12 44L12 41L16 41L16 39L15 39L15 38L16 38L16 37L18 37L18 36L17 36L17 35L18 35L18 34L19 34L19 33L20 33L20 35L19 35L19 37L22 37L22 35L23 35L23 34L24 34L24 37L23 37L23 38L21 38L21 41L20 41L20 40L19 40L19 41L20 41L20 42L22 42L22 40L23 40L23 38L24 38L24 37L25 37L25 38L26 38L26 39L27 39L27 38L26 38L26 37L25 37L25 35L27 35L27 36L28 36L28 37L29 37L29 38L28 38L28 39L29 39L29 38L30 38L30 39L31 39L31 38L32 38L32 39L33 39L33 40L31 40L31 41L32 41L32 43L34 43L34 42L33 42L33 41L34 41L34 40L36 40L36 38L37 38L37 37L35 37L35 36L37 36L37 35L39 35L39 33L38 33L38 34L37 34L37 35L36 35L36 34L35 34L35 32L36 32L36 30L37 30L37 32L40 32L40 35L42 35L42 38L43 38L43 40L46 40L46 42L45 42L45 43L46 43L46 44L45 44L45 45L46 45L46 46L47 46L47 45L46 45L46 44L48 44L48 42L47 42L47 39L48 39L48 38L47 38L47 37L48 37L48 36L47 36L47 37L46 37L46 36L45 36L45 35L44 35L44 34L45 34L45 33L46 33L46 32L45 32L45 29L46 29L46 28L45 28L45 27L42 27L42 29L43 29L43 30L44 30L44 32L45 32L45 33L41 33L41 32L42 32L42 31L38 31L38 30L40 30L40 29L38 29L38 30L37 30L37 29L36 29L36 30L35 30L35 28L37 28L37 25L38 25L38 28L39 28L39 23L40 23L40 22L42 22L42 21L44 21L44 22L45 22L45 21L46 21L46 20L47 20L47 19L48 19L48 18L47 18L47 17L48 17L48 14L47 14L47 13L48 13L48 10L47 10L47 11L46 11L46 12L42 12L42 11L36 11L36 9L35 9L35 7L36 7L36 4L35 4L35 3L31 3L31 1L30 1L30 2L29 2L29 1ZM12 2L12 3L14 3L14 2ZM19 2L19 4L21 4L21 7L22 7L22 4L21 4L21 3L22 3L22 2L21 2L21 3L20 3L20 2ZM23 3L23 4L24 4L24 3ZM30 3L30 5L29 5L29 4L28 4L28 5L29 5L29 6L28 6L28 8L29 8L29 9L30 9L30 10L29 10L29 11L27 11L27 10L26 10L26 11L27 11L27 12L29 12L29 13L30 13L30 14L29 14L29 15L28 15L28 14L25 14L25 12L21 12L21 14L22 14L22 13L23 13L23 15L24 15L24 16L23 16L23 17L22 17L22 18L21 18L21 19L24 19L24 20L21 20L21 21L19 21L19 18L20 18L20 16L19 16L19 15L20 15L20 14L19 14L19 13L20 13L20 12L19 12L19 13L18 13L18 12L17 12L17 13L18 13L18 14L17 14L17 16L16 16L16 15L15 15L15 14L16 14L16 13L15 13L15 12L16 12L16 11L18 11L18 9L17 9L17 10L16 10L16 9L13 9L13 8L12 8L12 9L11 9L11 10L10 10L10 11L9 11L9 12L8 12L8 13L9 13L9 12L10 12L10 14L9 14L9 15L10 15L10 14L11 14L11 16L10 16L10 18L9 18L9 19L8 19L8 21L9 21L9 20L10 20L10 21L11 21L11 20L12 20L12 21L13 21L13 22L14 22L14 23L16 23L16 25L13 25L13 24L12 24L12 25L13 25L13 26L12 26L12 29L15 29L15 30L16 30L16 29L15 29L15 28L16 28L16 25L17 25L17 27L18 27L18 25L19 25L19 24L20 24L20 25L21 25L21 24L22 24L22 26L21 26L21 28L22 28L22 29L21 29L21 30L22 30L22 31L21 31L21 32L20 32L20 33L21 33L21 35L20 35L20 36L21 36L21 35L22 35L22 34L23 34L23 33L22 33L22 31L23 31L23 32L25 32L25 33L24 33L24 34L25 34L25 33L26 33L26 34L27 34L27 35L28 35L28 36L29 36L29 37L30 37L30 38L31 38L31 37L30 37L30 36L34 36L34 35L35 35L35 34L34 34L34 33L33 33L33 34L34 34L34 35L28 35L28 34L32 34L32 33L28 33L28 32L29 32L29 31L30 31L30 32L34 32L34 31L35 31L35 30L34 30L34 29L33 29L33 30L34 30L34 31L30 31L30 30L31 30L31 28L34 28L34 27L36 27L36 26L34 26L34 25L37 25L37 22L38 22L38 23L39 23L39 22L40 22L40 21L41 21L41 20L46 20L46 17L47 17L47 16L46 16L46 15L42 15L42 14L43 14L43 13L42 13L42 14L41 14L41 16L40 16L40 17L39 17L39 18L37 18L37 17L38 17L38 16L36 16L36 17L35 17L35 16L33 16L33 14L34 14L34 15L36 15L36 14L34 14L34 12L35 12L35 13L37 13L37 12L36 12L36 11L35 11L35 10L34 10L34 7L35 7L35 5L34 5L34 7L33 7L33 5L32 5L32 4L31 4L31 3ZM23 5L23 8L26 8L26 5ZM30 5L30 6L29 6L29 8L32 8L32 9L31 9L31 10L30 10L30 11L29 11L29 12L31 12L31 14L30 14L30 15L32 15L32 14L33 14L33 12L31 12L31 11L34 11L34 10L32 10L32 9L33 9L33 8L32 8L32 5ZM24 6L24 7L25 7L25 6ZM30 6L30 7L31 7L31 6ZM37 6L37 10L39 10L39 9L40 9L40 10L42 10L42 9L40 9L40 8L39 8L39 7L38 7L38 6ZM12 9L12 11L10 11L10 12L12 12L12 13L11 13L11 14L12 14L12 13L13 13L13 15L14 15L14 16L12 16L12 18L10 18L10 20L11 20L11 19L12 19L12 18L13 18L13 19L14 19L14 20L13 20L13 21L14 21L14 22L16 22L16 21L18 21L18 20L17 20L17 19L18 19L18 18L19 18L19 17L18 17L18 16L17 16L17 17L16 17L16 16L15 16L15 15L14 15L14 14L15 14L15 13L13 13L13 12L14 12L14 11L13 11L13 9ZM19 9L19 10L20 10L20 9ZM0 10L0 12L1 12L1 13L2 13L2 12L1 12L1 11L2 11L2 10ZM15 10L15 11L16 11L16 10ZM12 11L12 12L13 12L13 11ZM38 12L38 13L41 13L41 12ZM46 12L46 13L47 13L47 12ZM44 13L44 14L45 14L45 13ZM24 14L24 15L25 15L25 14ZM38 14L38 15L40 15L40 14ZM2 15L2 16L3 16L3 15ZM6 15L6 16L7 16L7 15ZM21 15L21 16L22 16L22 15ZM27 15L27 16L26 16L26 18L25 18L25 16L24 16L24 17L23 17L23 18L24 18L24 19L26 19L26 20L25 20L25 22L27 22L27 21L28 21L28 23L27 23L27 24L28 24L28 27L27 27L27 28L26 28L26 31L25 31L25 30L24 30L24 27L22 27L22 28L23 28L23 30L24 30L24 31L25 31L25 32L26 32L26 33L27 33L27 34L28 34L28 33L27 33L27 32L28 32L28 31L29 31L29 30L30 30L30 29L29 29L29 28L31 28L31 27L34 27L34 26L30 26L30 25L29 25L29 24L28 24L28 23L29 23L29 22L30 22L30 23L34 23L34 24L36 24L36 22L37 22L37 21L38 21L38 22L39 22L39 21L40 21L40 18L41 18L41 19L42 19L42 18L41 18L41 17L44 17L44 18L43 18L43 19L44 19L44 18L45 18L45 17L46 17L46 16L41 16L41 17L40 17L40 18L39 18L39 21L38 21L38 20L37 20L37 19L36 19L36 18L35 18L35 17L34 17L34 18L32 18L32 17L33 17L33 16L31 16L31 18L30 18L30 16L28 16L28 15ZM4 16L4 18L5 18L5 16ZM27 16L27 17L28 17L28 18L26 18L26 19L27 19L27 20L29 20L29 19L30 19L30 18L29 18L29 17L28 17L28 16ZM2 17L2 18L3 18L3 17ZM13 17L13 18L16 18L16 17ZM17 17L17 18L18 18L18 17ZM28 18L28 19L29 19L29 18ZM31 18L31 20L30 20L30 22L31 22L31 20L33 20L33 22L34 22L34 23L35 23L35 22L34 22L34 19L35 19L35 18L34 18L34 19L32 19L32 18ZM0 19L0 20L1 20L1 19ZM4 20L4 21L5 21L5 20ZM15 20L15 21L16 21L16 20ZM36 20L36 21L37 21L37 20ZM0 21L0 24L1 24L1 21ZM21 21L21 23L22 23L22 21ZM23 21L23 22L24 22L24 21ZM17 22L17 25L18 25L18 24L19 24L19 23L20 23L20 22L19 22L19 23L18 23L18 22ZM46 22L46 24L45 24L45 25L46 25L46 24L47 24L47 25L48 25L48 22ZM5 23L5 26L8 26L8 23ZM23 23L23 26L26 26L26 23ZM41 23L41 26L44 26L44 23ZM6 24L6 25L7 25L7 24ZM10 24L10 25L11 25L11 24ZM24 24L24 25L25 25L25 24ZM31 24L31 25L33 25L33 24ZM42 24L42 25L43 25L43 24ZM0 25L0 27L2 27L2 26L1 26L1 25ZM19 26L19 27L20 27L20 26ZM29 26L29 27L30 27L30 26ZM13 27L13 28L14 28L14 27ZM17 28L17 29L18 29L18 33L17 33L17 32L16 32L16 31L14 31L14 30L11 30L11 32L9 32L9 33L10 33L10 34L11 34L11 35L12 35L12 37L13 37L13 40L14 40L14 37L13 37L13 36L14 36L14 35L13 35L13 34L15 34L15 37L16 37L16 33L17 33L17 34L18 34L18 33L19 33L19 31L20 31L20 30L19 30L19 29L20 29L20 28L19 28L19 29L18 29L18 28ZM43 28L43 29L45 29L45 28ZM27 29L27 30L28 30L28 29ZM13 31L13 32L12 32L12 33L11 33L11 34L13 34L13 33L16 33L16 32L14 32L14 31ZM26 31L26 32L27 32L27 31ZM4 32L4 33L5 33L5 34L6 34L6 35L7 35L7 34L6 34L6 33L8 33L8 32ZM42 34L42 35L43 35L43 34ZM40 36L40 37L38 37L38 38L39 38L39 39L38 39L38 44L39 44L39 40L42 40L42 39L40 39L40 37L41 37L41 36ZM43 36L43 37L45 37L45 38L44 38L44 39L47 39L47 38L46 38L46 37L45 37L45 36ZM33 37L33 38L34 38L34 39L35 39L35 38L34 38L34 37ZM19 38L19 39L20 39L20 38ZM17 39L17 41L18 41L18 39ZM27 40L27 41L28 41L28 42L27 42L27 44L28 44L28 45L29 45L29 46L28 46L28 47L29 47L29 48L30 48L30 47L31 47L31 46L30 46L30 43L31 43L31 42L29 42L29 41L30 41L30 40ZM23 41L23 44L26 44L26 41ZM41 41L41 44L44 44L44 41ZM24 42L24 43L25 43L25 42ZM42 42L42 43L43 43L43 42ZM13 43L13 44L14 44L14 43ZM20 43L20 45L19 45L19 46L20 46L20 47L19 47L19 48L21 48L21 45L22 45L22 43ZM28 43L28 44L29 44L29 43ZM9 45L9 46L10 46L10 45ZM11 45L11 46L12 46L12 45ZM26 46L26 47L25 47L25 48L27 48L27 46ZM29 46L29 47L30 47L30 46ZM15 47L15 48L16 48L16 49L17 49L17 48L16 48L16 47ZM41 47L41 48L42 48L42 47ZM48 47L48 48L47 48L47 49L49 49L49 47ZM38 48L38 49L39 49L39 48ZM0 0L0 7L7 7L7 0ZM1 1L1 6L6 6L6 1ZM2 2L2 5L5 5L5 2ZM42 0L42 7L49 7L49 0ZM43 1L43 6L48 6L48 1ZM44 2L44 5L47 5L47 2ZM0 42L0 49L7 49L7 42ZM1 43L1 48L6 48L6 43ZM2 44L2 47L5 47L5 44Z" fill="#000000"/></g></g></svg>
