<?xml version="1.0" encoding="UTF-8"?>
<svg xmlns="http://www.w3.org/2000/svg" version="1.1" width="100" height="100" viewBox="0 0 100 100"><rect x="0" y="0" width="100" height="100" fill="#ffffff"/><g transform="scale(2.041)"><g transform="translate(0,0)"><path fill-rule="evenodd" d="M12 0L12 2L11 2L11 1L8 1L8 2L9 2L9 3L8 3L8 4L9 4L9 3L13 3L13 4L12 4L12 5L8 5L8 7L9 7L9 6L10 6L10 9L12 9L12 11L11 11L11 10L10 10L10 11L9 11L9 10L8 10L8 9L9 9L9 8L6 8L6 9L5 9L5 8L0 8L0 9L1 9L1 11L0 11L0 12L2 12L2 13L3 13L3 14L2 14L2 15L3 15L3 16L2 16L2 17L1 17L1 15L0 15L0 17L1 17L1 18L0 18L0 19L1 19L1 18L2 18L2 20L1 20L1 21L2 21L2 22L1 22L1 25L0 25L0 26L2 26L2 27L1 27L1 28L0 28L0 31L1 31L1 32L0 32L0 33L1 33L1 32L3 32L3 30L1 30L1 28L2 28L2 29L3 29L3 28L2 28L2 27L3 27L3 26L4 26L4 30L6 30L6 31L10 31L10 30L11 30L11 31L12 31L12 32L11 32L11 34L10 34L10 36L9 36L9 37L7 37L7 36L8 36L8 34L6 34L6 33L7 33L7 32L6 32L6 33L5 33L5 32L4 32L4 34L3 34L3 33L2 33L2 34L3 34L3 35L2 35L2 36L1 36L1 35L0 35L0 38L1 38L1 40L0 40L0 41L3 41L3 40L4 40L4 39L2 39L2 36L4 36L4 37L3 37L3 38L4 38L4 37L5 37L5 39L7 39L7 40L6 40L6 41L7 41L7 40L8 40L8 43L9 43L9 44L8 44L8 49L12 49L12 47L11 47L11 48L10 48L10 46L9 46L9 45L11 45L11 46L12 46L12 45L13 45L13 47L14 47L14 45L13 45L13 44L14 44L14 43L13 43L13 42L15 42L15 45L16 45L16 46L15 46L15 47L16 47L16 49L17 49L17 46L18 46L18 49L21 49L21 48L22 48L22 46L21 46L21 45L27 45L27 46L23 46L23 47L24 47L24 48L23 48L23 49L28 49L28 48L29 48L29 49L31 49L31 48L33 48L33 47L32 47L32 46L31 46L31 44L34 44L34 43L35 43L35 42L34 42L34 41L33 41L33 42L34 42L34 43L30 43L30 46L29 46L29 45L28 45L28 44L29 44L29 43L28 43L28 44L27 44L27 42L28 42L28 40L29 40L29 39L30 39L30 40L34 40L34 39L35 39L35 41L37 41L37 42L36 42L36 43L37 43L37 44L35 44L35 45L37 45L37 44L38 44L38 45L39 45L39 46L38 46L38 47L36 47L36 46L34 46L34 45L33 45L33 46L34 46L34 47L35 47L35 48L34 48L34 49L38 49L38 47L39 47L39 46L40 46L40 45L42 45L42 46L41 46L41 47L40 47L40 49L42 49L42 48L43 48L43 46L45 46L45 47L47 47L47 46L46 46L46 45L49 45L49 42L48 42L48 41L49 41L49 38L48 38L48 37L49 37L49 34L48 34L48 33L49 33L49 30L48 30L48 29L49 29L49 26L48 26L48 27L47 27L47 28L46 28L46 27L45 27L45 26L46 26L46 25L47 25L47 24L46 24L46 23L45 23L45 22L44 22L44 21L42 21L42 22L40 22L40 21L41 21L41 20L46 20L46 21L47 21L47 22L48 22L48 25L49 25L49 22L48 22L48 20L46 20L46 17L47 17L47 18L48 18L48 19L49 19L49 18L48 18L48 17L49 17L49 14L48 14L48 13L49 13L49 10L48 10L48 8L47 8L47 10L46 10L46 8L45 8L45 10L44 10L44 8L43 8L43 9L42 9L42 8L40 8L40 7L41 7L41 6L40 6L40 7L39 7L39 5L38 5L38 3L35 3L35 2L31 2L31 3L30 3L30 5L29 5L29 4L28 4L28 5L29 5L29 6L28 6L28 8L27 8L27 4L26 4L26 3L25 3L25 2L27 2L27 3L29 3L29 2L27 2L27 1L31 1L31 0L27 0L27 1L25 1L25 2L24 2L24 0L23 0L23 1L21 1L21 2L20 2L20 0L17 0L17 2L18 2L18 1L19 1L19 2L20 2L20 3L19 3L19 4L18 4L18 3L17 3L17 4L18 4L18 5L19 5L19 6L18 6L18 9L17 9L17 8L16 8L16 7L17 7L17 6L16 6L16 7L15 7L15 6L14 6L14 7L13 7L13 4L15 4L15 5L16 5L16 4L15 4L15 3L16 3L16 0ZM32 0L32 1L33 1L33 0ZM36 0L36 2L37 2L37 1L38 1L38 2L39 2L39 4L40 4L40 3L41 3L41 0L40 0L40 1L38 1L38 0ZM13 2L13 3L14 3L14 2ZM22 2L22 3L20 3L20 4L19 4L19 5L20 5L20 6L19 6L19 9L18 9L18 10L17 10L17 9L16 9L16 8L13 8L13 7L12 7L12 6L11 6L11 8L12 8L12 9L16 9L16 10L13 10L13 11L14 11L14 12L9 12L9 11L6 11L6 10L7 10L7 9L6 9L6 10L5 10L5 9L4 9L4 10L3 10L3 13L4 13L4 14L3 14L3 15L4 15L4 16L3 16L3 17L2 17L2 18L3 18L3 19L4 19L4 20L5 20L5 19L6 19L6 20L7 20L7 19L9 19L9 20L10 20L10 21L11 21L11 22L12 22L12 23L9 23L9 24L10 24L10 25L9 25L9 27L5 27L5 29L6 29L6 30L8 30L8 28L9 28L9 30L10 30L10 25L11 25L11 26L13 26L13 27L14 27L14 28L13 28L13 29L12 29L12 28L11 28L11 30L13 30L13 29L14 29L14 31L13 31L13 33L12 33L12 34L11 34L11 36L12 36L12 35L13 35L13 36L14 36L14 35L13 35L13 33L16 33L16 36L15 36L15 37L13 37L13 38L14 38L14 40L12 40L12 39L11 39L11 38L12 38L12 37L9 37L9 43L11 43L11 45L12 45L12 41L16 41L16 45L18 45L18 44L17 44L17 43L18 43L18 42L19 42L19 43L20 43L20 44L19 44L19 45L21 45L21 43L22 43L22 42L21 42L21 41L20 41L20 40L21 40L21 39L22 39L22 40L24 40L24 38L21 38L21 37L22 37L22 36L23 36L23 37L24 37L24 36L28 36L28 37L29 37L29 38L28 38L28 39L27 39L27 38L26 38L26 37L25 37L25 38L26 38L26 39L27 39L27 40L28 40L28 39L29 39L29 38L30 38L30 39L31 39L31 38L32 38L32 39L34 39L34 38L35 38L35 39L36 39L36 38L37 38L37 37L35 37L35 36L37 36L37 35L36 35L36 34L37 34L37 33L38 33L38 35L39 35L39 32L40 32L40 35L42 35L42 37L43 37L43 36L44 36L44 38L43 38L43 40L45 40L45 41L46 41L46 42L45 42L45 43L46 43L46 44L45 44L45 45L46 45L46 44L47 44L47 43L48 43L48 42L47 42L47 41L48 41L48 38L47 38L47 37L48 37L48 36L47 36L47 35L48 35L48 34L47 34L47 33L48 33L48 30L46 30L46 32L45 32L45 31L44 31L44 30L45 30L45 29L46 29L46 28L45 28L45 27L42 27L42 28L45 28L45 29L41 29L41 28L40 28L40 29L38 29L38 30L37 30L37 29L36 29L36 30L35 30L35 28L37 28L37 27L36 27L36 26L35 26L35 25L34 25L34 26L33 26L33 24L36 24L36 22L37 22L37 24L38 24L38 25L37 25L37 26L39 26L39 23L40 23L40 22L39 22L39 21L40 21L40 20L41 20L41 19L40 19L40 18L42 18L42 19L43 19L43 18L42 18L42 15L45 15L45 14L44 14L44 13L46 13L46 16L43 16L43 17L44 17L44 19L45 19L45 17L46 17L46 16L47 16L47 17L48 17L48 14L47 14L47 13L46 13L46 12L47 12L47 11L48 11L48 10L47 10L47 11L46 11L46 12L42 12L42 11L44 11L44 10L42 10L42 9L40 9L40 8L39 8L39 7L38 7L38 6L37 6L37 7L36 7L36 4L35 4L35 3L31 3L31 4L32 4L32 5L30 5L30 6L29 6L29 7L30 7L30 6L31 6L31 7L32 7L32 5L33 5L33 7L34 7L34 8L28 8L28 9L26 9L26 10L25 10L25 9L23 9L23 10L24 10L24 11L22 11L22 8L21 8L21 7L22 7L22 6L21 6L21 4L23 4L23 3L24 3L24 4L25 4L25 3L24 3L24 2ZM23 5L23 8L26 8L26 5ZM34 5L34 7L35 7L35 5ZM20 6L20 7L21 7L21 6ZM24 6L24 7L25 7L25 6ZM37 7L37 8L36 8L36 9L35 9L35 8L34 8L34 9L35 9L35 10L36 10L36 11L32 11L32 10L33 10L33 9L32 9L32 10L31 10L31 9L30 9L30 10L29 10L29 11L27 11L27 10L26 10L26 11L27 11L27 12L21 12L21 13L19 13L19 10L20 10L20 9L19 9L19 10L18 10L18 11L17 11L17 10L16 10L16 11L15 11L15 13L16 13L16 14L14 14L14 13L13 13L13 14L12 14L12 13L11 13L11 15L10 15L10 13L8 13L8 12L6 12L6 11L5 11L5 10L4 10L4 11L5 11L5 13L8 13L8 14L6 14L6 15L5 15L5 14L4 14L4 15L5 15L5 16L6 16L6 17L8 17L8 16L6 16L6 15L8 15L8 14L9 14L9 15L10 15L10 16L9 16L9 17L10 17L10 16L12 16L12 17L11 17L11 21L15 21L15 22L14 22L14 23L15 23L15 24L16 24L16 25L13 25L13 26L15 26L15 29L16 29L16 30L15 30L15 31L14 31L14 32L15 32L15 31L16 31L16 33L17 33L17 35L18 35L18 33L19 33L19 35L20 35L20 36L19 36L19 37L18 37L18 36L17 36L17 37L18 37L18 38L17 38L17 39L18 39L18 41L17 41L17 40L16 40L16 39L15 39L15 40L16 40L16 41L17 41L17 42L18 42L18 41L19 41L19 42L20 42L20 43L21 43L21 42L20 42L20 41L19 41L19 39L20 39L20 38L19 38L19 37L20 37L20 36L21 36L21 35L23 35L23 36L24 36L24 34L25 34L25 35L26 35L26 34L25 34L25 33L26 33L26 32L29 32L29 33L30 33L30 34L28 34L28 33L27 33L27 35L28 35L28 36L29 36L29 37L30 37L30 38L31 38L31 37L30 37L30 36L34 36L34 35L35 35L35 34L34 34L34 33L37 33L37 30L36 30L36 32L34 32L34 31L35 31L35 30L34 30L34 29L33 29L33 30L34 30L34 31L30 31L30 30L31 30L31 28L34 28L34 27L35 27L35 26L34 26L34 27L31 27L31 28L29 28L29 29L30 29L30 30L29 30L29 31L26 31L26 28L27 28L27 27L28 27L28 26L29 26L29 27L30 27L30 26L32 26L32 25L31 25L31 24L33 24L33 23L30 23L30 22L31 22L31 20L33 20L33 22L34 22L34 23L35 23L35 22L34 22L34 19L36 19L36 18L34 18L34 15L36 15L36 16L35 16L35 17L37 17L37 15L36 15L36 14L34 14L34 12L35 12L35 13L37 13L37 12L36 12L36 11L39 11L39 10L40 10L40 12L38 12L38 13L41 13L41 11L42 11L42 10L40 10L40 9L39 9L39 8L38 8L38 7ZM37 8L37 10L39 10L39 9L38 9L38 8ZM30 10L30 11L29 11L29 12L27 12L27 13L25 13L25 14L24 14L24 15L23 15L23 16L22 16L22 15L21 15L21 16L20 16L20 18L19 18L19 17L18 17L18 16L17 16L17 17L16 17L16 15L14 15L14 14L13 14L13 15L12 15L12 16L13 16L13 17L16 17L16 18L15 18L15 21L16 21L16 22L15 22L15 23L16 23L16 24L17 24L17 25L16 25L16 29L18 29L18 28L17 28L17 27L18 27L18 26L20 26L20 27L19 27L19 29L22 29L22 28L21 28L21 25L20 25L20 24L22 24L22 23L21 23L21 20L24 20L24 18L23 18L23 19L21 19L21 18L22 18L22 17L24 17L24 15L25 15L25 14L28 14L28 15L29 15L29 16L26 16L26 18L25 18L25 22L27 22L27 21L28 21L28 23L27 23L27 24L28 24L28 25L27 25L27 26L28 26L28 25L29 25L29 26L30 26L30 25L29 25L29 24L30 24L30 23L29 23L29 22L30 22L30 20L31 20L31 19L34 19L34 18L29 18L29 16L31 16L31 17L33 17L33 16L31 16L31 15L32 15L32 14L33 14L33 15L34 15L34 14L33 14L33 12L31 12L31 10ZM16 11L16 13L18 13L18 12L17 12L17 11ZM29 12L29 13L30 13L30 14L29 14L29 15L30 15L30 14L31 14L31 12ZM21 13L21 14L22 14L22 13ZM42 13L42 14L41 14L41 15L42 15L42 14L43 14L43 13ZM19 14L19 15L20 15L20 14ZM38 14L38 15L40 15L40 14ZM13 15L13 16L14 16L14 15ZM21 16L21 17L22 17L22 16ZM39 16L39 17L40 17L40 16ZM3 17L3 18L5 18L5 17ZM17 17L17 19L18 19L18 17ZM27 17L27 18L26 18L26 19L27 19L27 20L29 20L29 19L28 19L28 17ZM6 18L6 19L7 19L7 18ZM12 18L12 20L14 20L14 19L13 19L13 18ZM37 18L37 20L36 20L36 21L37 21L37 22L38 22L38 23L39 23L39 22L38 22L38 21L39 21L39 18ZM2 20L2 21L3 21L3 20ZM17 20L17 21L18 21L18 23L20 23L20 22L19 22L19 21L20 21L20 20L19 20L19 21L18 21L18 20ZM37 20L37 21L38 21L38 20ZM5 21L5 22L7 22L7 21ZM22 21L22 22L24 22L24 21ZM3 22L3 23L4 23L4 22ZM5 23L5 26L8 26L8 23ZM23 23L23 26L26 26L26 23ZM28 23L28 24L29 24L29 23ZM41 23L41 26L44 26L44 23ZM2 24L2 25L4 25L4 24ZM6 24L6 25L7 25L7 24ZM11 24L11 25L12 25L12 24ZM18 24L18 25L17 25L17 26L18 26L18 25L19 25L19 24ZM24 24L24 25L25 25L25 24ZM42 24L42 25L43 25L43 24ZM45 24L45 25L46 25L46 24ZM23 27L23 28L24 28L24 29L23 29L23 31L22 31L22 30L21 30L21 33L20 33L20 32L19 32L19 33L20 33L20 35L21 35L21 34L24 34L24 33L25 33L25 32L26 32L26 31L25 31L25 30L24 30L24 29L25 29L25 28L24 28L24 27ZM38 27L38 28L39 28L39 27ZM6 28L6 29L7 29L7 28ZM47 28L47 29L48 29L48 28ZM27 29L27 30L28 30L28 29ZM40 29L40 31L42 31L42 32L41 32L41 33L45 33L45 34L44 34L44 35L45 35L45 36L46 36L46 37L45 37L45 38L44 38L44 39L45 39L45 40L46 40L46 41L47 41L47 40L46 40L46 37L47 37L47 36L46 36L46 33L47 33L47 32L46 32L46 33L45 33L45 32L43 32L43 30L41 30L41 29ZM17 30L17 33L18 33L18 30ZM19 30L19 31L20 31L20 30ZM38 30L38 31L39 31L39 30ZM24 31L24 32L25 32L25 31ZM29 31L29 32L30 32L30 31ZM9 32L9 33L10 33L10 32ZM22 32L22 33L23 33L23 32ZM31 32L31 33L32 33L32 35L34 35L34 34L33 34L33 32ZM30 34L30 35L31 35L31 34ZM42 34L42 35L43 35L43 34ZM5 35L5 36L7 36L7 35ZM6 37L6 38L7 38L7 37ZM15 37L15 38L16 38L16 37ZM33 37L33 38L34 38L34 37ZM38 37L38 38L39 38L39 39L37 39L37 40L42 40L42 39L40 39L40 37ZM10 39L10 42L11 42L11 41L12 41L12 40L11 40L11 39ZM23 41L23 44L26 44L26 41ZM29 41L29 42L31 42L31 41ZM38 41L38 42L37 42L37 43L38 43L38 44L39 44L39 41ZM41 41L41 44L44 44L44 41ZM24 42L24 43L25 43L25 42ZM42 42L42 43L43 43L43 42ZM19 46L19 47L20 47L20 46ZM28 46L28 47L25 47L25 48L28 48L28 47L29 47L29 46ZM30 46L30 47L31 47L31 46ZM41 47L41 48L42 48L42 47ZM48 47L48 48L47 48L47 49L49 49L49 47ZM45 48L45 49L46 49L46 48ZM0 0L0 7L7 7L7 0ZM1 1L1 6L6 6L6 1ZM2 2L2 5L5 5L5 2ZM42 0L42 7L49 7L49 0ZM43 1L43 6L48 6L48 1ZM44 2L44 5L47 5L47 2ZM0 42L0 49L7 49L7 42ZM1 43L1 48L6 48L6 43ZM2 44L2 47L5 47L5 44Z" fill="#000000"/></g></g></svg>
