<?xml version="1.0" encoding="UTF-8"?>
<svg xmlns="http://www.w3.org/2000/svg" version="1.1" width="100" height="100" viewBox="0 0 100 100"><rect x="0" y="0" width="100" height="100" fill="#ffffff"/><g transform="scale(2.041)"><g transform="translate(0,0)"><path fill-rule="evenodd" d="M9 0L9 1L8 1L8 2L10 2L10 3L8 3L8 4L9 4L9 5L8 5L8 7L9 7L9 5L10 5L10 7L11 7L11 4L12 4L12 5L14 5L14 4L12 4L12 3L11 3L11 2L13 2L13 3L14 3L14 2L13 2L13 1L16 1L16 0L13 0L13 1L11 1L11 2L10 2L10 0ZM17 0L17 1L18 1L18 2L17 2L17 3L18 3L18 4L16 4L16 3L15 3L15 4L16 4L16 5L15 5L15 6L14 6L14 7L13 7L13 6L12 6L12 9L11 9L11 8L6 8L6 9L7 9L7 10L6 10L6 11L7 11L7 12L6 12L6 13L5 13L5 14L6 14L6 15L4 15L4 12L3 12L3 10L4 10L4 9L5 9L5 8L0 8L0 11L1 11L1 12L0 12L0 13L1 13L1 16L2 16L2 17L0 17L0 19L5 19L5 20L6 20L6 21L11 21L11 23L10 23L10 22L4 22L4 20L0 20L0 21L2 21L2 22L0 22L0 24L2 24L2 25L4 25L4 26L3 26L3 28L2 28L2 26L1 26L1 28L2 28L2 29L1 29L1 30L0 30L0 36L2 36L2 35L3 35L3 36L4 36L4 35L3 35L3 33L1 33L1 32L3 32L3 28L4 28L4 29L7 29L7 28L8 28L8 27L10 27L10 30L12 30L12 32L11 32L11 31L10 31L10 32L9 32L9 30L6 30L6 31L4 31L4 32L6 32L6 33L7 33L7 34L5 34L5 33L4 33L4 34L5 34L5 35L8 35L8 33L9 33L9 37L8 37L8 36L5 36L5 37L8 37L8 38L5 38L5 39L7 39L7 40L6 40L6 41L7 41L7 40L8 40L8 38L9 38L9 37L10 37L10 36L11 36L11 35L10 35L10 34L12 34L12 33L13 33L13 34L15 34L15 37L16 37L16 38L14 38L14 37L13 37L13 36L14 36L14 35L13 35L13 36L12 36L12 37L11 37L11 38L10 38L10 41L8 41L8 43L10 43L10 44L8 44L8 49L9 49L9 48L10 48L10 49L12 49L12 48L13 48L13 47L14 47L14 48L16 48L16 49L17 49L17 48L16 48L16 47L14 47L14 46L13 46L13 45L15 45L15 46L16 46L16 45L15 45L15 43L16 43L16 41L17 41L17 43L18 43L18 41L19 41L19 40L20 40L20 41L21 41L21 38L22 38L22 39L23 39L23 38L22 38L22 37L24 37L24 40L22 40L22 42L19 42L19 45L18 45L18 44L17 44L17 45L18 45L18 49L19 49L19 47L20 47L20 46L19 46L19 45L20 45L20 44L21 44L21 43L22 43L22 45L21 45L21 46L22 46L22 45L28 45L28 44L30 44L30 46L29 46L29 47L28 47L28 46L23 46L23 47L22 47L22 48L23 48L23 49L27 49L27 48L29 48L29 49L31 49L31 48L33 48L33 49L36 49L36 48L37 48L37 49L39 49L39 48L37 48L37 47L36 47L36 46L34 46L34 45L37 45L37 44L38 44L38 45L39 45L39 46L38 46L38 47L39 47L39 46L40 46L40 45L42 45L42 46L41 46L41 47L42 47L42 48L40 48L40 49L42 49L42 48L43 48L43 47L42 47L42 46L45 46L45 48L46 48L46 49L49 49L49 47L48 47L48 48L46 48L46 45L49 45L49 42L48 42L48 41L49 41L49 40L48 40L48 39L49 39L49 38L48 38L48 37L49 37L49 34L48 34L48 33L49 33L49 30L48 30L48 29L49 29L49 26L48 26L48 25L49 25L49 22L48 22L48 21L49 21L49 20L48 20L48 19L49 19L49 18L48 18L48 19L47 19L47 20L46 20L46 17L47 17L47 16L46 16L46 15L43 15L43 16L41 16L41 17L42 17L42 18L37 18L37 16L38 16L38 17L40 17L40 16L38 16L38 15L40 15L40 14L38 14L38 15L36 15L36 14L34 14L34 12L35 12L35 13L37 13L37 12L36 12L36 11L39 11L39 10L37 10L37 9L40 9L40 7L41 7L41 6L40 6L40 7L39 7L39 5L38 5L38 3L35 3L35 2L37 2L37 1L38 1L38 2L39 2L39 4L40 4L40 3L41 3L41 0L40 0L40 1L38 1L38 0L35 0L35 2L34 2L34 1L33 1L33 2L30 2L30 1L32 1L32 0L30 0L30 1L29 1L29 0L27 0L27 1L25 1L25 0L24 0L24 3L21 3L21 4L19 4L19 1L20 1L20 0ZM21 1L21 2L22 2L22 1ZM27 1L27 2L25 2L25 3L26 3L26 4L28 4L28 6L27 6L27 8L28 8L28 9L26 9L26 10L24 10L24 9L23 9L23 10L22 10L22 6L21 6L21 9L20 9L20 8L19 8L19 10L18 10L18 9L16 9L16 6L15 6L15 8L13 8L13 9L16 9L16 12L15 12L15 13L13 13L13 12L14 12L14 11L11 11L11 9L8 9L8 10L7 10L7 11L8 11L8 10L10 10L10 11L9 11L9 12L10 12L10 11L11 11L11 12L12 12L12 13L13 13L13 15L12 15L12 14L10 14L10 17L6 17L6 16L7 16L7 15L8 15L8 16L9 16L9 14L8 14L8 13L6 13L6 14L7 14L7 15L6 15L6 16L5 16L5 17L4 17L4 18L7 18L7 19L6 19L6 20L9 20L9 19L8 19L8 18L10 18L10 19L12 19L12 20L11 20L11 21L14 21L14 22L13 22L13 23L12 23L12 24L10 24L10 23L9 23L9 24L10 24L10 25L9 25L9 26L10 26L10 27L11 27L11 25L12 25L12 27L13 27L13 28L11 28L11 29L12 29L12 30L13 30L13 31L14 31L14 32L13 32L13 33L16 33L16 37L18 37L18 36L17 36L17 35L18 35L18 34L19 34L19 37L22 37L22 35L24 35L24 37L25 37L25 35L27 35L27 36L28 36L28 39L29 39L29 40L27 40L27 41L28 41L28 42L27 42L27 44L28 44L28 43L34 43L34 44L31 44L31 45L32 45L32 47L33 47L33 48L36 48L36 47L34 47L34 46L33 46L33 45L34 45L34 44L37 44L37 43L36 43L36 42L37 42L37 41L38 41L38 44L39 44L39 41L38 41L38 40L42 40L42 39L40 39L40 37L38 37L38 38L39 38L39 39L37 39L37 41L36 41L36 42L35 42L35 40L36 40L36 38L37 38L37 37L35 37L35 36L37 36L37 34L39 34L39 32L40 32L40 35L42 35L42 36L43 36L43 37L41 37L41 38L43 38L43 40L45 40L45 41L46 41L46 42L45 42L45 43L46 43L46 44L45 44L45 45L46 45L46 44L48 44L48 42L47 42L47 41L48 41L48 40L47 40L47 39L48 39L48 38L46 38L46 40L45 40L45 39L44 39L44 38L45 38L45 37L46 37L46 36L47 36L47 37L48 37L48 34L47 34L47 33L48 33L48 30L47 30L47 29L46 29L46 28L48 28L48 26L47 26L47 25L48 25L48 22L47 22L47 21L48 21L48 20L47 20L47 21L46 21L46 20L41 20L41 21L40 21L40 19L39 19L39 21L38 21L38 20L37 20L37 19L36 19L36 17L34 17L34 14L33 14L33 12L31 12L31 13L32 13L32 14L30 14L30 11L31 11L31 10L30 10L30 9L32 9L32 11L33 11L33 10L34 10L34 11L36 11L36 10L35 10L35 8L34 8L34 5L35 5L35 7L36 7L36 4L35 4L35 3L30 3L30 2L29 2L29 1ZM27 2L27 3L29 3L29 2ZM30 4L30 5L29 5L29 6L28 6L28 8L29 8L29 9L30 9L30 8L33 8L33 9L34 9L34 8L33 8L33 5L32 5L32 4ZM17 5L17 8L18 8L18 5ZM19 5L19 7L20 7L20 5ZM23 5L23 8L26 8L26 5ZM30 5L30 6L29 6L29 8L30 8L30 6L31 6L31 7L32 7L32 5ZM24 6L24 7L25 7L25 6ZM37 6L37 7L38 7L38 6ZM41 8L41 9L42 9L42 10L40 10L40 11L42 11L42 12L46 12L46 13L47 13L47 14L48 14L48 17L49 17L49 14L48 14L48 12L46 12L46 11L47 11L47 10L48 10L48 11L49 11L49 10L48 10L48 8L47 8L47 10L46 10L46 8L45 8L45 11L44 11L44 8L43 8L43 9L42 9L42 8ZM1 9L1 10L3 10L3 9ZM17 10L17 11L18 11L18 10ZM19 10L19 11L20 11L20 10ZM26 10L26 12L27 12L27 11L28 11L28 10ZM29 10L29 11L30 11L30 10ZM42 10L42 11L43 11L43 10ZM17 12L17 13L18 13L18 14L19 14L19 15L17 15L17 16L16 16L16 15L15 15L15 16L16 16L16 17L13 17L13 18L15 18L15 21L16 21L16 22L15 22L15 23L13 23L13 24L12 24L12 25L13 25L13 27L14 27L14 28L13 28L13 29L15 29L15 30L14 30L14 31L15 31L15 32L16 32L16 33L17 33L17 34L18 34L18 33L19 33L19 34L20 34L20 33L21 33L21 35L22 35L22 34L25 34L25 33L26 33L26 34L28 34L28 33L26 33L26 32L34 32L34 33L35 33L35 35L36 35L36 33L38 33L38 32L36 32L36 33L35 33L35 32L34 32L34 31L35 31L35 30L36 30L36 31L37 31L37 30L38 30L38 31L39 31L39 30L38 30L38 29L40 29L40 31L41 31L41 33L45 33L45 34L44 34L44 35L45 35L45 36L46 36L46 33L47 33L47 32L46 32L46 31L45 31L45 30L44 30L44 28L42 28L42 27L45 27L45 28L46 28L46 27L45 27L45 26L46 26L46 25L47 25L47 24L46 24L46 21L45 21L45 22L44 22L44 21L42 21L42 22L40 22L40 21L39 21L39 22L38 22L38 21L37 21L37 20L36 20L36 21L37 21L37 22L36 22L36 23L35 23L35 22L34 22L34 19L35 19L35 18L34 18L34 17L33 17L33 19L30 19L30 18L31 18L31 17L30 17L30 18L29 18L29 17L27 17L27 16L33 16L33 14L32 14L32 15L30 15L30 14L29 14L29 15L27 15L27 14L28 14L28 13L27 13L27 14L25 14L25 16L24 16L24 13L25 13L25 12L24 12L24 13L23 13L23 12L21 12L21 16L20 16L20 17L19 17L19 15L20 15L20 14L19 14L19 13L20 13L20 12L19 12L19 13L18 13L18 12ZM38 12L38 13L41 13L41 12ZM15 13L15 14L16 14L16 13ZM22 13L22 17L20 17L20 19L19 19L19 21L21 21L21 23L22 23L22 21L21 21L21 20L25 20L25 22L27 22L27 21L26 21L26 20L28 20L28 21L29 21L29 22L28 22L28 23L29 23L29 24L27 24L27 25L33 25L33 26L32 26L32 27L34 27L34 28L31 28L31 29L32 29L32 30L30 30L30 27L31 27L31 26L27 26L27 28L24 28L24 29L23 29L23 31L22 31L22 30L21 30L21 29L22 29L22 28L23 28L23 27L20 27L20 26L22 26L22 24L21 24L21 25L20 25L20 24L19 24L19 25L18 25L18 23L20 23L20 22L17 22L17 25L16 25L16 23L15 23L15 24L13 24L13 25L16 25L16 28L15 28L15 29L16 29L16 30L15 30L15 31L16 31L16 32L17 32L17 33L18 33L18 32L17 32L17 30L18 30L18 29L19 29L19 30L20 30L20 31L19 31L19 32L21 32L21 31L22 31L22 33L23 33L23 31L24 31L24 29L26 29L26 31L25 31L25 32L24 32L24 33L25 33L25 32L26 32L26 31L27 31L27 28L28 28L28 29L29 29L29 30L28 30L28 31L29 31L29 30L30 30L30 31L34 31L34 30L35 30L35 28L37 28L37 27L36 27L36 25L35 25L35 23L34 23L34 22L32 22L32 21L33 21L33 20L28 20L28 19L29 19L29 18L28 18L28 19L26 19L26 18L27 18L27 17L26 17L26 18L25 18L25 17L24 17L24 16L23 16L23 13ZM42 13L42 14L41 14L41 15L42 15L42 14L43 14L43 13ZM44 13L44 14L45 14L45 13ZM3 15L3 16L4 16L4 15ZM11 15L11 16L12 16L12 15ZM26 15L26 16L27 16L27 15ZM35 15L35 16L36 16L36 15ZM43 16L43 18L42 18L42 19L45 19L45 18L44 18L44 17L46 17L46 16ZM10 17L10 18L11 18L11 17ZM16 17L16 21L18 21L18 20L17 20L17 19L18 19L18 18L17 18L17 17ZM22 17L22 19L23 19L23 17ZM24 18L24 19L25 19L25 18ZM13 19L13 20L14 20L14 19ZM20 19L20 20L21 20L21 19ZM23 21L23 22L24 22L24 21ZM30 21L30 22L29 22L29 23L30 23L30 24L33 24L33 25L34 25L34 23L32 23L32 22L31 22L31 21ZM30 22L30 23L31 23L31 22ZM37 22L37 26L39 26L39 23L40 23L40 22L39 22L39 23L38 23L38 22ZM2 23L2 24L4 24L4 23ZM5 23L5 26L8 26L8 23ZM23 23L23 26L26 26L26 23ZM41 23L41 26L44 26L44 23ZM6 24L6 25L7 25L7 24ZM24 24L24 25L25 25L25 24ZM42 24L42 25L43 25L43 24ZM45 24L45 25L46 25L46 24ZM17 25L17 27L18 27L18 25ZM19 25L19 26L20 26L20 25ZM4 27L4 28L7 28L7 27ZM19 27L19 29L20 29L20 27ZM28 27L28 28L29 28L29 27ZM38 27L38 28L39 28L39 27ZM17 28L17 29L18 29L18 28ZM41 28L41 31L42 31L42 32L45 32L45 33L46 33L46 32L45 32L45 31L44 31L44 30L43 30L43 31L42 31L42 28ZM33 29L33 30L34 30L34 29ZM36 29L36 30L37 30L37 29ZM1 30L1 31L2 31L2 30ZM6 31L6 32L8 32L8 31ZM10 32L10 33L11 33L11 32ZM29 33L29 34L32 34L32 33ZM1 34L1 35L2 35L2 34ZM42 34L42 35L43 35L43 34ZM28 35L28 36L29 36L29 35ZM30 35L30 38L29 38L29 39L30 39L30 40L29 40L29 42L31 42L31 40L33 40L33 41L32 41L32 42L34 42L34 43L35 43L35 42L34 42L34 39L35 39L35 38L34 38L34 37L33 37L33 38L34 38L34 39L32 39L32 37L31 37L31 36L34 36L34 35ZM0 37L0 38L1 38L1 40L0 40L0 41L3 41L3 40L4 40L4 39L2 39L2 37ZM12 37L12 38L11 38L11 39L12 39L12 41L10 41L10 43L11 43L11 42L12 42L12 41L16 41L16 39L14 39L14 38L13 38L13 37ZM26 37L26 39L25 39L25 40L26 40L26 39L27 39L27 37ZM43 37L43 38L44 38L44 37ZM17 38L17 41L18 41L18 40L19 40L19 39L20 39L20 38L19 38L19 39L18 39L18 38ZM30 38L30 39L31 39L31 38ZM46 40L46 41L47 41L47 40ZM23 41L23 44L26 44L26 41ZM41 41L41 44L44 44L44 41ZM24 42L24 43L25 43L25 42ZM42 42L42 43L43 43L43 42ZM13 43L13 44L14 44L14 43ZM10 45L10 48L12 48L12 47L11 47L11 46L12 46L12 45ZM30 46L30 47L31 47L31 46ZM25 47L25 48L27 48L27 47ZM20 48L20 49L21 49L21 48ZM0 0L0 7L7 7L7 0ZM1 1L1 6L6 6L6 1ZM2 2L2 5L5 5L5 2ZM42 0L42 7L49 7L49 0ZM43 1L43 6L48 6L48 1ZM44 2L44 5L47 5L47 2ZM0 42L0 49L7 49L7 42ZM1 43L1 48L6 48L6 43ZM2 44L2 47L5 47L5 44Z" fill="#000000"/></g></g></svg>
