<?xml version="1.0" encoding="UTF-8"?>
<svg xmlns="http://www.w3.org/2000/svg" version="1.1" width="100" height="100" viewBox="0 0 100 100"><rect x="0" y="0" width="100" height="100" fill="#ffffff"/><g transform="scale(2.041)"><g transform="translate(0,0)"><path fill-rule="evenodd" d="M9 0L9 1L8 1L8 2L9 2L9 3L8 3L8 4L9 4L9 5L8 5L8 7L9 7L9 8L6 8L6 9L7 9L7 10L4 10L4 9L5 9L5 8L0 8L0 10L1 10L1 12L0 12L0 14L1 14L1 12L2 12L2 9L3 9L3 11L5 11L5 12L3 12L3 13L2 13L2 14L3 14L3 13L5 13L5 15L3 15L3 17L2 17L2 15L0 15L0 18L1 18L1 17L2 17L2 23L0 23L0 24L2 24L2 25L3 25L3 26L0 26L0 30L2 30L2 29L1 29L1 27L2 27L2 28L3 28L3 32L2 32L2 31L0 31L0 35L1 35L1 36L0 36L0 37L2 37L2 38L1 38L1 40L0 40L0 41L3 41L3 40L4 40L4 39L2 39L2 38L5 38L5 39L7 39L7 40L6 40L6 41L8 41L8 43L9 43L9 42L12 42L12 45L11 45L11 44L8 44L8 49L9 49L9 46L10 46L10 49L11 49L11 48L12 48L12 47L11 47L11 46L12 46L12 45L13 45L13 48L15 48L15 49L22 49L22 48L20 48L20 47L21 47L21 46L22 46L22 45L25 45L25 46L24 46L24 47L25 47L25 46L26 46L26 45L28 45L28 44L29 44L29 46L31 46L31 47L30 47L30 48L29 48L29 47L28 47L28 46L27 46L27 47L28 47L28 48L23 48L23 49L28 49L28 48L29 48L29 49L30 49L30 48L33 48L33 49L34 49L34 47L35 47L35 48L36 48L36 49L37 49L37 48L38 48L38 49L40 49L40 46L45 46L45 48L46 48L46 49L49 49L49 47L48 47L48 48L46 48L46 45L49 45L49 44L46 44L46 43L45 43L45 42L46 42L46 41L47 41L47 40L46 40L46 39L47 39L47 38L48 38L48 40L49 40L49 38L48 38L48 37L47 37L47 36L49 36L49 34L47 34L47 36L46 36L46 33L47 33L47 32L46 32L46 31L45 31L45 32L43 32L43 33L42 33L42 35L41 35L41 34L40 34L40 32L39 32L39 34L37 34L37 32L38 32L38 31L39 31L39 30L40 30L40 31L41 31L41 32L42 32L42 31L43 31L43 29L45 29L45 28L46 28L46 29L47 29L47 30L48 30L48 33L49 33L49 30L48 30L48 29L49 29L49 26L48 26L48 27L47 27L47 28L46 28L46 27L45 27L45 26L46 26L46 25L47 25L47 24L46 24L46 22L48 22L48 25L49 25L49 22L48 22L48 21L49 21L49 14L48 14L48 13L49 13L49 9L48 9L48 8L47 8L47 9L48 9L48 10L46 10L46 8L45 8L45 11L42 11L42 10L43 10L43 9L44 9L44 8L43 8L43 9L42 9L42 8L40 8L40 7L41 7L41 6L40 6L40 7L39 7L39 5L38 5L38 3L35 3L35 2L34 2L34 1L33 1L33 0L32 0L32 1L33 1L33 2L32 2L32 3L31 3L31 2L30 2L30 1L31 1L31 0L30 0L30 1L29 1L29 2L27 2L27 1L28 1L28 0L27 0L27 1L25 1L25 0L23 0L23 1L22 1L22 0L21 0L21 1L20 1L20 2L21 2L21 3L22 3L22 4L21 4L21 6L20 6L20 5L19 5L19 4L20 4L20 3L19 3L19 4L18 4L18 3L17 3L17 4L18 4L18 7L19 7L19 6L20 6L20 7L21 7L21 6L22 6L22 9L25 9L25 10L23 10L23 12L22 12L22 11L21 11L21 12L22 12L22 13L19 13L19 10L18 10L18 9L21 9L21 8L18 8L18 9L17 9L17 8L16 8L16 7L17 7L17 6L16 6L16 7L15 7L15 5L16 5L16 4L15 4L15 3L16 3L16 1L13 1L13 2L12 2L12 0ZM17 0L17 2L18 2L18 0ZM37 0L37 1L36 1L36 2L37 2L37 1L38 1L38 2L39 2L39 4L40 4L40 3L41 3L41 0L40 0L40 1L38 1L38 0ZM9 1L9 2L11 2L11 3L12 3L12 4L11 4L11 7L10 7L10 6L9 6L9 7L10 7L10 8L9 8L9 9L8 9L8 10L7 10L7 11L6 11L6 12L8 12L8 11L9 11L9 14L8 14L8 13L6 13L6 14L8 14L8 16L7 16L7 15L5 15L5 16L7 16L7 17L5 17L5 18L4 18L4 17L3 17L3 18L4 18L4 19L3 19L3 21L4 21L4 19L5 19L5 20L7 20L7 21L6 21L6 22L9 22L9 26L11 26L11 25L10 25L10 24L11 24L11 23L12 23L12 24L13 24L13 22L15 22L15 23L16 23L16 24L14 24L14 25L12 25L12 26L13 26L13 27L12 27L12 28L10 28L10 27L3 27L3 28L4 28L4 29L5 29L5 31L4 31L4 32L3 32L3 34L2 34L2 37L3 37L3 36L5 36L5 38L7 38L7 39L9 39L9 41L10 41L10 40L12 40L12 41L13 41L13 43L14 43L14 44L13 44L13 45L14 45L14 46L16 46L16 45L18 45L18 44L16 44L16 43L18 43L18 42L19 42L19 41L20 41L20 42L21 42L21 43L20 43L20 44L21 44L21 45L19 45L19 47L20 47L20 46L21 46L21 45L22 45L22 44L21 44L21 43L22 43L22 42L21 42L21 41L20 41L20 40L21 40L21 39L22 39L22 40L24 40L24 39L22 39L22 38L21 38L21 37L23 37L23 38L24 38L24 37L25 37L25 36L26 36L26 38L25 38L25 39L27 39L27 40L28 40L28 41L29 41L29 42L27 42L27 43L29 43L29 44L30 44L30 43L31 43L31 42L32 42L32 43L33 43L33 44L31 44L31 46L32 46L32 47L33 47L33 46L36 46L36 48L37 48L37 47L38 47L38 46L40 46L40 45L38 45L38 44L39 44L39 43L38 43L38 42L39 42L39 41L37 41L37 43L36 43L36 40L41 40L41 39L42 39L42 40L43 40L43 39L44 39L44 40L45 40L45 41L46 41L46 40L45 40L45 37L46 37L46 38L47 38L47 37L46 37L46 36L45 36L45 35L44 35L44 34L45 34L45 33L46 33L46 32L45 32L45 33L43 33L43 35L42 35L42 36L41 36L41 35L39 35L39 36L41 36L41 37L38 37L38 38L41 38L41 39L36 39L36 38L37 38L37 37L34 37L34 36L37 36L37 35L36 35L36 32L37 32L37 31L38 31L38 30L39 30L39 29L38 29L38 30L37 30L37 29L36 29L36 30L35 30L35 28L37 28L37 27L34 27L34 26L35 26L35 25L36 25L36 24L37 24L37 26L39 26L39 27L38 27L38 28L41 28L41 27L40 27L40 26L39 26L39 23L40 23L40 22L42 22L42 21L44 21L44 22L45 22L45 21L46 21L46 20L47 20L47 21L48 21L48 19L47 19L47 17L48 17L48 14L44 14L44 13L46 13L46 12L47 12L47 13L48 13L48 11L46 11L46 12L42 12L42 11L36 11L36 8L37 8L37 7L38 7L38 9L37 9L37 10L39 10L39 9L40 9L40 10L42 10L42 9L40 9L40 8L39 8L39 7L38 7L38 6L37 6L37 7L36 7L36 4L35 4L35 3L32 3L32 5L30 5L30 4L29 4L29 3L28 3L28 5L30 5L30 6L29 6L29 8L28 8L28 6L27 6L27 8L28 8L28 9L29 9L29 10L27 10L27 9L26 9L26 10L25 10L25 11L24 11L24 12L23 12L23 13L22 13L22 16L21 16L21 17L19 17L19 18L18 18L18 19L17 19L17 17L15 17L15 16L16 16L16 15L15 15L15 16L14 16L14 17L12 17L12 15L11 15L11 14L13 14L13 13L14 13L14 14L16 14L16 13L18 13L18 12L16 12L16 10L17 10L17 11L18 11L18 10L17 10L17 9L16 9L16 10L14 10L14 9L15 9L15 7L14 7L14 6L13 6L13 7L14 7L14 9L13 9L13 10L12 10L12 9L11 9L11 7L12 7L12 4L13 4L13 5L15 5L15 4L13 4L13 3L14 3L14 2L13 2L13 3L12 3L12 2L11 2L11 1ZM21 1L21 2L22 2L22 3L23 3L23 4L24 4L24 3L25 3L25 2L24 2L24 1L23 1L23 2L22 2L22 1ZM23 2L23 3L24 3L24 2ZM9 3L9 4L10 4L10 3ZM26 3L26 4L27 4L27 3ZM23 5L23 8L26 8L26 5ZM34 5L34 7L33 7L33 6L32 6L32 7L31 7L31 6L30 6L30 8L29 8L29 9L30 9L30 10L29 10L29 11L28 11L28 12L24 12L24 14L23 14L23 16L22 16L22 17L23 17L23 16L24 16L24 18L23 18L23 20L21 20L21 21L23 21L23 20L24 20L24 21L26 21L26 20L24 20L24 19L28 19L28 20L27 20L27 21L28 21L28 22L21 22L21 24L19 24L19 23L20 23L20 22L19 22L19 21L20 21L20 19L21 19L21 18L20 18L20 19L19 19L19 21L18 21L18 20L17 20L17 21L18 21L18 24L16 24L16 25L21 25L21 26L22 26L22 27L20 27L20 28L21 28L21 29L19 29L19 26L18 26L18 27L17 27L17 26L15 26L15 25L14 25L14 26L15 26L15 27L16 27L16 28L15 28L15 29L16 29L16 30L14 30L14 29L13 29L13 30L12 30L12 29L10 29L10 28L8 28L8 30L6 30L6 31L9 31L9 32L6 32L6 33L8 33L8 34L10 34L10 35L8 35L8 36L9 36L9 37L7 37L7 36L6 36L6 37L7 37L7 38L9 38L9 37L10 37L10 38L11 38L11 39L12 39L12 40L13 40L13 41L14 41L14 42L15 42L15 41L19 41L19 40L18 40L18 39L19 39L19 37L18 37L18 36L17 36L17 37L18 37L18 38L17 38L17 40L16 40L16 39L14 39L14 38L13 38L13 37L15 37L15 38L16 38L16 37L15 37L15 33L21 33L21 34L22 34L22 33L24 33L24 34L23 34L23 35L21 35L21 36L23 36L23 37L24 37L24 35L26 35L26 36L27 36L27 37L28 37L28 36L29 36L29 38L28 38L28 40L29 40L29 41L30 41L30 42L29 42L29 43L30 43L30 42L31 42L31 40L33 40L33 41L32 41L32 42L34 42L34 43L35 43L35 42L34 42L34 39L35 39L35 40L36 40L36 39L35 39L35 38L34 38L34 37L32 37L32 38L31 38L31 36L34 36L34 35L35 35L35 34L34 34L34 33L33 33L33 34L34 34L34 35L30 35L30 34L31 34L31 32L36 32L36 31L37 31L37 30L36 30L36 31L35 31L35 30L34 30L34 29L33 29L33 30L34 30L34 31L30 31L30 30L31 30L31 28L34 28L34 27L30 27L30 26L31 26L31 24L33 24L33 22L34 22L34 23L35 23L35 24L36 24L36 23L37 23L37 22L38 22L38 23L39 23L39 22L40 22L40 21L41 21L41 20L46 20L46 17L45 17L45 19L42 19L42 18L43 18L43 16L45 16L45 15L42 15L42 14L43 14L43 13L42 13L42 14L41 14L41 15L42 15L42 18L41 18L41 19L40 19L40 17L41 17L41 16L40 16L40 17L39 17L39 18L37 18L37 16L38 16L38 15L40 15L40 14L38 14L38 15L37 15L37 16L36 16L36 14L34 14L34 12L35 12L35 13L37 13L37 12L36 12L36 11L32 11L32 10L33 10L33 9L35 9L35 8L36 8L36 7L35 7L35 5ZM24 6L24 7L25 7L25 6ZM34 7L34 8L35 8L35 7ZM31 8L31 10L30 10L30 11L29 11L29 12L28 12L28 14L27 14L27 13L25 13L25 14L27 14L27 15L24 15L24 16L25 16L25 18L28 18L28 19L29 19L29 18L30 18L30 20L31 20L31 21L32 21L32 22L30 22L30 21L29 21L29 20L28 20L28 21L29 21L29 22L28 22L28 23L29 23L29 24L27 24L27 25L29 25L29 26L27 26L27 27L29 27L29 26L30 26L30 23L32 23L32 22L33 22L33 20L31 20L31 19L34 19L34 22L35 22L35 23L36 23L36 22L37 22L37 21L38 21L38 22L39 22L39 21L40 21L40 20L39 20L39 21L38 21L38 20L37 20L37 18L36 18L36 16L35 16L35 15L34 15L34 14L33 14L33 12L32 12L32 11L31 11L31 10L32 10L32 9L33 9L33 8ZM9 9L9 10L11 10L11 9ZM26 10L26 11L27 11L27 10ZM10 11L10 13L12 13L12 12L11 12L11 11ZM13 11L13 12L14 12L14 11ZM15 12L15 13L16 13L16 12ZM30 12L30 14L31 14L31 15L27 15L27 16L26 16L26 17L27 17L27 16L29 16L29 17L30 17L30 18L31 18L31 17L30 17L30 16L33 16L33 18L34 18L34 19L35 19L35 18L34 18L34 17L35 17L35 16L34 16L34 15L32 15L32 14L31 14L31 13L32 13L32 12ZM38 12L38 13L41 13L41 12ZM9 14L9 15L10 15L10 14ZM19 14L19 15L20 15L20 14ZM17 15L17 16L18 16L18 15ZM8 16L8 17L7 17L7 18L6 18L6 19L8 19L8 17L10 17L10 19L9 19L9 20L8 20L8 21L9 21L9 22L11 22L11 21L9 21L9 20L11 20L11 19L12 19L12 17L11 17L11 16ZM14 17L14 18L13 18L13 19L14 19L14 20L12 20L12 21L15 21L15 22L16 22L16 21L15 21L15 19L16 19L16 18L15 18L15 17ZM0 19L0 20L1 20L1 19ZM36 20L36 21L37 21L37 20ZM29 22L29 23L30 23L30 22ZM3 23L3 24L4 24L4 23ZM5 23L5 26L8 26L8 23ZM23 23L23 26L26 26L26 23ZM41 23L41 26L44 26L44 23ZM6 24L6 25L7 25L7 24ZM24 24L24 25L25 25L25 24ZM42 24L42 25L43 25L43 24ZM45 24L45 25L46 25L46 24ZM33 25L33 26L34 26L34 25ZM13 27L13 28L14 28L14 27ZM42 27L42 28L45 28L45 27ZM6 28L6 29L7 29L7 28ZM16 28L16 29L18 29L18 28ZM22 28L22 29L26 29L26 31L25 31L25 30L24 30L24 31L25 31L25 32L24 32L24 33L26 33L26 35L27 35L27 36L28 36L28 35L29 35L29 36L30 36L30 35L29 35L29 34L30 34L30 33L29 33L29 32L27 32L27 33L26 33L26 31L29 31L29 30L30 30L30 28ZM47 28L47 29L48 29L48 28ZM9 29L9 31L10 31L10 32L9 32L9 33L10 33L10 34L11 34L11 35L10 35L10 36L14 36L14 35L13 35L13 34L14 34L14 33L15 33L15 32L16 32L16 31L15 31L15 32L14 32L14 31L13 31L13 32L14 32L14 33L13 33L13 34L12 34L12 31L11 31L11 30L10 30L10 29ZM27 29L27 30L28 30L28 29ZM40 29L40 30L41 30L41 31L42 31L42 30L41 30L41 29ZM17 30L17 31L18 31L18 30ZM19 30L19 31L20 31L20 30ZM21 30L21 31L22 31L22 32L21 32L21 33L22 33L22 32L23 32L23 31L22 31L22 30ZM4 32L4 34L5 34L5 35L7 35L7 34L5 34L5 32ZM27 33L27 35L28 35L28 34L29 34L29 33ZM17 34L17 35L18 35L18 34ZM19 34L19 36L20 36L20 34ZM42 36L42 37L41 37L41 38L42 38L42 39L43 39L43 38L42 38L42 37L45 37L45 36ZM11 37L11 38L12 38L12 37ZM20 38L20 39L21 39L21 38ZM29 38L29 40L30 40L30 39L31 39L31 38ZM32 38L32 39L34 39L34 38ZM14 40L14 41L15 41L15 40ZM23 41L23 44L26 44L26 41ZM41 41L41 44L44 44L44 41ZM24 42L24 43L25 43L25 42ZM42 42L42 43L43 43L43 42ZM47 42L47 43L49 43L49 42ZM37 43L37 44L33 44L33 45L32 45L32 46L33 46L33 45L37 45L37 44L38 44L38 43ZM15 44L15 45L16 45L16 44ZM45 44L45 45L46 45L46 44ZM17 46L17 47L18 47L18 46ZM15 47L15 48L16 48L16 47ZM42 47L42 48L41 48L41 49L42 49L42 48L43 48L43 47ZM0 0L0 7L7 7L7 0ZM1 1L1 6L6 6L6 1ZM2 2L2 5L5 5L5 2ZM42 0L42 7L49 7L49 0ZM43 1L43 6L48 6L48 1ZM44 2L44 5L47 5L47 2ZM0 42L0 49L7 49L7 42ZM1 43L1 48L6 48L6 43ZM2 44L2 47L5 47L5 44Z" fill="#000000"/></g></g></svg>
