<?xml version="1.0" encoding="UTF-8"?>
<svg xmlns="http://www.w3.org/2000/svg" version="1.1" width="100" height="100" viewBox="0 0 100 100"><rect x="0" y="0" width="100" height="100" fill="#ffffff"/><g transform="scale(2.222)"><g transform="translate(0,0)"><path fill-rule="evenodd" d="M9 0L9 1L8 1L8 2L11 2L11 3L10 3L10 5L13 5L13 6L12 6L12 7L11 7L11 6L10 6L10 7L9 7L9 5L8 5L8 7L9 7L9 8L6 8L6 9L8 9L8 10L5 10L5 12L6 12L6 13L5 13L5 14L6 14L6 15L2 15L2 16L1 16L1 17L0 17L0 18L1 18L1 19L2 19L2 18L1 18L1 17L3 17L3 16L6 16L6 17L8 17L8 16L9 16L9 15L10 15L10 14L11 14L11 15L12 15L12 16L10 16L10 17L9 17L9 18L8 18L8 19L7 19L7 18L5 18L5 17L4 17L4 18L3 18L3 21L0 21L0 22L2 22L2 23L3 23L3 24L1 24L1 23L0 23L0 25L1 25L1 27L3 27L3 28L2 28L2 29L3 29L3 28L4 28L4 29L5 29L5 28L6 28L6 29L7 29L7 28L6 28L6 27L8 27L8 28L9 28L9 29L8 29L8 30L10 30L10 31L11 31L11 32L10 32L10 33L9 33L9 31L7 31L7 30L3 30L3 32L4 32L4 33L3 33L3 34L4 34L4 35L1 35L1 36L0 36L0 37L1 37L1 36L3 36L3 37L5 37L5 34L4 34L4 33L7 33L7 34L6 34L6 35L8 35L8 36L6 36L6 37L8 37L8 39L11 39L11 40L12 40L12 41L11 41L11 42L10 42L10 40L8 40L8 45L9 45L9 43L11 43L11 44L12 44L12 45L14 45L14 44L13 44L13 43L11 43L11 42L15 42L15 44L16 44L16 45L17 45L17 44L16 44L16 43L17 43L17 42L16 42L16 41L19 41L19 42L18 42L18 43L20 43L20 44L18 44L18 45L20 45L20 44L21 44L21 43L20 43L20 41L21 41L21 42L22 42L22 44L24 44L24 45L25 45L25 44L24 44L24 42L22 42L22 41L25 41L25 42L26 42L26 43L28 43L28 44L27 44L27 45L28 45L28 44L29 44L29 45L31 45L31 44L35 44L35 45L40 45L40 44L37 44L37 42L38 42L38 43L40 43L40 42L41 42L41 41L42 41L42 43L41 43L41 45L44 45L44 44L43 44L43 42L44 42L44 43L45 43L45 42L44 42L44 41L45 41L45 39L44 39L44 38L45 38L45 35L44 35L44 38L43 38L43 37L42 37L42 40L41 40L41 36L40 36L40 34L39 34L39 35L35 35L35 34L34 34L34 33L35 33L35 32L36 32L36 34L37 34L37 32L39 32L39 33L40 33L40 29L41 29L41 28L43 28L43 26L45 26L45 25L44 25L44 24L45 24L45 23L44 23L44 22L45 22L45 21L44 21L44 22L43 22L43 21L42 21L42 24L41 24L41 20L43 20L43 19L41 19L41 20L37 20L37 19L40 19L40 18L45 18L45 15L42 15L42 16L41 16L41 14L40 14L40 12L41 12L41 13L42 13L42 14L43 14L43 13L42 13L42 12L43 12L43 10L45 10L45 9L44 9L44 8L43 8L43 9L42 9L42 8L41 8L41 9L42 9L42 11L40 11L40 10L37 10L37 9L38 9L38 8L37 8L37 6L36 6L36 8L35 8L35 9L36 9L36 12L35 12L35 13L36 13L36 16L35 16L35 17L36 17L36 20L34 20L34 19L35 19L35 18L33 18L33 17L34 17L34 16L33 16L33 15L32 15L32 14L31 14L31 13L30 13L30 12L33 12L33 11L30 11L30 12L29 12L29 13L27 13L27 14L24 14L24 13L26 13L26 12L27 12L27 10L26 10L26 12L23 12L23 16L22 16L22 15L21 15L21 14L22 14L22 12L20 12L20 13L19 13L19 12L18 12L18 10L17 10L17 11L16 11L16 9L19 9L19 11L21 11L21 9L22 9L22 11L23 11L23 10L24 10L24 11L25 11L25 10L24 10L24 9L25 9L25 6L26 6L26 7L27 7L27 8L26 8L26 9L27 9L27 8L29 8L29 6L30 6L30 8L31 8L31 9L30 9L30 10L31 10L31 9L32 9L32 10L34 10L34 11L35 11L35 10L34 10L34 9L32 9L32 8L34 8L34 7L35 7L35 6L34 6L34 7L33 7L33 6L32 6L32 8L31 8L31 6L30 6L30 5L31 5L31 3L33 3L33 4L34 4L34 5L37 5L37 3L36 3L36 1L37 1L37 0L36 0L36 1L35 1L35 4L34 4L34 0L29 0L29 1L33 1L33 2L28 2L28 3L27 3L27 5L25 5L25 4L26 4L26 2L27 2L27 1L26 1L26 0L25 0L25 1L22 1L22 0L21 0L21 1L20 1L20 0L19 0L19 1L18 1L18 2L17 2L17 3L15 3L15 4L14 4L14 2L15 2L15 1L16 1L16 0L12 0L12 1L10 1L10 0ZM12 1L12 3L11 3L11 4L12 4L12 3L13 3L13 1ZM19 1L19 2L18 2L18 3L19 3L19 4L15 4L15 5L14 5L14 4L13 4L13 5L14 5L14 6L13 6L13 9L12 9L12 8L11 8L11 7L10 7L10 8L9 8L9 11L6 11L6 12L7 12L7 13L6 13L6 14L7 14L7 13L8 13L8 12L9 12L9 13L11 13L11 11L12 11L12 10L13 10L13 9L16 9L16 8L20 8L20 5L19 5L19 4L20 4L20 3L21 3L21 4L22 4L22 3L23 3L23 4L24 4L24 3L25 3L25 2L26 2L26 1L25 1L25 2L22 2L22 3L21 3L21 2L20 2L20 1ZM8 3L8 4L9 4L9 3ZM28 3L28 4L29 4L29 5L28 5L28 6L27 6L27 7L28 7L28 6L29 6L29 5L30 5L30 3ZM17 5L17 6L16 6L16 7L15 7L15 6L14 6L14 8L16 8L16 7L17 7L17 6L18 6L18 7L19 7L19 5ZM21 5L21 8L24 8L24 5ZM22 6L22 7L23 7L23 6ZM0 8L0 9L5 9L5 8ZM36 8L36 9L37 9L37 8ZM39 8L39 9L40 9L40 8ZM28 9L28 10L29 10L29 9ZM3 10L3 11L4 11L4 10ZM10 10L10 11L11 11L11 10ZM14 10L14 13L13 13L13 12L12 12L12 13L13 13L13 14L12 14L12 15L15 15L15 16L12 16L12 18L11 18L11 17L10 17L10 19L9 19L9 21L11 21L11 22L9 22L9 25L10 25L10 26L8 26L8 25L4 25L4 24L3 24L3 26L4 26L4 27L6 27L6 26L8 26L8 27L10 27L10 26L11 26L11 28L10 28L10 29L13 29L13 30L12 30L12 33L11 33L11 34L12 34L12 33L15 33L15 35L16 35L16 36L12 36L12 35L9 35L9 36L10 36L10 38L11 38L11 37L13 37L13 39L12 39L12 40L13 40L13 41L16 41L16 40L19 40L19 41L20 41L20 39L18 39L18 38L19 38L19 37L20 37L20 36L21 36L21 35L20 35L20 34L19 34L19 33L23 33L23 34L22 34L22 36L23 36L23 35L25 35L25 34L24 34L24 31L25 31L25 32L26 32L26 34L28 34L28 35L26 35L26 36L25 36L25 38L27 38L27 37L26 37L26 36L28 36L28 38L30 38L30 39L29 39L29 40L28 40L28 39L25 39L25 41L26 41L26 42L27 42L27 41L26 41L26 40L28 40L28 43L29 43L29 42L30 42L30 43L31 43L31 42L30 42L30 40L32 40L32 41L33 41L33 42L32 42L32 43L33 43L33 42L35 42L35 44L36 44L36 42L37 42L37 41L36 41L36 40L35 40L35 41L33 41L33 40L34 40L34 38L35 38L35 37L36 37L36 36L35 36L35 35L34 35L34 36L31 36L31 38L30 38L30 35L31 35L31 34L30 34L30 35L29 35L29 32L31 32L31 30L32 30L32 31L34 31L34 32L35 32L35 31L39 31L39 30L38 30L38 29L40 29L40 28L37 28L37 30L35 30L35 29L36 29L36 28L35 28L35 27L41 27L41 26L43 26L43 24L42 24L42 25L39 25L39 26L38 26L38 25L37 25L37 26L36 26L36 22L35 22L35 21L34 21L34 20L31 20L31 18L32 18L32 17L33 17L33 16L32 16L32 15L31 15L31 14L30 14L30 13L29 13L29 14L28 14L28 15L27 15L27 17L26 17L26 16L23 16L23 17L22 17L22 16L21 16L21 15L20 15L20 14L21 14L21 13L20 13L20 14L19 14L19 13L15 13L15 10ZM38 11L38 13L37 13L37 12L36 12L36 13L37 13L37 14L39 14L39 12L40 12L40 11ZM0 12L0 15L1 15L1 13L2 13L2 14L3 14L3 13L4 13L4 12L3 12L3 13L2 13L2 12ZM14 13L14 14L15 14L15 13ZM33 13L33 14L34 14L34 15L35 15L35 14L34 14L34 13ZM44 13L44 14L45 14L45 13ZM8 14L8 15L9 15L9 14ZM16 14L16 15L17 15L17 16L16 16L16 17L13 17L13 19L11 19L11 20L12 20L12 21L13 21L13 22L12 22L12 23L13 23L13 22L15 22L15 21L17 21L17 23L19 23L19 22L20 22L20 25L19 25L19 24L16 24L16 23L15 23L15 24L16 24L16 25L13 25L13 24L12 24L12 27L14 27L14 26L15 26L15 27L16 27L16 25L19 25L19 26L18 26L18 29L17 29L17 28L15 28L15 29L14 29L14 28L13 28L13 29L14 29L14 30L13 30L13 31L14 31L14 30L15 30L15 33L17 33L17 34L18 34L18 35L19 35L19 34L18 34L18 33L19 33L19 32L18 32L18 33L17 33L17 32L16 32L16 30L15 30L15 29L17 29L17 30L18 30L18 31L19 31L19 30L20 30L20 31L21 31L21 30L20 30L20 29L22 29L22 30L23 30L23 31L22 31L22 32L23 32L23 31L24 31L24 30L25 30L25 31L28 31L28 32L27 32L27 33L28 33L28 32L29 32L29 31L30 31L30 30L31 30L31 28L33 28L33 29L32 29L32 30L34 30L34 31L35 31L35 30L34 30L34 27L35 27L35 26L34 26L34 27L32 27L32 26L33 26L33 25L35 25L35 24L34 24L34 23L35 23L35 22L34 22L34 21L33 21L33 22L34 22L34 23L32 23L32 21L30 21L30 22L29 22L29 21L27 21L27 22L25 22L25 18L26 18L26 19L27 19L27 20L28 20L28 18L29 18L29 20L30 20L30 18L31 18L31 17L32 17L32 16L31 16L31 17L27 17L27 18L26 18L26 17L25 17L25 18L24 18L24 17L23 17L23 18L24 18L24 20L19 20L19 19L22 19L22 17L19 17L19 14L18 14L18 15L17 15L17 14ZM6 15L6 16L7 16L7 15ZM28 15L28 16L30 16L30 15ZM37 15L37 16L36 16L36 17L37 17L37 18L39 18L39 17L38 17L38 16L40 16L40 17L41 17L41 16L40 16L40 15ZM42 16L42 17L43 17L43 16ZM16 17L16 18L15 18L15 20L14 20L14 19L13 19L13 20L14 20L14 21L15 21L15 20L17 20L17 21L18 21L18 22L19 22L19 21L18 21L18 20L17 20L17 19L16 19L16 18L18 18L18 19L19 19L19 17ZM4 18L4 20L5 20L5 18ZM6 19L6 20L7 20L7 19ZM5 21L5 24L8 24L8 21ZM21 21L21 24L24 24L24 21ZM37 21L37 24L40 24L40 21ZM6 22L6 23L7 23L7 22ZM22 22L22 23L23 23L23 22ZM28 22L28 23L25 23L25 24L28 24L28 25L30 25L30 23L31 23L31 26L28 26L28 27L26 27L26 26L27 26L27 25L26 25L26 26L24 26L24 25L23 25L23 26L21 26L21 27L20 27L20 26L19 26L19 28L22 28L22 29L23 29L23 28L22 28L22 27L25 27L25 30L27 30L27 28L28 28L28 31L29 31L29 30L30 30L30 27L31 27L31 26L32 26L32 25L33 25L33 24L32 24L32 23L31 23L31 22L30 22L30 23L29 23L29 22ZM38 22L38 23L39 23L39 22ZM28 23L28 24L29 24L29 23ZM10 24L10 25L11 25L11 24ZM28 27L28 28L29 28L29 27ZM18 29L18 30L19 30L19 29ZM42 29L42 30L41 30L41 31L42 31L42 32L41 32L41 33L42 33L42 34L41 34L41 35L42 35L42 36L43 36L43 34L45 34L45 31L44 31L44 30L45 30L45 29L44 29L44 30L43 30L43 29ZM0 31L0 34L1 34L1 33L2 33L2 31ZM4 31L4 32L5 32L5 31ZM6 31L6 32L7 32L7 33L8 33L8 34L9 34L9 33L8 33L8 32L7 32L7 31ZM43 31L43 32L42 32L42 33L43 33L43 32L44 32L44 31ZM32 32L32 33L33 33L33 32ZM28 35L28 36L29 36L29 35ZM18 36L18 37L17 37L17 38L18 38L18 37L19 37L19 36ZM34 36L34 37L33 37L33 38L32 38L32 40L33 40L33 38L34 38L34 37L35 37L35 36ZM14 37L14 38L15 38L15 39L13 39L13 40L15 40L15 39L16 39L16 38L15 38L15 37ZM21 37L21 40L24 40L24 37ZM37 37L37 40L40 40L40 37ZM22 38L22 39L23 39L23 38ZM38 38L38 39L39 39L39 38ZM42 40L42 41L43 41L43 40ZM35 41L35 42L36 42L36 41ZM38 41L38 42L40 42L40 41ZM0 0L0 7L7 7L7 0ZM1 1L1 6L6 6L6 1ZM2 2L2 5L5 5L5 2ZM38 0L38 7L45 7L45 0ZM39 1L39 6L44 6L44 1ZM40 2L40 5L43 5L43 2ZM0 38L0 45L7 45L7 38ZM1 39L1 44L6 44L6 39ZM2 40L2 43L5 43L5 40Z" fill="#000000"/></g></g></svg>
