<?xml version="1.0" encoding="UTF-8"?>
<svg xmlns="http://www.w3.org/2000/svg" version="1.1" width="100" height="100" viewBox="0 0 100 100"><rect x="0" y="0" width="100" height="100" fill="#ffffff"/><g transform="scale(2.041)"><g transform="translate(0,0)"><path fill-rule="evenodd" d="M10 0L10 1L11 1L11 2L10 2L10 3L8 3L8 4L9 4L9 5L8 5L8 7L9 7L9 8L6 8L6 9L5 9L5 8L0 8L0 10L1 10L1 11L2 11L2 12L0 12L0 13L1 13L1 14L2 14L2 19L1 19L1 20L0 20L0 21L1 21L1 22L2 22L2 20L4 20L4 19L5 19L5 18L6 18L6 19L8 19L8 21L7 21L7 20L5 20L5 21L7 21L7 22L4 22L4 23L0 23L0 25L4 25L4 26L2 26L2 29L1 29L1 28L0 28L0 32L4 32L4 34L3 34L3 33L2 33L2 34L3 34L3 35L2 35L2 36L0 36L0 37L1 37L1 40L0 40L0 41L3 41L3 40L4 40L4 39L2 39L2 38L5 38L5 39L7 39L7 40L6 40L6 41L8 41L8 43L9 43L9 44L8 44L8 49L12 49L12 47L10 47L10 45L11 45L11 46L12 46L12 45L13 45L13 47L14 47L14 45L13 45L13 44L14 44L14 43L13 43L13 42L15 42L15 45L16 45L16 46L15 46L15 47L16 47L16 49L17 49L17 46L18 46L18 49L21 49L21 48L22 48L22 46L21 46L21 45L25 45L25 46L23 46L23 47L24 47L24 48L23 48L23 49L28 49L28 48L29 48L29 49L31 49L31 48L33 48L33 49L34 49L34 47L35 47L35 49L37 49L37 47L36 47L36 46L34 46L34 45L33 45L33 46L34 46L34 47L32 47L32 46L31 46L31 44L34 44L34 43L35 43L35 42L34 42L34 41L37 41L37 42L36 42L36 43L37 43L37 44L35 44L35 45L37 45L37 44L38 44L38 45L39 45L39 46L38 46L38 47L39 47L39 46L40 46L40 45L42 45L42 46L41 46L41 47L40 47L40 49L42 49L42 48L43 48L43 46L45 46L45 47L47 47L47 46L49 46L49 42L48 42L48 40L47 40L47 42L48 42L48 44L46 44L46 43L45 43L45 42L46 42L46 40L43 40L43 38L42 38L42 35L43 35L43 34L42 34L42 35L40 35L40 32L37 32L37 30L38 30L38 31L42 31L42 32L41 32L41 33L45 33L45 34L44 34L44 35L45 35L45 36L43 36L43 37L45 37L45 38L44 38L44 39L47 39L47 38L48 38L48 39L49 39L49 38L48 38L48 37L49 37L49 34L48 34L48 37L47 37L47 36L46 36L46 33L47 33L47 32L46 32L46 29L47 29L47 30L48 30L48 33L49 33L49 30L48 30L48 28L46 28L46 27L45 27L45 26L46 26L46 25L47 25L47 26L48 26L48 27L49 27L49 26L48 26L48 25L49 25L49 22L48 22L48 21L49 21L49 18L48 18L48 17L49 17L49 14L48 14L48 13L49 13L49 10L48 10L48 8L47 8L47 10L46 10L46 8L45 8L45 11L42 11L42 10L43 10L43 9L44 9L44 8L43 8L43 9L42 9L42 8L40 8L40 7L41 7L41 6L40 6L40 7L39 7L39 5L38 5L38 3L35 3L35 2L32 2L32 1L33 1L33 0L32 0L32 1L31 1L31 0L28 0L28 1L25 1L25 2L24 2L24 0L23 0L23 1L21 1L21 2L20 2L20 0L17 0L17 2L18 2L18 1L19 1L19 2L20 2L20 3L19 3L19 4L18 4L18 3L17 3L17 4L18 4L18 5L19 5L19 6L18 6L18 9L17 9L17 8L16 8L16 7L17 7L17 6L16 6L16 7L15 7L15 6L14 6L14 7L13 7L13 4L15 4L15 5L16 5L16 4L15 4L15 3L16 3L16 0L13 0L13 2L12 2L12 1L11 1L11 0ZM35 0L35 1L36 1L36 2L37 2L37 1L38 1L38 2L39 2L39 4L40 4L40 3L41 3L41 0L40 0L40 1L38 1L38 0L37 0L37 1L36 1L36 0ZM8 1L8 2L9 2L9 1ZM28 1L28 2L29 2L29 3L27 3L27 2L25 2L25 3L24 3L24 2L22 2L22 3L20 3L20 4L19 4L19 5L20 5L20 6L19 6L19 9L18 9L18 10L17 10L17 9L16 9L16 8L13 8L13 7L12 7L12 6L11 6L11 4L13 4L13 3L14 3L14 2L13 2L13 3L11 3L11 4L10 4L10 6L9 6L9 7L10 7L10 6L11 6L11 7L12 7L12 8L10 8L10 9L9 9L9 10L11 10L11 12L12 12L12 13L14 13L14 14L12 14L12 15L14 15L14 16L13 16L13 17L11 17L11 14L9 14L9 13L8 13L8 14L7 14L7 13L6 13L6 12L8 12L8 11L6 11L6 10L7 10L7 9L6 9L6 10L2 10L2 9L1 9L1 10L2 10L2 11L5 11L5 13L4 13L4 14L5 14L5 13L6 13L6 14L7 14L7 15L5 15L5 16L3 16L3 17L4 17L4 18L3 18L3 19L4 19L4 18L5 18L5 16L8 16L8 17L6 17L6 18L8 18L8 19L11 19L11 18L12 18L12 21L11 21L11 22L10 22L10 20L9 20L9 21L8 21L8 22L9 22L9 23L11 23L11 22L12 22L12 23L13 23L13 24L12 24L12 26L11 26L11 27L10 27L10 28L11 28L11 27L14 27L14 28L12 28L12 29L8 29L8 28L9 28L9 27L8 27L8 28L7 28L7 27L5 27L5 28L4 28L4 29L2 29L2 30L1 30L1 31L2 31L2 30L3 30L3 31L4 31L4 32L5 32L5 33L6 33L6 34L7 34L7 35L4 35L4 36L3 36L3 37L4 37L4 36L5 36L5 37L6 37L6 38L8 38L8 36L9 36L9 37L10 37L10 39L11 39L11 40L9 40L9 39L8 39L8 41L9 41L9 42L10 42L10 43L11 43L11 45L12 45L12 41L16 41L16 45L18 45L18 44L17 44L17 43L18 43L18 42L19 42L19 43L20 43L20 44L19 44L19 45L21 45L21 43L22 43L22 42L21 42L21 41L20 41L20 40L21 40L21 39L22 39L22 40L23 40L23 39L25 39L25 38L26 38L26 39L27 39L27 38L26 38L26 37L25 37L25 38L24 38L24 36L25 36L25 35L27 35L27 36L28 36L28 37L29 37L29 38L28 38L28 39L29 39L29 40L27 40L27 41L28 41L28 42L30 42L30 43L29 43L29 44L28 44L28 43L27 43L27 44L28 44L28 45L29 45L29 46L28 46L28 47L27 47L27 45L26 45L26 47L25 47L25 48L28 48L28 47L29 47L29 48L31 48L31 46L30 46L30 43L31 43L31 42L30 42L30 40L31 40L31 41L32 41L32 43L34 43L34 42L33 42L33 41L34 41L34 40L36 40L36 38L37 38L37 37L35 37L35 36L37 36L37 35L39 35L39 33L38 33L38 34L37 34L37 35L36 35L36 34L35 34L35 32L36 32L36 30L37 30L37 29L36 29L36 30L35 30L35 28L37 28L37 25L38 25L38 28L39 28L39 23L40 23L40 22L42 22L42 21L44 21L44 22L45 22L45 21L46 21L46 20L47 20L47 21L48 21L48 20L47 20L47 19L48 19L48 18L47 18L47 17L48 17L48 14L47 14L47 13L48 13L48 10L47 10L47 11L46 11L46 12L42 12L42 11L36 11L36 9L35 9L35 7L36 7L36 4L35 4L35 3L31 3L31 1ZM23 3L23 4L21 4L21 6L20 6L20 7L21 7L21 8L22 8L22 11L24 11L24 10L23 10L23 9L25 9L25 10L26 10L26 11L27 11L27 12L29 12L29 13L30 13L30 14L29 14L29 15L28 15L28 14L25 14L25 12L21 12L21 13L19 13L19 10L20 10L20 9L19 9L19 10L18 10L18 11L17 11L17 10L16 10L16 9L11 9L11 10L12 10L12 12L14 12L14 11L13 11L13 10L16 10L16 11L15 11L15 13L16 13L16 14L14 14L14 15L16 15L16 17L13 17L13 19L14 19L14 20L13 20L13 21L12 21L12 22L13 22L13 21L15 21L15 22L14 22L14 23L15 23L15 24L16 24L16 25L13 25L13 26L15 26L15 29L16 29L16 30L15 30L15 31L14 31L14 29L13 29L13 30L12 30L12 31L10 31L10 33L12 33L12 34L13 34L13 35L14 35L14 36L11 36L11 35L9 35L9 34L8 34L8 35L7 35L7 36L6 36L6 37L7 37L7 36L8 36L8 35L9 35L9 36L10 36L10 37L12 37L12 38L11 38L11 39L12 39L12 40L11 40L11 41L10 41L10 42L11 42L11 41L12 41L12 40L14 40L14 38L13 38L13 37L15 37L15 38L16 38L16 37L15 37L15 36L16 36L16 33L17 33L17 35L18 35L18 33L19 33L19 35L20 35L20 36L19 36L19 37L18 37L18 36L17 36L17 37L18 37L18 38L17 38L17 39L18 39L18 41L17 41L17 40L16 40L16 39L15 39L15 40L16 40L16 41L17 41L17 42L18 42L18 41L19 41L19 42L20 42L20 43L21 43L21 42L20 42L20 41L19 41L19 39L20 39L20 38L19 38L19 37L20 37L20 36L21 36L21 35L23 35L23 36L22 36L22 37L21 37L21 38L23 38L23 36L24 36L24 34L26 34L26 33L24 33L24 34L21 34L21 35L20 35L20 33L21 33L21 30L22 30L22 31L23 31L23 32L22 32L22 33L23 33L23 32L24 32L24 31L23 31L23 30L24 30L24 29L25 29L25 31L26 31L26 32L27 32L27 33L28 33L28 32L30 32L30 34L29 34L29 35L28 35L28 34L27 34L27 35L28 35L28 36L29 36L29 37L30 37L30 38L29 38L29 39L30 39L30 38L31 38L31 40L33 40L33 39L32 39L32 38L31 38L31 37L30 37L30 36L34 36L34 35L35 35L35 34L34 34L34 33L33 33L33 34L34 34L34 35L30 35L30 34L32 34L32 33L31 33L31 32L34 32L34 31L35 31L35 30L34 30L34 29L33 29L33 30L34 30L34 31L30 31L30 30L31 30L31 28L34 28L34 27L36 27L36 26L34 26L34 25L37 25L37 22L38 22L38 23L39 23L39 22L40 22L40 21L41 21L41 20L46 20L46 17L47 17L47 16L46 16L46 15L42 15L42 14L43 14L43 13L42 13L42 14L41 14L41 16L40 16L40 17L39 17L39 18L37 18L37 17L38 17L38 16L36 16L36 17L35 17L35 16L33 16L33 14L34 14L34 15L36 15L36 14L34 14L34 12L35 12L35 13L37 13L37 12L36 12L36 11L35 11L35 10L34 10L34 7L35 7L35 5L34 5L34 7L33 7L33 5L32 5L32 4L31 4L31 3L30 3L30 5L29 5L29 4L28 4L28 5L29 5L29 6L28 6L28 8L27 8L27 4L26 4L26 3L25 3L25 4L24 4L24 3ZM23 5L23 8L26 8L26 5ZM30 5L30 6L29 6L29 8L28 8L28 9L29 9L29 10L27 10L27 9L26 9L26 10L27 10L27 11L29 11L29 12L31 12L31 14L30 14L30 15L32 15L32 14L33 14L33 12L31 12L31 11L34 11L34 10L32 10L32 9L33 9L33 8L32 8L32 5ZM21 6L21 7L22 7L22 6ZM24 6L24 7L25 7L25 6ZM30 6L30 8L29 8L29 9L30 9L30 10L29 10L29 11L30 11L30 10L31 10L31 9L32 9L32 8L31 8L31 6ZM37 6L37 10L39 10L39 9L40 9L40 10L42 10L42 9L40 9L40 8L39 8L39 7L38 7L38 6ZM9 11L9 12L10 12L10 11ZM16 11L16 13L18 13L18 12L17 12L17 11ZM2 12L2 13L3 13L3 12ZM38 12L38 13L41 13L41 12ZM46 12L46 13L47 13L47 12ZM21 13L21 14L22 14L22 13ZM44 13L44 14L45 14L45 13ZM19 14L19 15L20 15L20 14ZM24 14L24 15L25 15L25 14ZM38 14L38 15L40 15L40 14ZM0 15L0 18L1 18L1 15ZM8 15L8 16L9 16L9 17L8 17L8 18L9 18L9 17L10 17L10 18L11 18L11 17L10 17L10 16L9 16L9 15ZM21 15L21 16L20 16L20 18L19 18L19 17L18 17L18 16L17 16L17 17L16 17L16 18L15 18L15 21L16 21L16 22L15 22L15 23L16 23L16 24L17 24L17 25L16 25L16 29L18 29L18 28L17 28L17 27L18 27L18 26L20 26L20 27L19 27L19 29L22 29L22 28L21 28L21 25L20 25L20 24L22 24L22 23L21 23L21 20L24 20L24 18L23 18L23 19L21 19L21 18L22 18L22 17L24 17L24 16L22 16L22 15ZM27 15L27 16L26 16L26 18L25 18L25 19L26 19L26 20L25 20L25 21L26 21L26 22L27 22L27 21L28 21L28 23L27 23L27 24L28 24L28 25L27 25L27 27L25 27L25 28L26 28L26 31L27 31L27 32L28 32L28 31L29 31L29 30L30 30L30 29L29 29L29 28L31 28L31 27L34 27L34 26L28 26L28 25L30 25L30 24L28 24L28 23L29 23L29 22L30 22L30 23L34 23L34 24L36 24L36 22L37 22L37 21L38 21L38 22L39 22L39 21L40 21L40 18L41 18L41 19L42 19L42 18L41 18L41 17L44 17L44 18L43 18L43 19L44 19L44 18L45 18L45 17L46 17L46 16L41 16L41 17L40 17L40 18L39 18L39 21L38 21L38 20L37 20L37 19L36 19L36 18L35 18L35 17L34 17L34 18L32 18L32 17L33 17L33 16L31 16L31 18L30 18L30 16L28 16L28 15ZM21 16L21 17L22 17L22 16ZM27 16L27 18L26 18L26 19L27 19L27 20L29 20L29 19L30 19L30 18L28 18L28 16ZM17 17L17 19L18 19L18 17ZM31 18L31 20L30 20L30 22L31 22L31 20L33 20L33 22L34 22L34 23L35 23L35 22L34 22L34 19L35 19L35 18L34 18L34 19L32 19L32 18ZM17 20L17 21L18 21L18 23L20 23L20 22L19 22L19 21L20 21L20 20L19 20L19 21L18 21L18 20ZM36 20L36 21L37 21L37 20ZM22 21L22 22L24 22L24 21ZM46 22L46 24L45 24L45 25L46 25L46 24L47 24L47 25L48 25L48 22ZM5 23L5 26L8 26L8 23ZM23 23L23 26L26 26L26 23ZM41 23L41 26L44 26L44 23ZM6 24L6 25L7 25L7 24ZM18 24L18 25L17 25L17 26L18 26L18 25L19 25L19 24ZM24 24L24 25L25 25L25 24ZM31 24L31 25L33 25L33 24ZM42 24L42 25L43 25L43 24ZM9 25L9 26L10 26L10 25ZM0 26L0 27L1 27L1 26ZM23 27L23 29L24 29L24 27ZM42 27L42 29L43 29L43 30L44 30L44 32L45 32L45 33L46 33L46 32L45 32L45 29L46 29L46 28L45 28L45 27ZM5 28L5 29L7 29L7 30L6 30L6 31L5 31L5 30L4 30L4 31L5 31L5 32L6 32L6 33L9 33L9 30L8 30L8 29L7 29L7 28ZM43 28L43 29L45 29L45 28ZM27 29L27 30L28 30L28 29ZM38 29L38 30L40 30L40 29ZM7 30L7 31L6 31L6 32L8 32L8 30ZM17 30L17 33L18 33L18 30ZM19 30L19 31L20 31L20 30ZM12 31L12 33L16 33L16 31L15 31L15 32L14 32L14 31ZM19 32L19 33L20 33L20 32ZM0 33L0 34L1 34L1 33ZM40 36L40 37L38 37L38 38L39 38L39 39L38 39L38 44L39 44L39 40L42 40L42 39L40 39L40 37L41 37L41 36ZM45 36L45 37L46 37L46 38L47 38L47 37L46 37L46 36ZM33 37L33 38L34 38L34 39L35 39L35 38L34 38L34 37ZM23 41L23 44L26 44L26 41ZM41 41L41 44L44 44L44 41ZM24 42L24 43L25 43L25 42ZM42 42L42 43L43 43L43 42ZM9 44L9 45L10 45L10 44ZM45 44L45 45L46 45L46 46L47 46L47 45L46 45L46 44ZM19 46L19 47L20 47L20 46ZM29 46L29 47L30 47L30 46ZM41 47L41 48L42 48L42 47ZM48 47L48 48L47 48L47 49L49 49L49 47ZM38 48L38 49L39 49L39 48ZM0 0L0 7L7 7L7 0ZM1 1L1 6L6 6L6 1ZM2 2L2 5L5 5L5 2ZM42 0L42 7L49 7L49 0ZM43 1L43 6L48 6L48 1ZM44 2L44 5L47 5L47 2ZM0 42L0 49L7 49L7 42ZM1 43L1 48L6 48L6 43ZM2 44L2 47L5 47L5 44Z" fill="#000000"/></g></g></svg>
