<?xml version="1.0" encoding="UTF-8"?>
<svg xmlns="http://www.w3.org/2000/svg" version="1.1" width="100" height="100" viewBox="0 0 100 100"><rect x="0" y="0" width="100" height="100" fill="#ffffff"/><g transform="scale(2.041)"><g transform="translate(0,0)"><path fill-rule="evenodd" d="M12 0L12 1L8 1L8 2L9 2L9 3L8 3L8 4L9 4L9 5L8 5L8 7L9 7L9 5L10 5L10 9L11 9L11 10L10 10L10 11L11 11L11 12L10 12L10 13L9 13L9 16L8 16L8 14L6 14L6 13L7 13L7 12L8 12L8 11L7 11L7 10L9 10L9 8L6 8L6 9L7 9L7 10L3 10L3 9L5 9L5 8L0 8L0 9L1 9L1 10L3 10L3 11L1 11L1 12L0 12L0 14L3 14L3 13L5 13L5 16L4 16L4 15L2 15L2 16L1 16L1 15L0 15L0 16L1 16L1 18L0 18L0 19L2 19L2 20L3 20L3 21L1 21L1 22L2 22L2 23L3 23L3 24L2 24L2 25L1 25L1 23L0 23L0 25L1 25L1 26L0 26L0 32L1 32L1 33L0 33L0 37L1 37L1 40L0 40L0 41L3 41L3 40L4 40L4 39L2 39L2 38L3 38L3 36L4 36L4 37L5 37L5 39L7 39L7 40L6 40L6 41L8 41L8 43L9 43L9 44L8 44L8 49L12 49L12 47L11 47L11 48L10 48L10 47L9 47L9 46L10 46L10 45L11 45L11 46L12 46L12 45L13 45L13 46L14 46L14 47L16 47L16 49L17 49L17 46L18 46L18 47L19 47L19 48L18 48L18 49L19 49L19 48L20 48L20 49L21 49L21 48L23 48L23 49L24 49L24 48L25 48L25 49L27 49L27 48L29 48L29 49L31 49L31 48L33 48L33 49L34 49L34 47L35 47L35 49L37 49L37 47L36 47L36 46L34 46L34 44L33 44L33 43L32 43L32 42L33 42L33 41L32 41L32 42L31 42L31 41L29 41L29 42L31 42L31 43L27 43L27 40L34 40L34 41L35 41L35 42L36 42L36 43L37 43L37 44L35 44L35 45L37 45L37 44L38 44L38 45L39 45L39 46L38 46L38 47L39 47L39 48L38 48L38 49L39 49L39 48L41 48L41 49L42 49L42 48L43 48L43 46L45 46L45 48L46 48L46 49L49 49L49 47L48 47L48 48L46 48L46 46L47 46L47 45L49 45L49 42L48 42L48 41L49 41L49 38L48 38L48 37L49 37L49 34L48 34L48 33L49 33L49 30L48 30L48 29L49 29L49 26L48 26L48 25L49 25L49 22L48 22L48 21L49 21L49 18L48 18L48 17L49 17L49 14L48 14L48 13L49 13L49 12L48 12L48 11L49 11L49 10L48 10L48 11L47 11L47 10L46 10L46 8L45 8L45 9L44 9L44 8L43 8L43 9L42 9L42 8L41 8L41 9L42 9L42 10L39 10L39 11L40 11L40 12L38 12L38 13L41 13L41 11L42 11L42 12L46 12L46 14L45 14L45 13L44 13L44 14L45 14L45 16L46 16L46 17L44 17L44 15L42 15L42 14L43 14L43 13L42 13L42 14L41 14L41 17L42 17L42 18L40 18L40 21L39 21L39 18L37 18L37 17L40 17L40 16L39 16L39 15L40 15L40 14L38 14L38 15L36 15L36 14L34 14L34 12L35 12L35 13L37 13L37 12L36 12L36 11L37 11L37 10L38 10L38 9L40 9L40 7L41 7L41 6L40 6L40 7L39 7L39 5L38 5L38 3L35 3L35 2L32 2L32 0L30 0L30 1L29 1L29 0L27 0L27 1L26 1L26 0L25 0L25 1L26 1L26 2L27 2L27 1L29 1L29 2L30 2L30 3L35 3L35 4L36 4L36 8L35 8L35 9L36 9L36 11L34 11L34 10L33 10L33 11L30 11L30 10L31 10L31 8L33 8L33 5L32 5L32 4L30 4L30 5L29 5L29 6L28 6L28 7L27 7L27 5L28 5L28 4L25 4L25 3L24 3L24 0L23 0L23 1L22 1L22 0L21 0L21 3L24 3L24 4L21 4L21 5L22 5L22 7L21 7L21 6L20 6L20 5L19 5L19 4L20 4L20 3L19 3L19 4L18 4L18 3L17 3L17 4L18 4L18 8L16 8L16 7L17 7L17 6L16 6L16 7L15 7L15 6L14 6L14 5L12 5L12 8L11 8L11 3L12 3L12 2L14 2L14 3L13 3L13 4L15 4L15 5L16 5L16 4L15 4L15 3L16 3L16 0ZM35 0L35 1L36 1L36 2L37 2L37 1L38 1L38 2L39 2L39 4L40 4L40 3L41 3L41 0L40 0L40 1L38 1L38 0ZM17 1L17 2L18 2L18 1ZM19 1L19 2L20 2L20 1ZM30 1L30 2L31 2L31 1ZM23 5L23 8L26 8L26 5ZM30 5L30 6L29 6L29 8L27 8L27 9L26 9L26 10L23 10L23 9L22 9L22 11L21 11L21 9L20 9L20 8L21 8L21 7L20 7L20 6L19 6L19 9L20 9L20 11L19 11L19 13L21 13L21 12L22 12L22 14L21 14L21 15L22 15L22 16L21 16L21 17L20 17L20 16L19 16L19 17L20 17L20 18L18 18L18 17L16 17L16 15L15 15L15 14L16 14L16 13L18 13L18 12L17 12L17 11L18 11L18 10L17 10L17 9L16 9L16 8L15 8L15 7L14 7L14 6L13 6L13 7L14 7L14 8L12 8L12 9L16 9L16 13L15 13L15 10L13 10L13 11L14 11L14 12L11 12L11 13L10 13L10 17L11 17L11 18L7 18L7 17L8 17L8 16L7 16L7 15L6 15L6 16L7 16L7 17L6 17L6 18L5 18L5 17L4 17L4 16L3 16L3 17L4 17L4 18L5 18L5 19L3 19L3 18L2 18L2 19L3 19L3 20L4 20L4 21L5 21L5 19L6 19L6 20L7 20L7 21L6 21L6 22L8 22L8 19L10 19L10 20L12 20L12 21L9 21L9 22L11 22L11 23L10 23L10 24L9 24L9 26L10 26L10 27L5 27L5 28L4 28L4 25L2 25L2 26L1 26L1 27L2 27L2 26L3 26L3 28L2 28L2 29L1 29L1 31L2 31L2 33L1 33L1 34L2 34L2 35L1 35L1 36L3 36L3 35L4 35L4 36L5 36L5 34L7 34L7 33L5 33L5 31L6 31L6 32L7 32L7 31L6 31L6 30L8 30L8 34L9 34L9 33L10 33L10 34L11 34L11 36L12 36L12 34L13 34L13 33L16 33L16 35L15 35L15 37L13 37L13 39L14 39L14 40L12 40L12 39L11 39L11 38L12 38L12 37L10 37L10 39L9 39L9 38L8 38L8 37L6 37L6 38L8 38L8 40L10 40L10 39L11 39L11 40L12 40L12 41L9 41L9 43L10 43L10 44L9 44L9 45L10 45L10 44L11 44L11 45L12 45L12 44L11 44L11 43L14 43L14 44L13 44L13 45L14 45L14 46L16 46L16 45L18 45L18 44L17 44L17 43L18 43L18 42L19 42L19 41L20 41L20 42L21 42L21 43L20 43L20 44L19 44L19 45L21 45L21 47L22 47L22 46L25 46L25 48L27 48L27 47L26 47L26 46L28 46L28 47L29 47L29 48L30 48L30 47L31 47L31 46L30 46L30 44L28 44L28 45L26 45L26 46L25 46L25 45L21 45L21 43L22 43L22 42L21 42L21 41L20 41L20 40L21 40L21 39L22 39L22 40L24 40L24 39L25 39L25 40L26 40L26 39L28 39L28 38L27 38L27 36L28 36L28 37L29 37L29 38L30 38L30 39L31 39L31 38L30 38L30 35L34 35L34 36L31 36L31 37L32 37L32 39L34 39L34 40L36 40L36 42L39 42L39 40L41 40L41 39L42 39L42 40L45 40L45 41L46 41L46 42L45 42L45 43L46 43L46 44L45 44L45 45L46 45L46 44L47 44L47 43L48 43L48 42L47 42L47 41L46 41L46 40L48 40L48 38L47 38L47 37L46 37L46 36L48 36L48 34L47 34L47 33L48 33L48 30L47 30L47 29L48 29L48 26L47 26L47 25L48 25L48 22L47 22L47 21L46 21L46 20L48 20L48 18L47 18L47 17L48 17L48 14L47 14L47 15L46 15L46 16L47 16L47 17L46 17L46 20L41 20L41 21L40 21L40 22L39 22L39 21L38 21L38 20L37 20L37 19L36 19L36 17L35 17L35 16L34 16L34 14L33 14L33 12L31 12L31 13L32 13L32 14L30 14L30 11L29 11L29 10L30 10L30 9L29 9L29 8L30 8L30 6L31 6L31 7L32 7L32 5ZM34 5L34 7L35 7L35 5ZM24 6L24 7L25 7L25 6ZM37 6L37 7L38 7L38 8L39 8L39 7L38 7L38 6ZM47 8L47 9L48 9L48 8ZM43 9L43 10L42 10L42 11L45 11L45 10L44 10L44 9ZM26 10L26 11L28 11L28 12L26 12L26 13L27 13L27 14L25 14L25 12L23 12L23 13L24 13L24 14L22 14L22 15L23 15L23 16L22 16L22 18L23 18L23 20L21 20L21 21L25 21L25 22L22 22L22 24L19 24L19 23L20 23L20 22L19 22L19 21L20 21L20 19L21 19L21 18L20 18L20 19L19 19L19 21L18 21L18 20L17 20L17 21L18 21L18 22L19 22L19 23L17 23L17 24L16 24L16 23L15 23L15 24L16 24L16 25L13 25L13 23L11 23L11 24L12 24L12 25L13 25L13 26L15 26L15 29L16 29L16 30L15 30L15 31L13 31L13 32L15 32L15 31L16 31L16 33L17 33L17 35L18 35L18 33L19 33L19 32L20 32L20 33L21 33L21 30L22 30L22 31L23 31L23 29L24 29L24 32L25 32L25 31L26 31L26 32L29 32L29 31L30 31L30 32L33 32L33 33L32 33L32 34L33 34L33 33L34 33L34 31L35 31L35 30L36 30L36 32L35 32L35 34L36 34L36 35L37 35L37 36L35 36L35 37L37 37L37 38L36 38L36 40L37 40L37 41L38 41L38 40L37 40L37 39L39 39L39 38L40 38L40 39L41 39L41 36L42 36L42 39L43 39L43 37L45 37L45 36L46 36L46 33L47 33L47 32L46 32L46 29L47 29L47 28L46 28L46 27L45 27L45 26L46 26L46 25L47 25L47 24L46 24L46 23L45 23L45 22L44 22L44 21L42 21L42 22L40 22L40 23L39 23L39 22L38 22L38 21L37 21L37 20L36 20L36 21L37 21L37 22L36 22L36 23L37 23L37 24L36 24L36 25L35 25L35 22L34 22L34 18L33 18L33 17L34 17L34 16L33 16L33 14L32 14L32 15L30 15L30 14L29 14L29 13L28 13L28 12L29 12L29 11L28 11L28 10ZM3 11L3 12L2 12L2 13L3 13L3 12L4 12L4 11ZM5 11L5 12L7 12L7 11ZM20 11L20 12L21 12L21 11ZM46 11L46 12L47 12L47 13L48 13L48 12L47 12L47 11ZM11 13L11 15L13 15L13 16L15 16L15 15L13 15L13 14L14 14L14 13L13 13L13 14L12 14L12 13ZM17 14L17 16L18 16L18 14ZM19 14L19 15L20 15L20 14ZM28 14L28 15L29 15L29 16L27 16L27 15L24 15L24 16L23 16L23 18L24 18L24 16L26 16L26 18L25 18L25 19L24 19L24 20L25 20L25 19L26 19L26 22L27 22L27 20L28 20L28 21L29 21L29 22L28 22L28 23L27 23L27 24L28 24L28 25L27 25L27 26L28 26L28 27L27 27L27 28L26 28L26 27L24 27L24 29L25 29L25 28L26 28L26 29L27 29L27 28L28 28L28 31L29 31L29 30L30 30L30 31L34 31L34 30L35 30L35 28L37 28L37 26L39 26L39 25L38 25L38 24L39 24L39 23L38 23L38 22L37 22L37 23L38 23L38 24L37 24L37 25L36 25L36 27L34 27L34 28L31 28L31 29L32 29L32 30L30 30L30 27L33 27L33 25L34 25L34 26L35 26L35 25L34 25L34 22L32 22L32 21L33 21L33 20L28 20L28 19L29 19L29 18L30 18L30 19L31 19L31 18L30 18L30 17L33 17L33 16L30 16L30 15L29 15L29 14ZM29 16L29 17L30 17L30 16ZM13 17L13 18L12 18L12 20L13 20L13 21L15 21L15 22L16 22L16 21L15 21L15 20L16 20L16 17ZM43 17L43 18L42 18L42 19L45 19L45 18L44 18L44 17ZM6 18L6 19L7 19L7 18ZM17 18L17 19L18 19L18 18ZM26 18L26 19L28 19L28 18ZM32 18L32 19L33 19L33 18ZM13 19L13 20L14 20L14 19ZM30 21L30 22L29 22L29 23L28 23L28 24L33 24L33 23L32 23L32 22L31 22L31 21ZM3 22L3 23L4 23L4 22ZM30 22L30 23L31 23L31 22ZM5 23L5 26L8 26L8 23ZM23 23L23 26L26 26L26 23ZM41 23L41 26L44 26L44 23ZM6 24L6 25L7 25L7 24ZM24 24L24 25L25 25L25 24ZM42 24L42 25L43 25L43 24ZM45 24L45 25L46 25L46 24ZM10 25L10 26L11 26L11 27L10 27L10 30L9 30L9 32L10 32L10 31L12 31L12 30L14 30L14 29L13 29L13 28L14 28L14 27L12 27L12 26L11 26L11 25ZM16 25L16 29L18 29L18 28L17 28L17 27L18 27L18 26L17 26L17 25ZM20 25L20 26L19 26L19 29L22 29L22 28L23 28L23 27L21 27L21 25ZM30 25L30 26L29 26L29 27L28 27L28 28L29 28L29 27L30 27L30 26L32 26L32 25ZM38 27L38 28L39 28L39 27ZM42 27L42 28L41 28L41 29L44 29L44 30L43 30L43 31L42 31L42 30L41 30L41 31L40 31L40 29L38 29L38 30L37 30L37 29L36 29L36 30L37 30L37 33L36 33L36 34L39 34L39 32L40 32L40 35L42 35L42 36L45 36L45 35L44 35L44 34L45 34L45 33L46 33L46 32L45 32L45 31L44 31L44 30L45 30L45 29L46 29L46 28L45 28L45 27ZM6 28L6 29L7 29L7 28ZM3 29L3 30L4 30L4 31L3 31L3 32L4 32L4 31L5 31L5 30L4 30L4 29ZM33 29L33 30L34 30L34 29ZM17 30L17 33L18 33L18 31L20 31L20 30ZM26 30L26 31L27 31L27 30ZM38 30L38 31L39 31L39 30ZM41 31L41 33L45 33L45 32L42 32L42 31ZM22 32L22 33L23 33L23 34L19 34L19 37L18 37L18 36L17 36L17 37L18 37L18 38L17 38L17 40L16 40L16 39L15 39L15 38L16 38L16 37L15 37L15 38L14 38L14 39L15 39L15 40L16 40L16 41L12 41L12 42L15 42L15 45L16 45L16 41L17 41L17 42L18 42L18 41L19 41L19 39L20 39L20 38L19 38L19 37L20 37L20 36L21 36L21 35L23 35L23 36L22 36L22 37L21 37L21 38L22 38L22 39L24 39L24 38L25 38L25 39L26 39L26 37L24 37L24 36L27 36L27 35L25 35L25 34L28 34L28 33L23 33L23 32ZM4 33L4 34L5 34L5 33ZM29 33L29 34L31 34L31 33ZM42 34L42 35L43 35L43 34ZM6 35L6 36L7 36L7 35ZM13 35L13 36L14 36L14 35ZM28 35L28 36L29 36L29 35ZM23 37L23 38L24 38L24 37ZM33 37L33 38L34 38L34 39L35 39L35 38L34 38L34 37ZM38 37L38 38L39 38L39 37ZM45 39L45 40L46 40L46 39ZM17 40L17 41L18 41L18 40ZM23 41L23 44L26 44L26 41ZM41 41L41 44L44 44L44 41ZM24 42L24 43L25 43L25 42ZM42 42L42 43L43 43L43 42ZM38 43L38 44L39 44L39 43ZM31 44L31 45L32 45L32 47L34 47L34 46L33 46L33 44ZM40 45L40 46L39 46L39 47L41 47L41 48L42 48L42 46L41 46L41 45ZM19 46L19 47L20 47L20 46ZM29 46L29 47L30 47L30 46ZM0 0L0 7L7 7L7 0ZM1 1L1 6L6 6L6 1ZM2 2L2 5L5 5L5 2ZM42 0L42 7L49 7L49 0ZM43 1L43 6L48 6L48 1ZM44 2L44 5L47 5L47 2ZM0 42L0 49L7 49L7 42ZM1 43L1 48L6 48L6 43ZM2 44L2 47L5 47L5 44Z" fill="#000000"/></g></g></svg>
