<?xml version="1.0" encoding="UTF-8"?>
<svg xmlns="http://www.w3.org/2000/svg" version="1.1" width="100" height="100" viewBox="0 0 100 100"><rect x="0" y="0" width="100" height="100" fill="#ffffff"/><g transform="scale(2.041)"><g transform="translate(0,0)"><path fill-rule="evenodd" d="M10 0L10 1L11 1L11 2L10 2L10 5L8 5L8 7L9 7L9 6L10 6L10 7L11 7L11 9L13 9L13 11L12 11L12 10L10 10L10 9L9 9L9 8L6 8L6 9L5 9L5 8L0 8L0 11L1 11L1 10L2 10L2 11L3 11L3 13L2 13L2 12L0 12L0 13L2 13L2 14L1 14L1 16L0 16L0 18L1 18L1 19L0 19L0 20L2 20L2 19L4 19L4 20L3 20L3 21L5 21L5 22L4 22L4 23L3 23L3 24L2 24L2 25L1 25L1 24L0 24L0 25L1 25L1 26L0 26L0 30L1 30L1 29L2 29L2 30L3 30L3 31L0 31L0 33L2 33L2 32L4 32L4 33L5 33L5 34L6 34L6 35L5 35L5 36L3 36L3 35L4 35L4 34L2 34L2 35L0 35L0 38L1 38L1 40L0 40L0 41L3 41L3 40L4 40L4 39L2 39L2 36L3 36L3 38L4 38L4 37L5 37L5 39L7 39L7 40L6 40L6 41L7 41L7 40L10 40L10 41L8 41L8 43L9 43L9 42L10 42L10 41L12 41L12 44L11 44L11 43L10 43L10 46L9 46L9 44L8 44L8 49L9 49L9 47L10 47L10 49L12 49L12 48L13 48L13 47L14 47L14 46L13 46L13 45L15 45L15 46L16 46L16 45L15 45L15 44L16 44L16 41L17 41L17 43L18 43L18 41L19 41L19 42L20 42L20 43L19 43L19 45L18 45L18 44L17 44L17 45L18 45L18 49L21 49L21 48L22 48L22 45L25 45L25 46L23 46L23 47L24 47L24 48L23 48L23 49L25 49L25 48L26 48L26 47L25 47L25 46L26 46L26 45L27 45L27 47L28 47L28 48L27 48L27 49L28 49L28 48L29 48L29 49L31 49L31 48L34 48L34 47L36 47L36 46L34 46L34 45L33 45L33 46L34 46L34 47L32 47L32 46L31 46L31 44L34 44L34 43L35 43L35 42L34 42L34 41L36 41L36 43L37 43L37 44L35 44L35 45L37 45L37 44L38 44L38 45L39 45L39 46L38 46L38 47L37 47L37 48L36 48L36 49L39 49L39 46L40 46L40 45L42 45L42 46L41 46L41 47L40 47L40 49L42 49L42 48L43 48L43 46L45 46L45 47L47 47L47 46L46 46L46 45L49 45L49 42L48 42L48 41L49 41L49 38L48 38L48 37L49 37L49 36L48 36L48 37L47 37L47 36L46 36L46 33L47 33L47 32L46 32L46 29L47 29L47 30L48 30L48 33L49 33L49 30L48 30L48 28L46 28L46 27L45 27L45 26L46 26L46 25L47 25L47 26L48 26L48 27L49 27L49 26L48 26L48 25L49 25L49 22L48 22L48 21L49 21L49 18L48 18L48 17L49 17L49 14L48 14L48 13L49 13L49 10L48 10L48 8L47 8L47 10L46 10L46 8L45 8L45 11L42 11L42 10L43 10L43 9L44 9L44 8L43 8L43 9L42 9L42 8L40 8L40 7L41 7L41 6L40 6L40 7L39 7L39 5L38 5L38 3L35 3L35 2L36 2L36 0L35 0L35 1L34 1L34 0L32 0L32 1L31 1L31 0L30 0L30 1L29 1L29 2L28 2L28 1L25 1L25 2L24 2L24 0L23 0L23 1L21 1L21 2L20 2L20 0L17 0L17 1L18 1L18 2L17 2L17 3L18 3L18 4L16 4L16 0ZM37 0L37 1L38 1L38 2L39 2L39 4L40 4L40 3L41 3L41 0L40 0L40 1L38 1L38 0ZM8 1L8 2L9 2L9 1ZM13 1L13 2L14 2L14 3L13 3L13 4L12 4L12 2L11 2L11 4L12 4L12 5L10 5L10 6L11 6L11 7L12 7L12 5L13 5L13 7L14 7L14 6L15 6L15 8L13 8L13 9L16 9L16 10L15 10L15 11L16 11L16 12L15 12L15 13L13 13L13 12L14 12L14 11L13 11L13 12L12 12L12 13L10 13L10 10L9 10L9 12L7 12L7 11L6 11L6 10L8 10L8 9L6 9L6 10L4 10L4 9L2 9L2 10L3 10L3 11L4 11L4 12L5 12L5 13L4 13L4 14L2 14L2 15L3 15L3 16L4 16L4 17L5 17L5 20L7 20L7 19L6 19L6 18L9 18L9 21L10 21L10 22L9 22L9 26L10 26L10 27L6 27L6 28L5 28L5 27L3 27L3 26L4 26L4 25L3 25L3 26L2 26L2 27L3 27L3 28L4 28L4 29L3 29L3 30L7 30L7 31L6 31L6 32L7 32L7 33L6 33L6 34L9 34L9 35L11 35L11 36L10 36L10 37L9 37L9 36L8 36L8 35L6 35L6 36L5 36L5 37L6 37L6 38L7 38L7 39L9 39L9 38L10 38L10 37L12 37L12 38L11 38L11 39L12 39L12 41L16 41L16 39L15 39L15 38L16 38L16 37L18 37L18 36L17 36L17 35L18 35L18 34L19 34L19 33L20 33L20 35L19 35L19 37L22 37L22 35L23 35L23 34L24 34L24 36L23 36L23 37L24 37L24 36L25 36L25 35L27 35L27 36L28 36L28 37L29 37L29 38L28 38L28 39L27 39L27 38L26 38L26 37L25 37L25 38L26 38L26 39L27 39L27 40L28 40L28 41L29 41L29 42L27 42L27 44L28 44L28 45L29 45L29 46L28 46L28 47L29 47L29 48L30 48L30 47L31 47L31 46L30 46L30 43L31 43L31 42L30 42L30 39L31 39L31 38L32 38L32 39L34 39L34 40L35 40L35 39L36 39L36 38L37 38L37 37L35 37L35 36L37 36L37 35L39 35L39 34L37 34L37 35L36 35L36 33L34 33L34 34L33 34L33 32L36 32L36 30L37 30L37 32L40 32L40 35L42 35L42 38L43 38L43 40L46 40L46 42L45 42L45 43L46 43L46 44L45 44L45 45L46 45L46 44L48 44L48 42L47 42L47 41L48 41L48 40L47 40L47 39L48 39L48 38L47 38L47 37L46 37L46 36L45 36L45 35L44 35L44 34L45 34L45 33L46 33L46 32L45 32L45 29L46 29L46 28L45 28L45 27L42 27L42 29L43 29L43 30L44 30L44 32L45 32L45 33L41 33L41 32L42 32L42 31L38 31L38 30L40 30L40 29L38 29L38 30L37 30L37 29L36 29L36 30L35 30L35 28L37 28L37 27L36 27L36 26L35 26L35 23L36 23L36 22L37 22L37 25L38 25L38 28L39 28L39 25L38 25L38 24L39 24L39 23L40 23L40 22L42 22L42 21L44 21L44 22L45 22L45 21L46 21L46 20L47 20L47 19L48 19L48 18L47 18L47 17L48 17L48 14L47 14L47 13L48 13L48 10L47 10L47 11L46 11L46 12L42 12L42 11L37 11L37 10L39 10L39 9L40 9L40 10L42 10L42 9L40 9L40 8L39 8L39 7L38 7L38 6L37 6L37 10L36 10L36 9L35 9L35 8L36 8L36 4L35 4L35 3L31 3L31 1L30 1L30 2L29 2L29 3L27 3L27 2L25 2L25 3L26 3L26 4L27 4L27 8L28 8L28 9L33 9L33 10L28 10L28 11L29 11L29 12L27 12L27 11L26 11L26 10L27 10L27 9L26 9L26 10L25 10L25 9L23 9L23 11L22 11L22 9L21 9L21 8L19 8L19 9L18 9L18 6L19 6L19 7L20 7L20 5L17 5L17 9L16 9L16 6L15 6L15 5L16 5L16 4L15 4L15 1ZM32 1L32 2L33 2L33 1ZM19 2L19 4L21 4L21 7L22 7L22 4L21 4L21 3L22 3L22 2L21 2L21 3L20 3L20 2ZM23 2L23 4L24 4L24 2ZM8 3L8 4L9 4L9 3ZM30 3L30 5L29 5L29 4L28 4L28 5L29 5L29 6L28 6L28 8L29 8L29 6L30 6L30 8L33 8L33 9L34 9L34 7L35 7L35 5L34 5L34 7L33 7L33 5L32 5L32 4L31 4L31 3ZM13 4L13 5L14 5L14 4ZM23 5L23 8L26 8L26 5ZM30 5L30 6L31 6L31 7L32 7L32 5ZM24 6L24 7L25 7L25 6ZM17 9L17 10L16 10L16 11L18 11L18 9ZM19 9L19 10L20 10L20 9ZM24 10L24 11L25 11L25 12L21 12L21 14L22 14L22 13L23 13L23 15L24 15L24 16L23 16L23 17L22 17L22 18L21 18L21 19L24 19L24 20L21 20L21 21L19 21L19 18L20 18L20 16L19 16L19 15L20 15L20 14L19 14L19 13L20 13L20 12L19 12L19 13L18 13L18 12L17 12L17 13L18 13L18 14L17 14L17 16L16 16L16 15L15 15L15 14L16 14L16 13L15 13L15 14L14 14L14 15L10 15L10 17L11 17L11 16L14 16L14 15L15 15L15 16L16 16L16 17L12 17L12 19L10 19L10 21L13 21L13 22L12 22L12 23L11 23L11 22L10 22L10 24L12 24L12 25L11 25L11 27L12 27L12 28L8 28L8 29L7 29L7 28L6 28L6 29L7 29L7 30L8 30L8 31L7 31L7 32L8 32L8 33L9 33L9 32L8 32L8 31L9 31L9 29L10 29L10 30L11 30L11 31L10 31L10 32L11 32L11 33L10 33L10 34L11 34L11 35L13 35L13 36L12 36L12 37L13 37L13 40L14 40L14 37L13 37L13 36L14 36L14 35L13 35L13 34L15 34L15 37L16 37L16 33L17 33L17 34L18 34L18 33L19 33L19 31L20 31L20 30L19 30L19 29L20 29L20 28L19 28L19 29L18 29L18 28L17 28L17 29L18 29L18 33L17 33L17 32L16 32L16 31L14 31L14 30L13 30L13 31L14 31L14 32L16 32L16 33L13 33L13 32L12 32L12 30L11 30L11 29L15 29L15 30L16 30L16 29L15 29L15 28L16 28L16 25L17 25L17 27L18 27L18 25L19 25L19 24L20 24L20 25L21 25L21 24L22 24L22 26L21 26L21 28L22 28L22 29L21 29L21 30L22 30L22 31L21 31L21 32L20 32L20 33L21 33L21 35L20 35L20 36L21 36L21 35L22 35L22 34L23 34L23 33L22 33L22 31L23 31L23 32L25 32L25 31L26 31L26 32L27 32L27 33L28 33L28 32L33 32L33 31L30 31L30 30L31 30L31 28L34 28L34 27L35 27L35 26L34 26L34 23L35 23L35 22L34 22L34 19L31 19L31 20L30 20L30 22L29 22L29 23L28 23L28 21L27 21L27 20L29 20L29 19L28 19L28 18L32 18L32 17L28 17L28 16L34 16L34 17L35 17L35 19L37 19L37 20L36 20L36 21L37 21L37 22L38 22L38 23L39 23L39 22L40 22L40 21L41 21L41 20L46 20L46 17L47 17L47 16L46 16L46 15L42 15L42 14L43 14L43 13L42 13L42 14L41 14L41 16L40 16L40 17L39 17L39 18L37 18L37 17L38 17L38 16L37 16L37 15L36 15L36 14L34 14L34 12L35 12L35 13L37 13L37 12L36 12L36 10L35 10L35 11L31 11L31 12L29 12L29 13L30 13L30 14L29 14L29 15L28 15L28 14L25 14L25 12L26 12L26 13L27 13L27 12L26 12L26 11L25 11L25 10ZM5 11L5 12L6 12L6 13L5 13L5 14L4 14L4 16L6 16L6 17L7 17L7 16L9 16L9 15L7 15L7 14L6 14L6 13L7 13L7 12L6 12L6 11ZM31 12L31 14L30 14L30 15L32 15L32 14L33 14L33 15L34 15L34 16L36 16L36 15L34 15L34 14L33 14L33 12ZM38 12L38 13L41 13L41 12ZM46 12L46 13L47 13L47 12ZM8 13L8 14L10 14L10 13ZM12 13L12 14L13 14L13 13ZM44 13L44 14L45 14L45 13ZM24 14L24 15L25 15L25 14ZM38 14L38 15L40 15L40 14ZM6 15L6 16L7 16L7 15ZM21 15L21 16L22 16L22 15ZM27 15L27 16L26 16L26 18L25 18L25 17L24 17L24 18L25 18L25 20L27 20L27 19L26 19L26 18L27 18L27 16L28 16L28 15ZM17 16L17 17L16 17L16 18L13 18L13 19L14 19L14 20L13 20L13 21L14 21L14 22L13 22L13 25L12 25L12 27L13 27L13 28L14 28L14 27L13 27L13 25L16 25L16 23L14 23L14 22L16 22L16 21L18 21L18 20L17 20L17 19L18 19L18 18L19 18L19 17L18 17L18 16ZM41 16L41 17L40 17L40 18L39 18L39 21L38 21L38 20L37 20L37 21L38 21L38 22L39 22L39 21L40 21L40 18L41 18L41 19L42 19L42 18L41 18L41 17L44 17L44 18L43 18L43 19L44 19L44 18L45 18L45 17L46 17L46 16ZM1 17L1 18L2 18L2 17ZM17 17L17 18L18 18L18 17ZM15 20L15 21L16 21L16 20ZM31 20L31 22L30 22L30 23L29 23L29 24L27 24L27 25L28 25L28 27L27 27L27 28L26 28L26 31L27 31L27 32L28 32L28 31L29 31L29 30L30 30L30 29L29 29L29 28L31 28L31 26L29 26L29 24L30 24L30 23L34 23L34 22L33 22L33 20ZM0 21L0 23L2 23L2 21ZM6 21L6 22L8 22L8 21ZM21 21L21 23L22 23L22 21ZM23 21L23 22L24 22L24 21ZM25 21L25 22L27 22L27 21ZM17 22L17 25L18 25L18 24L19 24L19 23L20 23L20 22L19 22L19 23L18 23L18 22ZM46 22L46 24L45 24L45 25L46 25L46 24L47 24L47 25L48 25L48 22ZM5 23L5 26L8 26L8 23ZM23 23L23 26L26 26L26 23ZM41 23L41 26L44 26L44 23ZM6 24L6 25L7 25L7 24ZM24 24L24 25L25 25L25 24ZM31 24L31 25L32 25L32 27L34 27L34 26L33 26L33 24ZM42 24L42 25L43 25L43 24ZM19 26L19 27L20 27L20 26ZM22 27L22 28L24 28L24 29L23 29L23 31L24 31L24 29L25 29L25 28L24 28L24 27ZM43 28L43 29L45 29L45 28ZM27 29L27 30L28 30L28 29ZM33 29L33 30L34 30L34 31L35 31L35 30L34 30L34 29ZM24 33L24 34L25 34L25 33ZM30 33L30 34L29 34L29 35L28 35L28 34L27 34L27 35L28 35L28 36L29 36L29 37L30 37L30 38L29 38L29 39L28 39L28 40L29 40L29 39L30 39L30 38L31 38L31 37L30 37L30 36L34 36L34 35L35 35L35 34L34 34L34 35L30 35L30 34L31 34L31 33ZM42 34L42 35L43 35L43 34ZM48 34L48 35L49 35L49 34ZM6 36L6 37L7 37L7 38L9 38L9 37L7 37L7 36ZM40 36L40 37L38 37L38 38L39 38L39 39L37 39L37 40L42 40L42 39L40 39L40 37L41 37L41 36ZM43 36L43 37L45 37L45 38L44 38L44 39L47 39L47 38L46 38L46 37L45 37L45 36ZM33 37L33 38L34 38L34 39L35 39L35 38L34 38L34 37ZM19 38L19 39L20 39L20 38ZM21 38L21 41L20 41L20 40L19 40L19 41L20 41L20 42L22 42L22 40L23 40L23 39L24 39L24 38ZM17 39L17 41L18 41L18 39ZM31 40L31 41L33 41L33 40ZM23 41L23 44L26 44L26 41ZM38 41L38 42L37 42L37 43L38 43L38 44L39 44L39 41ZM41 41L41 44L44 44L44 41ZM24 42L24 43L25 43L25 42ZM29 42L29 43L28 43L28 44L29 44L29 43L30 43L30 42ZM32 42L32 43L34 43L34 42ZM42 42L42 43L43 43L43 42ZM13 43L13 44L14 44L14 43ZM20 43L20 45L19 45L19 46L20 46L20 47L19 47L19 48L21 48L21 45L22 45L22 43ZM11 45L11 46L10 46L10 47L11 47L11 48L12 48L12 47L11 47L11 46L12 46L12 45ZM29 46L29 47L30 47L30 46ZM15 47L15 48L16 48L16 49L17 49L17 48L16 48L16 47ZM41 47L41 48L42 48L42 47ZM48 47L48 48L47 48L47 49L49 49L49 47ZM0 0L0 7L7 7L7 0ZM1 1L1 6L6 6L6 1ZM2 2L2 5L5 5L5 2ZM42 0L42 7L49 7L49 0ZM43 1L43 6L48 6L48 1ZM44 2L44 5L47 5L47 2ZM0 42L0 49L7 49L7 42ZM1 43L1 48L6 48L6 43ZM2 44L2 47L5 47L5 44Z" fill="#000000"/></g></g></svg>
