<?xml version="1.0" encoding="UTF-8"?>
<svg xmlns="http://www.w3.org/2000/svg" version="1.1" width="100" height="100" viewBox="0 0 100 100"><rect x="0" y="0" width="100" height="100" fill="#ffffff"/><g transform="scale(2.222)"><g transform="translate(0,0)"><path fill-rule="evenodd" d="M12 0L12 1L11 1L11 2L12 2L12 1L13 1L13 3L10 3L10 4L11 4L11 5L8 5L8 7L9 7L9 6L10 6L10 7L11 7L11 8L6 8L6 9L7 9L7 10L6 10L6 11L9 11L9 10L10 10L10 9L11 9L11 10L12 10L12 9L13 9L13 11L10 11L10 12L9 12L9 14L8 14L8 13L7 13L7 12L6 12L6 13L7 13L7 14L5 14L5 11L3 11L3 10L4 10L4 9L5 9L5 8L0 8L0 9L2 9L2 11L1 11L1 10L0 10L0 11L1 11L1 12L0 12L0 13L1 13L1 14L0 14L0 15L1 15L1 14L2 14L2 11L3 11L3 12L4 12L4 15L5 15L5 17L4 17L4 16L3 16L3 15L2 15L2 16L0 16L0 17L2 17L2 16L3 16L3 17L4 17L4 18L2 18L2 19L1 19L1 20L0 20L0 21L4 21L4 22L0 22L0 26L1 26L1 23L4 23L4 28L6 28L6 29L8 29L8 30L5 30L5 31L4 31L4 30L3 30L3 28L2 28L2 30L1 30L1 29L0 29L0 31L2 31L2 32L0 32L0 34L4 34L4 35L1 35L1 36L0 36L0 37L1 37L1 36L3 36L3 37L5 37L5 34L6 34L6 35L8 35L8 39L11 39L11 38L12 38L12 40L11 40L11 41L9 41L9 40L8 40L8 45L10 45L10 44L11 44L11 43L12 43L12 44L15 44L15 45L20 45L20 44L21 44L21 43L22 43L22 45L23 45L23 44L24 44L24 45L28 45L28 44L29 44L29 45L31 45L31 44L33 44L33 45L34 45L34 44L33 44L33 43L35 43L35 44L36 44L36 45L37 45L37 44L38 44L38 45L39 45L39 44L41 44L41 45L42 45L42 44L43 44L43 45L44 45L44 44L43 44L43 42L44 42L44 43L45 43L45 42L44 42L44 41L45 41L45 40L44 40L44 38L45 38L45 37L44 37L44 36L43 36L43 35L42 35L42 36L39 36L39 35L40 35L40 33L42 33L42 34L45 34L45 33L42 33L42 32L44 32L44 31L43 31L43 29L42 29L42 28L43 28L43 26L45 26L45 25L42 25L42 24L43 24L43 23L44 23L44 21L42 21L42 20L43 20L43 18L45 18L45 17L43 17L43 18L42 18L42 20L41 20L41 19L40 19L40 18L41 18L41 17L42 17L42 16L43 16L43 15L44 15L44 14L43 14L43 10L45 10L45 9L44 9L44 8L43 8L43 10L41 10L41 11L40 11L40 8L39 8L39 10L37 10L37 9L38 9L38 8L37 8L37 9L35 9L35 6L34 6L34 9L35 9L35 10L34 10L34 11L35 11L35 12L33 12L33 10L32 10L32 11L30 11L30 10L31 10L31 8L33 8L33 6L32 6L32 4L31 4L31 3L33 3L33 4L34 4L34 5L37 5L37 3L36 3L36 1L37 1L37 0L36 0L36 1L35 1L35 4L34 4L34 0L33 0L33 2L31 2L31 3L30 3L30 5L29 5L29 6L28 6L28 3L29 3L29 2L30 2L30 1L31 1L31 0L30 0L30 1L29 1L29 0L27 0L27 1L26 1L26 0L25 0L25 1L22 1L22 0L21 0L21 1L20 1L20 0L19 0L19 1L17 1L17 2L18 2L18 3L17 3L17 5L18 5L18 7L17 7L17 6L16 6L16 5L15 5L15 4L16 4L16 3L15 3L15 4L14 4L14 2L15 2L15 1L16 1L16 0ZM8 1L8 2L9 2L9 1ZM21 1L21 2L20 2L20 3L21 3L21 4L22 4L22 3L23 3L23 4L25 4L25 5L27 5L27 3L28 3L28 1L27 1L27 2L26 2L26 1L25 1L25 3L23 3L23 2L22 2L22 1ZM21 2L21 3L22 3L22 2ZM8 3L8 4L9 4L9 3ZM12 4L12 5L11 5L11 7L12 7L12 8L13 8L13 9L15 9L15 10L16 10L16 11L15 11L15 12L14 12L14 13L12 13L12 12L10 12L10 15L6 15L6 16L9 16L9 17L5 17L5 19L4 19L4 20L11 20L11 22L12 22L12 23L10 23L10 22L9 22L9 24L12 24L12 23L13 23L13 24L14 24L14 23L13 23L13 22L14 22L14 21L15 21L15 22L16 22L16 23L15 23L15 25L13 25L13 26L15 26L15 25L16 25L16 28L14 28L14 27L13 27L13 28L12 28L12 27L11 27L11 26L12 26L12 25L11 25L11 26L10 26L10 25L9 25L9 26L10 26L10 27L11 27L11 28L10 28L10 29L9 29L9 27L6 27L6 26L7 26L7 25L6 25L6 26L5 26L5 27L6 27L6 28L8 28L8 29L9 29L9 30L10 30L10 31L9 31L9 32L8 32L8 31L5 31L5 33L6 33L6 34L10 34L10 35L9 35L9 36L10 36L10 37L9 37L9 38L11 38L11 35L12 35L12 36L13 36L13 33L14 33L14 35L16 35L16 36L17 36L17 35L18 35L18 34L19 34L19 36L20 36L20 34L21 34L21 35L25 35L25 36L26 36L26 37L25 37L25 38L30 38L30 39L31 39L31 42L28 42L28 43L26 43L26 42L27 42L27 39L25 39L25 41L24 41L24 42L25 42L25 43L24 43L24 44L25 44L25 43L26 43L26 44L28 44L28 43L33 43L33 42L35 42L35 43L36 43L36 44L37 44L37 43L38 43L38 44L39 44L39 42L40 42L40 43L41 43L41 44L42 44L42 41L44 41L44 40L42 40L42 39L43 39L43 38L44 38L44 37L43 37L43 36L42 36L42 37L41 37L41 40L42 40L42 41L41 41L41 42L40 42L40 41L38 41L38 42L37 42L37 41L36 41L36 39L34 39L34 38L36 38L36 36L37 36L37 35L39 35L39 33L40 33L40 32L42 32L42 31L40 31L40 30L42 30L42 29L40 29L40 28L42 28L42 27L41 27L41 25L40 25L40 28L37 28L37 29L38 29L38 30L35 30L35 29L36 29L36 28L35 28L35 27L36 27L36 26L35 26L35 25L33 25L33 24L34 24L34 22L35 22L35 24L36 24L36 22L35 22L35 19L36 19L36 20L40 20L40 19L37 19L37 18L39 18L39 16L40 16L40 17L41 17L41 16L42 16L42 15L43 15L43 14L42 14L42 13L41 13L41 12L40 12L40 11L37 11L37 10L36 10L36 11L37 11L37 12L36 12L36 13L34 13L34 14L33 14L33 12L31 12L31 14L30 14L30 11L29 11L29 10L30 10L30 9L29 9L29 8L30 8L30 6L31 6L31 7L32 7L32 6L31 6L31 5L30 5L30 6L29 6L29 8L27 8L27 7L28 7L28 6L27 6L27 7L26 7L26 6L25 6L25 7L26 7L26 10L25 10L25 9L24 9L24 10L22 10L22 9L17 9L17 7L16 7L16 6L15 6L15 7L14 7L14 4ZM19 4L19 7L18 7L18 8L20 8L20 4ZM21 5L21 8L24 8L24 5ZM12 6L12 7L13 7L13 6ZM22 6L22 7L23 7L23 6ZM36 6L36 7L37 7L37 6ZM15 7L15 9L16 9L16 7ZM41 8L41 9L42 9L42 8ZM27 9L27 10L26 10L26 11L28 11L28 12L27 12L27 14L20 14L20 13L23 13L23 12L24 12L24 13L25 13L25 10L24 10L24 11L23 11L23 12L22 12L22 10L18 10L18 12L15 12L15 13L14 13L14 14L12 14L12 15L11 15L11 16L10 16L10 18L8 18L8 19L11 19L11 20L13 20L13 21L14 21L14 20L15 20L15 21L19 21L19 22L17 22L17 24L16 24L16 25L17 25L17 28L16 28L16 29L19 29L19 30L15 30L15 29L14 29L14 28L13 28L13 29L10 29L10 30L13 30L13 29L14 29L14 30L15 30L15 31L16 31L16 33L15 33L15 34L16 34L16 35L17 35L17 34L16 34L16 33L19 33L19 34L20 34L20 33L21 33L21 34L23 34L23 33L21 33L21 32L19 32L19 30L20 30L20 31L22 31L22 32L23 32L23 31L24 31L24 34L26 34L26 33L27 33L27 34L28 34L28 36L27 36L27 37L28 37L28 36L29 36L29 34L31 34L31 35L30 35L30 36L31 36L31 35L32 35L32 36L33 36L33 37L30 37L30 38L34 38L34 35L35 35L35 36L36 36L36 35L35 35L35 34L33 34L33 33L35 33L35 32L36 32L36 34L38 34L38 32L39 32L39 31L35 31L35 30L34 30L34 28L33 28L33 27L35 27L35 26L33 26L33 27L30 27L30 26L31 26L31 25L32 25L32 24L33 24L33 23L32 23L32 24L31 24L31 21L29 21L29 22L30 22L30 24L31 24L31 25L28 25L28 26L26 26L26 25L27 25L27 24L29 24L29 23L28 23L28 20L29 20L29 19L30 19L30 20L33 20L33 19L35 19L35 18L37 18L37 17L35 17L35 16L33 16L33 15L30 15L30 14L29 14L29 13L28 13L28 12L29 12L29 11L28 11L28 10L29 10L29 9ZM19 11L19 12L21 12L21 11ZM39 12L39 14L37 14L37 13L36 13L36 14L34 14L34 15L40 15L40 16L41 16L41 15L40 15L40 12ZM16 13L16 14L14 14L14 15L15 15L15 16L11 16L11 18L12 18L12 17L13 17L13 18L15 18L15 17L16 17L16 19L15 19L15 20L17 20L17 19L18 19L18 18L22 18L22 16L23 16L23 17L24 17L24 18L23 18L23 19L19 19L19 20L23 20L23 19L24 19L24 18L25 18L25 17L24 17L24 16L23 16L23 15L22 15L22 16L21 16L21 15L19 15L19 17L18 17L18 16L17 16L17 17L16 17L16 14L17 14L17 15L18 15L18 14L19 14L19 13ZM27 14L27 16L26 16L26 15L25 15L25 16L26 16L26 18L28 18L28 19L26 19L26 20L25 20L25 22L27 22L27 21L26 21L26 20L28 20L28 19L29 19L29 18L30 18L30 19L32 19L32 18L33 18L33 16L32 16L32 18L30 18L30 17L31 17L31 16L30 16L30 15L29 15L29 14ZM28 15L28 16L29 16L29 15ZM20 16L20 17L21 17L21 16ZM17 17L17 18L18 18L18 17ZM34 17L34 18L35 18L35 17ZM6 18L6 19L7 19L7 18ZM2 19L2 20L3 20L3 19ZM5 21L5 24L8 24L8 21ZM21 21L21 24L24 24L24 21ZM33 21L33 22L34 22L34 21ZM37 21L37 24L40 24L40 21ZM41 21L41 24L42 24L42 21ZM6 22L6 23L7 23L7 22ZM22 22L22 23L23 23L23 22ZM38 22L38 23L39 23L39 22ZM19 23L19 24L20 24L20 23ZM25 23L25 25L26 25L26 24L27 24L27 23ZM17 24L17 25L18 25L18 26L19 26L19 27L18 27L18 28L19 28L19 29L20 29L20 30L21 30L21 29L23 29L23 28L21 28L21 25L20 25L20 26L19 26L19 25L18 25L18 24ZM37 25L37 27L39 27L39 25ZM2 26L2 27L3 27L3 26ZM22 26L22 27L25 27L25 29L24 29L24 31L25 31L25 30L27 30L27 29L26 29L26 28L28 28L28 31L29 31L29 29L31 29L31 30L32 30L32 29L33 29L33 28L30 28L30 27L29 27L29 26L28 26L28 27L26 27L26 26ZM0 27L0 28L1 28L1 27ZM28 27L28 28L29 28L29 27ZM20 28L20 29L21 29L21 28ZM39 29L39 30L40 30L40 29ZM44 29L44 30L45 30L45 29ZM2 30L2 31L3 31L3 30ZM22 30L22 31L23 31L23 30ZM33 30L33 31L34 31L34 32L35 32L35 31L34 31L34 30ZM11 31L11 32L12 32L12 33L10 33L10 34L12 34L12 33L13 33L13 32L14 32L14 31ZM6 32L6 33L8 33L8 32ZM27 32L27 33L29 33L29 32ZM30 32L30 33L31 33L31 34L32 34L32 33L33 33L33 32L32 32L32 33L31 33L31 32ZM6 36L6 37L7 37L7 36ZM14 36L14 37L13 37L13 38L14 38L14 37L15 37L15 41L13 41L13 42L15 42L15 41L16 41L16 42L17 42L17 41L18 41L18 43L19 43L19 44L20 44L20 43L21 43L21 42L23 42L23 41L21 41L21 42L20 42L20 39L19 39L19 41L18 41L18 39L17 39L17 38L19 38L19 37L15 37L15 36ZM21 37L21 40L24 40L24 37ZM37 37L37 40L40 40L40 37ZM42 37L42 38L43 38L43 37ZM22 38L22 39L23 39L23 38ZM38 38L38 39L39 39L39 38ZM13 39L13 40L14 40L14 39ZM32 39L32 40L34 40L34 41L35 41L35 42L36 42L36 43L37 43L37 42L36 42L36 41L35 41L35 40L34 40L34 39ZM16 40L16 41L17 41L17 40ZM28 40L28 41L29 41L29 40ZM11 41L11 42L10 42L10 43L9 43L9 44L10 44L10 43L11 43L11 42L12 42L12 41ZM25 41L25 42L26 42L26 41ZM32 41L32 42L33 42L33 41ZM15 43L15 44L17 44L17 43ZM0 0L0 7L7 7L7 0ZM1 1L1 6L6 6L6 1ZM2 2L2 5L5 5L5 2ZM38 0L38 7L45 7L45 0ZM39 1L39 6L44 6L44 1ZM40 2L40 5L43 5L43 2ZM0 38L0 45L7 45L7 38ZM1 39L1 44L6 44L6 39ZM2 40L2 43L5 43L5 40Z" fill="#000000"/></g></g></svg>
