<?xml version="1.0" encoding="UTF-8"?>
<svg xmlns="http://www.w3.org/2000/svg" version="1.1" width="100" height="100" viewBox="0 0 100 100"><rect x="0" y="0" width="100" height="100" fill="#ffffff"/><g transform="scale(2.222)"><g transform="translate(0,0)"><path fill-rule="evenodd" d="M11 0L11 1L12 1L12 0ZM15 0L15 1L13 1L13 2L12 2L12 3L11 3L11 5L12 5L12 4L14 4L14 7L13 7L13 6L12 6L12 7L11 7L11 6L10 6L10 5L9 5L9 4L10 4L10 3L8 3L8 5L9 5L9 6L8 6L8 7L9 7L9 6L10 6L10 7L11 7L11 8L9 8L9 10L8 10L8 8L5 8L5 9L4 9L4 10L3 10L3 9L2 9L2 8L0 8L0 11L1 11L1 12L0 12L0 13L1 13L1 14L2 14L2 13L3 13L3 14L5 14L5 15L3 15L3 16L2 16L2 17L0 17L0 18L1 18L1 20L0 20L0 21L2 21L2 22L1 22L1 23L0 23L0 25L1 25L1 24L2 24L2 26L3 26L3 25L5 25L5 26L4 26L4 28L5 28L5 26L6 26L6 27L7 27L7 28L6 28L6 29L8 29L8 30L10 30L10 34L9 34L9 31L8 31L8 34L6 34L6 33L7 33L7 32L5 32L5 30L4 30L4 29L3 29L3 27L2 27L2 31L0 31L0 32L1 32L1 33L2 33L2 32L3 32L3 31L4 31L4 33L5 33L5 34L4 34L4 35L1 35L1 36L0 36L0 37L1 37L1 36L3 36L3 37L5 37L5 34L6 34L6 35L7 35L7 36L6 36L6 37L8 37L8 40L9 40L9 43L8 43L8 45L10 45L10 44L11 44L11 42L10 42L10 41L12 41L12 44L15 44L15 45L20 45L20 44L22 44L22 45L23 45L23 44L24 44L24 45L28 45L28 44L29 44L29 45L31 45L31 44L33 44L33 45L34 45L34 41L35 41L35 44L36 44L36 45L37 45L37 44L38 44L38 45L39 45L39 44L38 44L38 43L40 43L40 44L41 44L41 45L42 45L42 44L43 44L43 45L44 45L44 44L43 44L43 43L44 43L44 41L45 41L45 39L44 39L44 38L45 38L45 36L44 36L44 38L43 38L43 37L42 37L42 38L43 38L43 39L42 39L42 40L41 40L41 36L40 36L40 34L41 34L41 33L42 33L42 34L44 34L44 33L42 33L42 32L44 32L44 31L45 31L45 29L44 29L44 30L43 30L43 29L42 29L42 28L43 28L43 26L45 26L45 24L43 24L43 23L44 23L44 22L45 22L45 21L42 21L42 20L43 20L43 19L45 19L45 17L43 17L43 18L41 18L41 17L42 17L42 16L43 16L43 15L44 15L44 16L45 16L45 15L44 15L44 14L43 14L43 13L45 13L45 12L43 12L43 10L44 10L44 9L43 9L43 10L41 10L41 9L42 9L42 8L40 8L40 10L39 10L39 9L38 9L38 10L37 10L37 9L35 9L35 6L34 6L34 5L37 5L37 3L36 3L36 1L37 1L37 0L36 0L36 1L35 1L35 4L34 4L34 5L33 5L33 6L32 6L32 4L33 4L33 3L34 3L34 2L31 2L31 3L30 3L30 5L29 5L29 6L28 6L28 8L29 8L29 9L30 9L30 10L29 10L29 11L28 11L28 10L27 10L27 9L26 9L26 7L27 7L27 5L28 5L28 4L29 4L29 2L30 2L30 1L34 1L34 0L29 0L29 1L28 1L28 0L26 0L26 2L28 2L28 4L27 4L27 3L26 3L26 4L27 4L27 5L25 5L25 4L22 4L22 2L23 2L23 3L25 3L25 1L24 1L24 0L19 0L19 1L17 1L17 0ZM9 1L9 2L10 2L10 1ZM15 1L15 2L14 2L14 3L15 3L15 7L14 7L14 8L13 8L13 7L12 7L12 8L13 8L13 9L11 9L11 10L9 10L9 11L6 11L6 10L7 10L7 9L5 9L5 10L4 10L4 12L3 12L3 13L5 13L5 14L8 14L8 15L6 15L6 16L8 16L8 15L9 15L9 14L10 14L10 16L9 16L9 17L5 17L5 16L3 16L3 17L5 17L5 18L4 18L4 19L3 19L3 18L2 18L2 19L3 19L3 20L4 20L4 19L5 19L5 20L8 20L8 19L9 19L9 17L10 17L10 20L11 20L11 21L9 21L9 23L11 23L11 24L10 24L10 25L9 25L9 26L7 26L7 25L6 25L6 26L7 26L7 27L9 27L9 28L8 28L8 29L9 29L9 28L10 28L10 29L13 29L13 30L12 30L12 31L13 31L13 30L14 30L14 29L16 29L16 31L17 31L17 32L21 32L21 36L22 36L22 35L25 35L25 38L27 38L27 37L26 37L26 36L27 36L27 35L28 35L28 34L29 34L29 36L30 36L30 37L28 37L28 38L30 38L30 39L31 39L31 42L30 42L30 43L31 43L31 42L32 42L32 41L34 41L34 38L36 38L36 37L33 37L33 38L32 38L32 37L31 37L31 36L32 36L32 35L31 35L31 34L33 34L33 32L35 32L35 35L33 35L33 36L35 36L35 35L36 35L36 36L37 36L37 35L39 35L39 34L40 34L40 32L42 32L42 29L40 29L40 27L41 27L41 28L42 28L42 27L41 27L41 25L43 25L43 24L42 24L42 21L41 21L41 25L37 25L37 27L38 27L38 28L37 28L37 29L38 29L38 30L39 30L39 31L40 31L40 32L38 32L38 33L39 33L39 34L36 34L36 32L35 32L35 29L36 29L36 28L34 28L34 29L33 29L33 25L32 25L32 23L34 23L34 21L35 21L35 17L37 17L37 18L36 18L36 20L39 20L39 18L40 18L40 17L41 17L41 16L42 16L42 15L43 15L43 14L42 14L42 12L41 12L41 13L37 13L37 12L39 12L39 11L37 11L37 10L36 10L36 11L37 11L37 12L35 12L35 11L34 11L34 10L33 10L33 11L34 11L34 13L31 13L31 14L30 14L30 13L29 13L29 14L28 14L28 13L23 13L23 11L24 11L24 10L25 10L25 12L27 12L27 11L26 11L26 10L25 10L25 9L24 9L24 10L23 10L23 9L22 9L22 11L19 11L19 12L22 12L22 14L27 14L27 15L25 15L25 16L26 16L26 18L25 18L25 17L24 17L24 16L23 16L23 17L24 17L24 18L25 18L25 19L26 19L26 20L25 20L25 22L26 22L26 20L27 20L27 17L28 17L28 18L29 18L29 20L28 20L28 21L27 21L27 22L28 22L28 23L25 23L25 24L26 24L26 26L22 26L22 25L20 25L20 24L19 24L19 23L20 23L20 20L21 20L21 17L22 17L22 15L21 15L21 17L20 17L20 15L18 15L18 16L19 16L19 17L16 17L16 16L17 16L17 15L16 15L16 14L19 14L19 13L18 13L18 10L20 10L20 9L18 9L18 8L20 8L20 4L21 4L21 2L20 2L20 1L19 1L19 2L20 2L20 4L19 4L19 7L18 7L18 5L17 5L17 4L16 4L16 3L18 3L18 2L16 2L16 1ZM15 2L15 3L16 3L16 2ZM31 3L31 4L32 4L32 3ZM21 5L21 8L24 8L24 5ZM30 5L30 6L29 6L29 8L30 8L30 6L31 6L31 7L32 7L32 6L31 6L31 5ZM16 6L16 7L17 7L17 8L18 8L18 7L17 7L17 6ZM22 6L22 7L23 7L23 6ZM25 6L25 7L26 7L26 6ZM33 6L33 7L34 7L34 6ZM36 6L36 7L37 7L37 6ZM15 8L15 10L14 10L14 9L13 9L13 12L12 12L12 10L11 10L11 11L9 11L9 13L13 13L13 12L14 12L14 15L13 15L13 14L12 14L12 15L11 15L11 16L16 16L16 15L15 15L15 13L16 13L16 12L17 12L17 11L16 11L16 10L18 10L18 9L16 9L16 8ZM31 8L31 10L30 10L30 11L29 11L29 12L30 12L30 11L32 11L32 9L34 9L34 8ZM1 10L1 11L2 11L2 10ZM40 10L40 11L41 11L41 10ZM15 11L15 12L16 12L16 11ZM1 12L1 13L2 13L2 12ZM6 12L6 13L7 13L7 12ZM20 13L20 14L21 14L21 13ZM36 13L36 14L34 14L34 15L33 15L33 17L35 17L35 15L38 15L38 16L39 16L39 17L40 17L40 14L37 14L37 13ZM29 14L29 15L30 15L30 16L31 16L31 17L30 17L30 18L31 18L31 19L30 19L30 20L34 20L34 18L33 18L33 19L32 19L32 15L30 15L30 14ZM27 15L27 16L28 16L28 15ZM11 17L11 20L12 20L12 19L13 19L13 21L14 21L14 20L15 20L15 22L13 22L13 23L12 23L12 22L11 22L11 23L12 23L12 26L11 26L11 27L12 27L12 28L13 28L13 29L14 29L14 28L13 28L13 27L16 27L16 29L19 29L19 30L18 30L18 31L20 31L20 29L21 29L21 27L22 27L22 26L21 26L21 27L20 27L20 29L19 29L19 28L18 28L18 27L19 27L19 26L20 26L20 25L19 25L19 24L17 24L17 27L16 27L16 26L13 26L13 23L14 23L14 24L16 24L16 22L17 22L17 21L19 21L19 18L15 18L15 19L13 19L13 17ZM5 18L5 19L8 19L8 18ZM22 18L22 20L23 20L23 18ZM16 19L16 20L17 20L17 19ZM41 19L41 20L42 20L42 19ZM5 21L5 24L8 24L8 21ZM21 21L21 24L24 24L24 21ZM28 21L28 22L30 22L30 24L29 24L29 23L28 23L28 25L27 25L27 26L26 26L26 29L28 29L28 26L29 26L29 27L30 27L30 28L32 28L32 27L30 27L30 26L31 26L31 25L30 25L30 24L31 24L31 23L32 23L32 22L33 22L33 21ZM37 21L37 24L40 24L40 21ZM6 22L6 23L7 23L7 22ZM18 22L18 23L19 23L19 22ZM22 22L22 23L23 23L23 22ZM35 22L35 24L34 24L34 26L35 26L35 27L36 27L36 26L35 26L35 25L36 25L36 22ZM38 22L38 23L39 23L39 22ZM2 23L2 24L3 24L3 23ZM18 25L18 26L19 26L19 25ZM9 26L9 27L10 27L10 26ZM39 26L39 27L40 27L40 26ZM0 27L0 28L1 28L1 27ZM23 27L23 29L22 29L22 30L21 30L21 32L23 32L23 30L24 30L24 29L25 29L25 27ZM44 27L44 28L45 28L45 27ZM0 29L0 30L1 30L1 29ZM29 29L29 30L27 30L27 31L24 31L24 34L27 34L27 31L28 31L28 32L29 32L29 34L31 34L31 33L32 33L32 32L33 32L33 31L31 31L31 29ZM32 29L32 30L33 30L33 29ZM6 30L6 31L7 31L7 30ZM29 30L29 31L30 31L30 30ZM36 30L36 31L37 31L37 30ZM14 31L14 32L13 32L13 33L12 33L12 32L11 32L11 33L12 33L12 34L10 34L10 36L11 36L11 37L10 37L10 38L11 38L11 39L10 39L10 40L12 40L12 38L11 38L11 37L12 37L12 36L13 36L13 38L14 38L14 36L13 36L13 33L15 33L15 34L14 34L14 35L15 35L15 36L16 36L16 38L15 38L15 39L13 39L13 40L15 40L15 41L13 41L13 43L15 43L15 42L16 42L16 44L17 44L17 43L19 43L19 44L20 44L20 43L19 43L19 42L20 42L20 39L19 39L19 41L18 41L18 40L17 40L17 41L16 41L16 40L15 40L15 39L17 39L17 38L19 38L19 37L20 37L20 34L19 34L19 33L17 33L17 35L16 35L16 32L15 32L15 31ZM30 32L30 33L31 33L31 32ZM18 34L18 35L17 35L17 36L18 36L18 37L19 37L19 34ZM11 35L11 36L12 36L12 35ZM30 35L30 36L31 36L31 35ZM42 35L42 36L43 36L43 35ZM8 36L8 37L9 37L9 36ZM21 37L21 40L24 40L24 37ZM30 37L30 38L31 38L31 37ZM37 37L37 40L40 40L40 37ZM22 38L22 39L23 39L23 38ZM38 38L38 39L39 39L39 38ZM25 39L25 41L24 41L24 42L23 42L23 41L22 41L22 43L24 43L24 44L25 44L25 43L24 43L24 42L25 42L25 41L26 41L26 44L27 44L27 42L28 42L28 41L29 41L29 39L27 39L27 40L26 40L26 39ZM35 39L35 41L36 41L36 42L37 42L37 41L36 41L36 39ZM27 40L27 41L28 41L28 40ZM42 40L42 41L41 41L41 42L42 42L42 41L44 41L44 40ZM17 41L17 42L18 42L18 41ZM38 41L38 42L39 42L39 41ZM36 43L36 44L37 44L37 43ZM41 43L41 44L42 44L42 43ZM0 0L0 7L7 7L7 0ZM1 1L1 6L6 6L6 1ZM2 2L2 5L5 5L5 2ZM38 0L38 7L45 7L45 0ZM39 1L39 6L44 6L44 1ZM40 2L40 5L43 5L43 2ZM0 38L0 45L7 45L7 38ZM1 39L1 44L6 44L6 39ZM2 40L2 43L5 43L5 40Z" fill="#000000"/></g></g></svg>
