<?xml version="1.0" encoding="UTF-8"?>
<svg xmlns="http://www.w3.org/2000/svg" version="1.1" width="100" height="100" viewBox="0 0 100 100"><rect x="0" y="0" width="100" height="100" fill="#ffffff"/><g transform="scale(2.041)"><g transform="translate(0,0)"><path fill-rule="evenodd" d="M9 0L9 1L8 1L8 2L10 2L10 3L8 3L8 4L10 4L10 3L11 3L11 5L10 5L10 7L9 7L9 5L8 5L8 7L9 7L9 8L6 8L6 9L5 9L5 8L0 8L0 9L3 9L3 10L6 10L6 11L3 11L3 12L1 12L1 13L0 13L0 15L1 15L1 16L2 16L2 17L3 17L3 18L2 18L2 19L1 19L1 17L0 17L0 19L1 19L1 20L2 20L2 21L0 21L0 24L1 24L1 22L2 22L2 21L3 21L3 23L4 23L4 24L2 24L2 25L1 25L1 26L2 26L2 28L1 28L1 27L0 27L0 32L1 32L1 34L2 34L2 36L3 36L3 34L4 34L4 36L6 36L6 37L5 37L5 39L8 39L8 37L9 37L9 40L8 40L8 43L9 43L9 44L8 44L8 49L9 49L9 47L10 47L10 48L11 48L11 49L12 49L12 48L16 48L16 49L17 49L17 48L16 48L16 47L13 47L13 45L15 45L15 46L16 46L16 45L15 45L15 42L16 42L16 41L17 41L17 43L18 43L18 42L19 42L19 45L18 45L18 44L17 44L17 45L18 45L18 46L19 46L19 47L18 47L18 49L19 49L19 47L20 47L20 46L19 46L19 45L20 45L20 44L21 44L21 43L22 43L22 45L21 45L21 46L22 46L22 48L23 48L23 49L28 49L28 48L30 48L30 49L31 49L31 48L33 48L33 49L34 49L34 48L33 48L33 47L29 47L29 45L27 45L27 44L30 44L30 46L31 46L31 45L32 45L32 46L33 46L33 45L32 45L32 44L34 44L34 43L35 43L35 46L34 46L34 47L35 47L35 48L36 48L36 49L37 49L37 48L38 48L38 47L40 47L40 46L41 46L41 45L42 45L42 46L45 46L45 47L42 47L42 48L43 48L43 49L44 49L44 48L46 48L46 49L49 49L49 47L48 47L48 48L46 48L46 45L47 45L47 44L46 44L46 43L47 43L47 42L48 42L48 44L49 44L49 42L48 42L48 41L49 41L49 38L48 38L48 37L49 37L49 36L46 36L46 35L47 35L47 34L48 34L48 35L49 35L49 34L48 34L48 33L49 33L49 30L48 30L48 29L49 29L49 26L48 26L48 25L49 25L49 22L48 22L48 21L49 21L49 18L48 18L48 17L49 17L49 14L48 14L48 13L49 13L49 10L48 10L48 8L47 8L47 10L46 10L46 8L45 8L45 9L44 9L44 8L43 8L43 9L42 9L42 8L41 8L41 6L40 6L40 9L39 9L39 10L36 10L36 9L37 9L37 8L35 8L35 5L33 5L33 4L32 4L32 3L31 3L31 2L30 2L30 4L28 4L28 3L29 3L29 2L28 2L28 3L26 3L26 4L25 4L25 2L27 2L27 1L25 1L25 2L24 2L24 1L22 1L22 2L21 2L21 1L20 1L20 0L19 0L19 1L18 1L18 2L17 2L17 3L18 3L18 4L16 4L16 0L13 0L13 1L12 1L12 0ZM28 0L28 1L32 1L32 2L35 2L35 3L34 3L34 4L37 4L37 5L36 5L36 7L37 7L37 5L38 5L38 7L39 7L39 5L38 5L38 3L36 3L36 2L37 2L37 1L38 1L38 2L39 2L39 4L40 4L40 3L41 3L41 0L40 0L40 1L38 1L38 0L37 0L37 1L36 1L36 2L35 2L35 1L33 1L33 0ZM13 1L13 2L14 2L14 3L12 3L12 4L14 4L14 5L13 5L13 7L12 7L12 5L11 5L11 7L12 7L12 9L11 9L11 8L9 8L9 9L6 9L6 10L9 10L9 9L10 9L10 11L13 11L13 12L14 12L14 11L13 11L13 10L12 10L12 9L16 9L16 12L15 12L15 13L11 13L11 12L9 12L9 13L8 13L8 12L7 12L7 11L6 11L6 12L5 12L5 13L4 13L4 14L3 14L3 15L4 15L4 16L3 16L3 17L4 17L4 16L5 16L5 17L6 17L6 18L5 18L5 19L6 19L6 20L7 20L7 21L6 21L6 22L7 22L7 21L8 21L8 20L9 20L9 22L10 22L10 21L11 21L11 23L10 23L10 24L12 24L12 21L14 21L14 24L13 24L13 25L16 25L16 28L15 28L15 29L13 29L13 28L14 28L14 27L12 27L12 25L10 25L10 27L9 27L9 28L7 28L7 27L6 27L6 28L7 28L7 29L6 29L6 30L5 30L5 27L4 27L4 25L3 25L3 28L4 28L4 29L3 29L3 30L4 30L4 31L3 31L3 32L2 32L2 33L4 33L4 31L5 31L5 33L6 33L6 34L7 34L7 35L6 35L6 36L7 36L7 37L6 37L6 38L7 38L7 37L8 37L8 36L7 36L7 35L9 35L9 33L8 33L8 34L7 34L7 33L6 33L6 32L8 32L8 31L10 31L10 29L11 29L11 30L12 30L12 29L13 29L13 31L12 31L12 32L10 32L10 33L12 33L12 34L11 34L11 37L12 37L12 38L10 38L10 39L12 39L12 41L11 41L11 42L12 42L12 41L16 41L16 39L15 39L15 38L16 38L16 37L18 37L18 36L17 36L17 35L18 35L18 33L16 33L16 32L18 32L18 29L19 29L19 30L20 30L20 31L19 31L19 33L20 33L20 34L19 34L19 35L20 35L20 34L21 34L21 33L20 33L20 32L21 32L21 27L20 27L20 29L19 29L19 26L18 26L18 27L17 27L17 25L16 25L16 23L15 23L15 22L16 22L16 21L18 21L18 20L17 20L17 19L18 19L18 18L21 18L21 19L22 19L22 20L25 20L25 19L24 19L24 16L25 16L25 17L26 17L26 20L28 20L28 21L26 21L26 22L27 22L27 27L29 27L29 28L26 28L26 27L24 27L24 29L23 29L23 27L22 27L22 30L24 30L24 31L22 31L22 32L23 32L23 33L22 33L22 35L21 35L21 36L19 36L19 37L21 37L21 36L24 36L24 37L23 37L23 39L22 39L22 38L21 38L21 41L20 41L20 40L19 40L19 41L20 41L20 42L22 42L22 40L23 40L23 39L25 39L25 40L26 40L26 39L27 39L27 41L28 41L28 42L30 42L30 44L32 44L32 43L34 43L34 42L35 42L35 43L36 43L36 44L37 44L37 45L38 45L38 46L35 46L35 47L36 47L36 48L37 48L37 47L38 47L38 46L40 46L40 42L39 42L39 41L37 41L37 42L39 42L39 43L36 43L36 40L40 40L40 39L42 39L42 40L43 40L43 39L42 39L42 38L41 38L41 35L39 35L39 36L40 36L40 39L37 39L37 38L36 38L36 36L37 36L37 37L38 37L38 38L39 38L39 37L38 37L38 36L37 36L37 35L36 35L36 36L35 36L35 35L34 35L34 36L32 36L32 34L35 34L35 33L36 33L36 32L37 32L37 34L40 34L40 33L38 33L38 32L40 32L40 31L42 31L42 32L41 32L41 34L43 34L43 35L42 35L42 36L45 36L45 37L43 37L43 38L44 38L44 40L45 40L45 42L47 42L47 41L46 41L46 40L47 40L47 39L48 39L48 38L47 38L47 37L46 37L46 36L45 36L45 35L44 35L44 34L45 34L45 33L46 33L46 34L47 34L47 33L48 33L48 30L47 30L47 31L46 31L46 32L45 32L45 33L42 33L42 32L44 32L44 31L45 31L45 30L46 30L46 28L47 28L47 27L48 27L48 26L47 26L47 25L48 25L48 22L47 22L47 21L46 21L46 20L48 20L48 18L47 18L47 17L48 17L48 14L47 14L47 13L48 13L48 10L47 10L47 11L46 11L46 12L43 12L43 14L42 14L42 13L40 13L40 14L42 14L42 15L38 15L38 14L39 14L39 13L38 13L38 12L39 12L39 11L36 11L36 12L35 12L35 11L33 11L33 10L35 10L35 8L34 8L34 6L33 6L33 8L32 8L32 6L31 6L31 5L28 5L28 6L27 6L27 7L28 7L28 6L29 6L29 8L27 8L27 9L25 9L25 10L27 10L27 12L26 12L26 11L23 11L23 10L24 10L24 9L21 9L21 8L20 8L20 10L19 10L19 9L16 9L16 6L15 6L15 5L16 5L16 4L15 4L15 1ZM19 1L19 2L20 2L20 3L19 3L19 4L23 4L23 3L24 3L24 2L22 2L22 3L21 3L21 2L20 2L20 1ZM17 5L17 7L18 7L18 6L19 6L19 7L20 7L20 5ZM21 5L21 7L22 7L22 5ZM23 5L23 8L26 8L26 5ZM14 6L14 7L15 7L15 6ZM24 6L24 7L25 7L25 6ZM30 6L30 8L29 8L29 9L30 9L30 10L29 10L29 11L28 11L28 12L27 12L27 14L26 14L26 13L25 13L25 12L21 12L21 14L22 14L22 13L23 13L23 16L24 16L24 15L25 15L25 16L26 16L26 15L28 15L28 16L27 16L27 17L28 17L28 18L27 18L27 19L28 19L28 20L29 20L29 22L28 22L28 24L29 24L29 25L28 25L28 26L29 26L29 27L30 27L30 28L29 28L29 29L28 29L28 32L29 32L29 30L31 30L31 31L30 31L30 33L28 33L28 34L27 34L27 33L26 33L26 32L27 32L27 31L26 31L26 30L25 30L25 29L24 29L24 30L25 30L25 31L24 31L24 32L25 32L25 33L23 33L23 35L24 35L24 36L29 36L29 37L28 37L28 38L27 38L27 39L28 39L28 40L29 40L29 41L30 41L30 42L31 42L31 43L32 43L32 40L33 40L33 39L35 39L35 40L36 40L36 39L35 39L35 38L33 38L33 37L32 37L32 36L29 36L29 35L30 35L30 34L31 34L31 33L32 33L32 32L33 32L33 31L35 31L35 32L34 32L34 33L35 33L35 32L36 32L36 31L37 31L37 28L36 28L36 27L39 27L39 26L36 26L36 25L37 25L37 24L38 24L38 25L39 25L39 24L38 24L38 23L39 23L39 22L38 22L38 21L39 21L39 20L36 20L36 19L41 19L41 20L40 20L40 21L41 21L41 22L40 22L40 27L45 27L45 28L42 28L42 29L45 29L45 28L46 28L46 27L45 27L45 26L46 26L46 25L47 25L47 24L46 24L46 23L47 23L47 22L46 22L46 21L45 21L45 22L43 22L43 20L46 20L46 17L47 17L47 16L46 16L46 14L45 14L45 15L42 15L42 16L46 16L46 17L45 17L45 19L43 19L43 17L41 17L41 16L40 16L40 17L39 17L39 18L37 18L37 16L34 16L34 15L35 15L35 14L33 14L33 13L32 13L32 12L33 12L33 11L32 11L32 10L33 10L33 9L34 9L34 8L33 8L33 9L32 9L32 8L31 8L31 6ZM30 8L30 9L31 9L31 8ZM27 9L27 10L28 10L28 9ZM40 9L40 12L42 12L42 10L41 10L41 9ZM43 9L43 11L45 11L45 10L44 10L44 9ZM17 10L17 11L18 11L18 10ZM21 10L21 11L22 11L22 10ZM30 10L30 11L31 11L31 12L30 12L30 13L31 13L31 14L29 14L29 12L28 12L28 15L33 15L33 14L32 14L32 13L31 13L31 12L32 12L32 11L31 11L31 10ZM6 12L6 13L5 13L5 14L4 14L4 15L5 15L5 16L6 16L6 17L8 17L8 15L7 15L7 14L8 14L8 13L7 13L7 12ZM17 12L17 13L18 13L18 15L17 15L17 16L16 16L16 15L15 15L15 16L16 16L16 17L12 17L12 18L10 18L10 19L9 19L9 20L11 20L11 21L12 21L12 20L14 20L14 19L13 19L13 18L15 18L15 19L16 19L16 17L17 17L17 16L18 16L18 17L19 17L19 15L20 15L20 14L19 14L19 13L20 13L20 12L19 12L19 13L18 13L18 12ZM36 12L36 13L37 13L37 14L36 14L36 15L37 15L37 14L38 14L38 13L37 13L37 12ZM46 12L46 13L47 13L47 12ZM6 13L6 14L5 14L5 15L6 15L6 16L7 16L7 15L6 15L6 14L7 14L7 13ZM9 13L9 14L10 14L10 13ZM15 13L15 14L16 14L16 13ZM11 14L11 16L12 16L12 14ZM9 15L9 16L10 16L10 15ZM20 16L20 17L22 17L22 19L23 19L23 17L22 17L22 16ZM28 16L28 17L30 17L30 16ZM32 16L32 17L31 17L31 18L28 18L28 19L30 19L30 20L31 20L31 18L32 18L32 19L34 19L34 20L35 20L35 21L34 21L34 22L35 22L35 23L34 23L34 24L30 24L30 25L29 25L29 26L30 26L30 27L31 27L31 28L32 28L32 31L31 31L31 32L32 32L32 31L33 31L33 30L35 30L35 31L36 31L36 28L35 28L35 29L33 29L33 28L34 28L34 26L35 26L35 27L36 27L36 26L35 26L35 25L36 25L36 24L37 24L37 23L38 23L38 22L37 22L37 23L36 23L36 22L35 22L35 21L36 21L36 20L35 20L35 19L36 19L36 17L34 17L34 16ZM33 17L33 18L34 18L34 19L35 19L35 18L34 18L34 17ZM40 17L40 18L41 18L41 17ZM6 18L6 19L7 19L7 20L8 20L8 19L7 19L7 18ZM11 19L11 20L12 20L12 19ZM15 20L15 21L16 21L16 20ZM19 20L19 21L21 21L21 20ZM32 20L32 22L29 22L29 23L32 23L32 22L33 22L33 20ZM41 20L41 21L42 21L42 20ZM4 21L4 22L5 22L5 21ZM22 21L22 22L21 22L21 24L22 24L22 22L23 22L23 21ZM17 22L17 24L18 24L18 22ZM19 22L19 23L20 23L20 22ZM45 22L45 23L46 23L46 22ZM5 23L5 26L8 26L8 23ZM23 23L23 26L26 26L26 23ZM35 23L35 24L36 24L36 23ZM41 23L41 26L44 26L44 23ZM6 24L6 25L7 25L7 24ZM19 24L19 25L20 25L20 26L22 26L22 25L20 25L20 24ZM24 24L24 25L25 25L25 24ZM42 24L42 25L43 25L43 24ZM30 25L30 26L32 26L32 28L33 28L33 26L34 26L34 25ZM11 27L11 29L12 29L12 27ZM17 28L17 29L18 29L18 28ZM38 28L38 29L39 29L39 30L38 30L38 31L40 31L40 28ZM1 29L1 31L2 31L2 29ZM7 29L7 30L6 30L6 31L7 31L7 30L8 30L8 29ZM15 29L15 30L16 30L16 29ZM42 30L42 31L43 31L43 30ZM13 31L13 32L12 32L12 33L13 33L13 34L15 34L15 37L16 37L16 35L17 35L17 34L16 34L16 33L13 33L13 32L16 32L16 31ZM25 31L25 32L26 32L26 31ZM46 32L46 33L47 33L47 32ZM25 34L25 35L27 35L27 34ZM28 34L28 35L29 35L29 34ZM0 35L0 36L1 36L1 35ZM13 35L13 36L12 36L12 37L13 37L13 38L14 38L14 37L13 37L13 36L14 36L14 35ZM9 36L9 37L10 37L10 36ZM34 36L34 37L35 37L35 36ZM24 37L24 38L25 38L25 39L26 39L26 37ZM31 37L31 38L28 38L28 39L31 39L31 38L32 38L32 37ZM1 38L1 40L0 40L0 41L3 41L3 40L4 40L4 39L2 39L2 38ZM17 38L17 39L20 39L20 38ZM45 39L45 40L46 40L46 39ZM6 40L6 41L7 41L7 40ZM30 40L30 41L31 41L31 40ZM9 41L9 42L10 42L10 41ZM23 41L23 44L26 44L26 41ZM41 41L41 44L44 44L44 41ZM24 42L24 43L25 43L25 42ZM42 42L42 43L43 43L43 42ZM11 43L11 44L10 44L10 45L9 45L9 46L10 46L10 47L11 47L11 48L12 48L12 47L11 47L11 46L12 46L12 45L11 45L11 44L14 44L14 43ZM45 44L45 45L46 45L46 44ZM10 45L10 46L11 46L11 45ZM22 45L22 46L25 46L25 47L24 47L24 48L28 48L28 46L26 46L26 45ZM20 48L20 49L21 49L21 48ZM39 48L39 49L41 49L41 48ZM0 0L0 7L7 7L7 0ZM1 1L1 6L6 6L6 1ZM2 2L2 5L5 5L5 2ZM42 0L42 7L49 7L49 0ZM43 1L43 6L48 6L48 1ZM44 2L44 5L47 5L47 2ZM0 42L0 49L7 49L7 42ZM1 43L1 48L6 48L6 43ZM2 44L2 47L5 47L5 44Z" fill="#000000"/></g></g></svg>
