<?xml version="1.0" encoding="UTF-8"?>
<svg xmlns="http://www.w3.org/2000/svg" version="1.1" width="100" height="100" viewBox="0 0 100 100"><rect x="0" y="0" width="100" height="100" fill="#ffffff"/><g transform="scale(2.439)"><g transform="translate(0,0)"><path fill-rule="evenodd" d="M8 0L8 1L9 1L9 2L8 2L8 5L9 5L9 6L8 6L8 7L9 7L9 6L10 6L10 7L11 7L11 6L12 6L12 7L13 7L13 6L14 6L14 8L15 8L15 6L14 6L14 5L15 5L15 4L16 4L16 8L17 8L17 9L18 9L18 10L17 10L17 11L16 11L16 12L15 12L15 14L16 14L16 15L15 15L15 16L12 16L12 14L13 14L13 15L14 15L14 14L13 14L13 13L14 13L14 10L15 10L15 9L14 9L14 10L12 10L12 9L11 9L11 8L8 8L8 10L9 10L9 11L7 11L7 10L6 10L6 11L5 11L5 10L4 10L4 8L0 8L0 11L3 11L3 10L4 10L4 11L5 11L5 13L7 13L7 14L5 14L5 15L8 15L8 16L6 16L6 17L5 17L5 16L4 16L4 17L3 17L3 15L4 15L4 14L3 14L3 13L4 13L4 12L3 12L3 13L2 13L2 12L0 12L0 13L1 13L1 14L3 14L3 15L2 15L2 16L1 16L1 15L0 15L0 17L1 17L1 18L0 18L0 19L1 19L1 18L2 18L2 20L0 20L0 21L1 21L1 22L0 22L0 23L1 23L1 22L2 22L2 21L3 21L3 22L4 22L4 23L5 23L5 22L6 22L6 23L7 23L7 24L6 24L6 25L8 25L8 24L9 24L9 23L10 23L10 22L11 22L11 23L13 23L13 25L14 25L14 23L15 23L15 26L16 26L16 25L17 25L17 27L15 27L15 28L14 28L14 29L12 29L12 28L13 28L13 27L12 27L12 28L11 28L11 26L10 26L10 25L9 25L9 26L10 26L10 28L11 28L11 29L10 29L10 30L11 30L11 31L10 31L10 34L9 34L9 32L8 32L8 31L9 31L9 29L8 29L8 28L5 28L5 25L4 25L4 24L3 24L3 25L2 25L2 24L0 24L0 25L2 25L2 27L1 27L1 26L0 26L0 27L1 27L1 28L0 28L0 29L1 29L1 30L0 30L0 31L1 31L1 30L2 30L2 32L1 32L1 33L2 33L2 32L3 32L3 33L5 33L5 31L4 31L4 29L8 29L8 30L6 30L6 31L7 31L7 32L6 32L6 33L7 33L7 32L8 32L8 34L9 34L9 37L8 37L8 41L10 41L10 40L11 40L11 41L16 41L16 39L20 39L20 38L21 38L21 40L20 40L20 41L23 41L23 40L24 40L24 39L25 39L25 38L24 38L24 39L23 39L23 37L22 37L22 38L21 38L21 35L20 35L20 36L19 36L19 33L20 33L20 34L23 34L23 35L24 35L24 37L25 37L25 36L26 36L26 40L25 40L25 41L26 41L26 40L27 40L27 41L28 41L28 40L29 40L29 41L31 41L31 40L32 40L32 41L33 41L33 40L34 40L34 38L33 38L33 37L36 37L36 38L37 38L37 37L38 37L38 38L39 38L39 37L41 37L41 35L39 35L39 34L37 34L37 32L36 32L36 31L38 31L38 33L39 33L39 32L40 32L40 34L41 34L41 32L40 32L40 29L41 29L41 28L40 28L40 27L41 27L41 25L40 25L40 24L41 24L41 23L40 23L40 24L38 24L38 23L39 23L39 22L38 22L38 23L37 23L37 20L34 20L34 19L31 19L31 20L30 20L30 18L29 18L29 20L28 20L28 21L27 21L27 20L25 20L25 17L26 17L26 18L27 18L27 19L28 19L28 18L27 18L27 17L28 17L28 16L29 16L29 15L30 15L30 16L32 16L32 17L33 17L33 18L34 18L34 17L33 17L33 16L34 16L34 15L35 15L35 14L36 14L36 10L37 10L37 9L39 9L39 8L36 8L36 10L35 10L35 9L34 9L34 8L33 8L33 9L32 9L32 8L31 8L31 6L32 6L32 7L33 7L33 2L32 2L32 4L31 4L31 2L30 2L30 1L31 1L31 0L29 0L29 2L28 2L28 4L27 4L27 5L28 5L28 7L27 7L27 6L26 6L26 5L25 5L25 4L26 4L26 2L27 2L27 0L26 0L26 2L25 2L25 1L24 1L24 0L22 0L22 3L20 3L20 2L18 2L18 1L21 1L21 0L18 0L18 1L17 1L17 2L18 2L18 3L17 3L17 4L16 4L16 3L15 3L15 0L14 0L14 1L13 1L13 2L12 2L12 0L10 0L10 1L9 1L9 0ZM32 0L32 1L33 1L33 0ZM10 1L10 2L9 2L9 4L10 4L10 5L12 5L12 6L13 6L13 5L14 5L14 3L11 3L11 4L10 4L10 2L11 2L11 1ZM23 2L23 4L21 4L21 5L20 5L20 6L19 6L19 5L18 5L18 4L17 4L17 7L18 7L18 6L19 6L19 7L20 7L20 9L21 9L21 10L19 10L19 11L17 11L17 12L19 12L19 11L21 11L21 13L25 13L25 14L26 14L26 15L25 15L25 16L24 16L24 14L22 14L22 16L24 16L24 17L25 17L25 16L26 16L26 15L27 15L27 16L28 16L28 15L29 15L29 13L28 13L28 10L27 10L27 11L26 11L26 9L29 9L29 10L30 10L30 11L29 11L29 12L32 12L32 9L30 9L30 8L26 8L26 6L25 6L25 8L23 8L23 7L24 7L24 5L23 5L23 4L24 4L24 3L25 3L25 2ZM29 2L29 3L30 3L30 2ZM19 3L19 4L20 4L20 3ZM12 4L12 5L13 5L13 4ZM28 4L28 5L30 5L30 4ZM21 5L21 6L20 6L20 7L21 7L21 6L22 6L22 7L23 7L23 5ZM29 6L29 7L30 7L30 6ZM6 8L6 9L7 9L7 8ZM21 8L21 9L22 9L22 8ZM40 8L40 10L41 10L41 8ZM1 9L1 10L3 10L3 9ZM9 9L9 10L10 10L10 9ZM23 9L23 10L21 10L21 11L23 11L23 12L24 12L24 11L25 11L25 13L26 13L26 11L25 11L25 10L24 10L24 9ZM33 9L33 12L34 12L34 13L35 13L35 12L34 12L34 11L35 11L35 10L34 10L34 9ZM11 10L11 11L9 11L9 13L8 13L8 14L9 14L9 15L11 15L11 14L9 14L9 13L11 13L11 12L12 12L12 10ZM38 10L38 11L37 11L37 15L36 15L36 17L37 17L37 18L36 18L36 19L37 19L37 18L38 18L38 21L40 21L40 22L41 22L41 19L40 19L40 17L39 17L39 18L38 18L38 16L37 16L37 15L38 15L38 14L40 14L40 15L39 15L39 16L40 16L40 15L41 15L41 13L39 13L39 12L41 12L41 11L39 11L39 10ZM6 11L6 12L7 12L7 11ZM38 11L38 12L39 12L39 11ZM16 13L16 14L17 14L17 15L16 15L16 16L15 16L15 17L16 17L16 16L17 16L17 18L16 18L16 20L15 20L15 21L13 21L13 23L14 23L14 22L15 22L15 23L16 23L16 22L17 22L17 24L18 24L18 27L17 27L17 30L16 30L16 31L17 31L17 30L18 30L18 29L19 29L19 32L20 32L20 33L21 33L21 32L22 32L22 33L24 33L24 34L25 34L25 35L26 35L26 31L27 31L27 30L28 30L28 31L29 31L29 30L31 30L31 31L30 31L30 32L29 32L29 33L27 33L27 35L29 35L29 36L28 36L28 37L27 37L27 40L28 40L28 39L29 39L29 40L31 40L31 39L33 39L33 38L32 38L32 33L31 33L31 36L30 36L30 34L29 34L29 33L30 33L30 32L31 32L31 31L33 31L33 30L31 30L31 29L32 29L32 28L33 28L33 29L34 29L34 32L35 32L35 31L36 31L36 30L38 30L38 31L39 31L39 29L40 29L40 28L39 28L39 27L40 27L40 26L38 26L38 25L37 25L37 24L36 24L36 26L33 26L33 25L32 25L32 24L34 24L34 25L35 25L35 24L34 24L34 23L35 23L35 22L36 22L36 21L35 21L35 22L34 22L34 20L33 20L33 23L32 23L32 21L31 21L31 23L30 23L30 22L29 22L29 23L28 23L28 22L27 22L27 23L26 23L26 25L24 25L24 24L25 24L25 22L26 22L26 21L25 21L25 20L24 20L24 18L23 18L23 19L22 19L22 17L21 17L21 19L20 19L20 16L21 16L21 14L20 14L20 15L19 15L19 16L18 16L18 13ZM27 13L27 14L28 14L28 13ZM32 14L32 16L33 16L33 15L34 15L34 14ZM8 16L8 17L6 17L6 18L8 18L8 17L9 17L9 16ZM11 16L11 17L12 17L12 18L10 18L10 19L9 19L9 22L10 22L10 20L11 20L11 22L12 22L12 20L14 20L14 19L15 19L15 18L14 18L14 17L12 17L12 16ZM2 17L2 18L3 18L3 17ZM17 18L17 22L18 22L18 23L19 23L19 24L21 24L21 23L19 23L19 22L20 22L20 21L21 21L21 22L22 22L22 23L24 23L24 22L23 22L23 21L24 21L24 20L20 20L20 19L18 19L18 18ZM4 19L4 20L3 20L3 21L5 21L5 20L8 20L8 19ZM39 19L39 20L40 20L40 19ZM18 20L18 22L19 22L19 20ZM29 20L29 21L30 21L30 20ZM6 21L6 22L7 22L7 23L8 23L8 22L7 22L7 21ZM27 23L27 25L28 25L28 28L27 28L27 27L26 27L26 28L27 28L27 29L28 29L28 28L29 28L29 29L31 29L31 28L32 28L32 26L30 26L30 27L31 27L31 28L29 28L29 24L28 24L28 23ZM22 24L22 25L23 25L23 24ZM19 25L19 27L18 27L18 28L19 28L19 27L20 27L20 25ZM6 26L6 27L8 27L8 26ZM21 26L21 31L20 31L20 32L21 32L21 31L22 31L22 32L24 32L24 31L26 31L26 29L25 29L25 27L23 27L23 26ZM36 26L36 27L35 27L35 29L38 29L38 28L37 28L37 27L38 27L38 26ZM2 27L2 29L4 29L4 28L3 28L3 27ZM22 27L22 31L24 31L24 29L23 29L23 27ZM33 27L33 28L34 28L34 27ZM15 28L15 29L14 29L14 30L13 30L13 33L15 33L15 34L14 34L14 35L12 35L12 36L11 36L11 35L10 35L10 37L12 37L12 38L11 38L11 40L12 40L12 38L14 38L14 36L15 36L15 37L16 37L16 38L15 38L15 39L16 39L16 38L18 38L18 37L16 37L16 36L18 36L18 35L16 35L16 34L18 34L18 33L17 33L17 32L14 32L14 31L15 31L15 29L16 29L16 28ZM11 29L11 30L12 30L12 29ZM11 31L11 32L12 32L12 31ZM33 33L33 36L36 36L36 33ZM34 34L34 35L35 35L35 34ZM38 35L38 36L39 36L39 35ZM28 37L28 38L29 38L29 39L30 39L30 37ZM9 38L9 40L10 40L10 38ZM13 39L13 40L14 40L14 39ZM22 39L22 40L23 40L23 39ZM39 39L39 41L40 41L40 39ZM18 40L18 41L19 41L19 40ZM35 40L35 41L36 41L36 40ZM37 40L37 41L38 41L38 40ZM0 0L0 7L7 7L7 0ZM1 1L1 6L6 6L6 1ZM2 2L2 5L5 5L5 2ZM34 0L34 7L41 7L41 0ZM35 1L35 6L40 6L40 1ZM36 2L36 5L39 5L39 2ZM0 34L0 41L7 41L7 34ZM1 35L1 40L6 40L6 35ZM2 36L2 39L5 39L5 36Z" fill="#000000"/></g></g></svg>
