<?xml version="1.0" encoding="UTF-8"?>
<svg xmlns="http://www.w3.org/2000/svg" version="1.1" width="100" height="100" viewBox="0 0 100 100"><rect x="0" y="0" width="100" height="100" fill="#ffffff"/><g transform="scale(2.439)"><g transform="translate(0,0)"><path fill-rule="evenodd" d="M9 0L9 1L8 1L8 2L10 2L10 3L11 3L11 4L12 4L12 7L11 7L11 6L10 6L10 7L9 7L9 5L10 5L10 4L9 4L9 3L8 3L8 4L9 4L9 5L8 5L8 7L9 7L9 8L6 8L6 9L5 9L5 8L0 8L0 11L1 11L1 12L0 12L0 13L1 13L1 14L2 14L2 15L0 15L0 16L3 16L3 17L2 17L2 19L1 19L1 18L0 18L0 19L1 19L1 20L0 20L0 21L2 21L2 22L1 22L1 23L0 23L0 27L2 27L2 25L4 25L4 26L6 26L6 27L7 27L7 28L5 28L5 27L3 27L3 28L4 28L4 29L2 29L2 28L0 28L0 33L1 33L1 30L4 30L4 29L5 29L5 31L4 31L4 32L3 32L3 31L2 31L2 33L4 33L4 32L6 32L6 33L7 33L7 32L6 32L6 31L7 31L7 30L6 30L6 29L7 29L7 28L8 28L8 30L9 30L9 28L10 28L10 29L11 29L11 27L10 27L10 26L12 26L12 28L14 28L14 29L19 29L19 30L15 30L15 31L19 31L19 30L20 30L20 32L22 32L22 33L20 33L20 35L19 35L19 33L18 33L18 32L15 32L15 33L14 33L14 32L13 32L13 31L12 31L12 32L13 32L13 33L11 33L11 34L10 34L10 33L8 33L8 35L9 35L9 36L8 36L8 41L9 41L9 40L10 40L10 41L12 41L12 39L13 39L13 38L10 38L10 37L11 37L11 36L12 36L12 37L13 37L13 35L11 35L11 34L13 34L13 33L14 33L14 34L15 34L15 35L14 35L14 36L16 36L16 37L17 37L17 39L16 39L16 38L15 38L15 37L14 37L14 40L13 40L13 41L14 41L14 40L15 40L15 41L16 41L16 40L17 40L17 41L18 41L18 40L17 40L17 39L18 39L18 37L19 37L19 38L20 38L20 37L21 37L21 38L23 38L23 37L21 37L21 36L22 36L22 34L24 34L24 33L25 33L25 35L26 35L26 36L25 36L25 37L26 37L26 36L27 36L27 38L24 38L24 41L27 41L27 39L28 39L28 40L29 40L29 39L32 39L32 38L31 38L31 37L30 37L30 38L29 38L29 37L28 37L28 36L27 36L27 35L28 35L28 34L27 34L27 33L28 33L28 32L29 32L29 31L30 31L30 32L32 32L32 35L31 35L31 36L32 36L32 37L33 37L33 38L34 38L34 39L33 39L33 41L35 41L35 40L34 40L34 39L35 39L35 38L36 38L36 39L39 39L39 40L38 40L38 41L39 41L39 40L40 40L40 39L41 39L41 38L40 38L40 37L41 37L41 36L37 36L37 35L38 35L38 34L37 34L37 33L40 33L40 34L39 34L39 35L40 35L40 34L41 34L41 33L40 33L40 30L41 30L41 28L40 28L40 26L41 26L41 25L40 25L40 22L41 22L41 21L40 21L40 22L39 22L39 24L37 24L37 21L39 21L39 20L41 20L41 19L40 19L40 18L41 18L41 17L40 17L40 14L41 14L41 13L40 13L40 14L39 14L39 16L37 16L37 14L38 14L38 13L39 13L39 12L37 12L37 9L38 9L38 8L37 8L37 9L36 9L36 8L35 8L35 9L34 9L34 8L33 8L33 9L32 9L32 8L31 8L31 9L32 9L32 10L33 10L33 9L34 9L34 10L35 10L35 9L36 9L36 11L35 11L35 13L34 13L34 12L33 12L33 11L30 11L30 10L29 10L29 8L28 8L28 7L29 7L29 6L30 6L30 7L31 7L31 6L30 6L30 4L31 4L31 5L32 5L32 7L33 7L33 5L32 5L32 4L33 4L33 0L32 0L32 2L31 2L31 0L30 0L30 3L28 3L28 1L27 1L27 0L26 0L26 1L27 1L27 3L28 3L28 4L29 4L29 6L28 6L28 5L27 5L27 4L26 4L26 3L25 3L25 2L24 2L24 4L26 4L26 5L27 5L27 6L26 6L26 7L27 7L27 9L26 9L26 8L22 8L22 7L23 7L23 6L22 6L22 7L21 7L21 5L23 5L23 4L21 4L21 3L23 3L23 1L24 1L24 0L22 0L22 2L21 2L21 0L18 0L18 1L20 1L20 2L21 2L21 3L20 3L20 4L19 4L19 2L18 2L18 3L17 3L17 2L16 2L16 1L15 1L15 0L14 0L14 2L15 2L15 3L14 3L14 4L15 4L15 6L14 6L14 7L15 7L15 6L16 6L16 8L15 8L15 9L14 9L14 8L13 8L13 9L14 9L14 11L15 11L15 13L14 13L14 12L13 12L13 13L12 13L12 11L11 11L11 13L12 13L12 14L13 14L13 13L14 13L14 14L15 14L15 17L14 17L14 16L13 16L13 15L12 15L12 16L13 16L13 17L10 17L10 16L11 16L11 15L10 15L10 14L9 14L9 13L10 13L10 12L9 12L9 9L10 9L10 8L12 8L12 7L13 7L13 3L11 3L11 2L13 2L13 1L12 1L12 0L11 0L11 1L10 1L10 0ZM16 3L16 4L17 4L17 3ZM31 3L31 4L32 4L32 3ZM18 4L18 5L16 5L16 6L17 6L17 8L18 8L18 9L15 9L15 10L16 10L16 12L20 12L20 10L18 10L18 9L22 9L22 10L21 10L21 11L22 11L22 12L21 12L21 13L20 13L20 14L19 14L19 13L18 13L18 14L17 14L17 13L15 13L15 14L16 14L16 15L17 15L17 16L18 16L18 15L22 15L22 16L19 16L19 17L22 17L22 18L21 18L21 19L22 19L22 20L21 20L21 21L20 21L20 20L19 20L19 21L18 21L18 23L17 23L17 21L15 21L15 20L18 20L18 19L17 19L17 18L18 18L18 17L15 17L15 18L14 18L14 17L13 17L13 18L11 18L11 19L10 19L10 17L9 17L9 16L8 16L8 18L9 18L9 21L10 21L10 22L13 22L13 23L12 23L12 25L13 25L13 24L14 24L14 25L15 25L15 26L17 26L17 28L19 28L19 29L20 29L20 30L22 30L22 31L23 31L23 33L24 33L24 30L26 30L26 31L25 31L25 32L28 32L28 31L27 31L27 29L29 29L29 30L30 30L30 29L31 29L31 31L32 31L32 32L35 32L35 31L36 31L36 32L39 32L39 30L40 30L40 29L38 29L38 30L36 30L36 29L37 29L37 28L39 28L39 26L40 26L40 25L37 25L37 24L36 24L36 21L37 21L37 20L39 20L39 19L38 19L38 18L40 18L40 17L37 17L37 16L36 16L36 13L37 13L37 12L36 12L36 13L35 13L35 14L34 14L34 13L32 13L32 14L30 14L30 13L31 13L31 12L30 12L30 11L28 11L28 12L27 12L27 14L26 14L26 11L27 11L27 10L25 10L25 9L24 9L24 10L23 10L23 9L22 9L22 8L21 8L21 7L20 7L20 5L21 5L21 4L20 4L20 5L19 5L19 4ZM18 5L18 7L19 7L19 5ZM24 5L24 7L25 7L25 5ZM27 6L27 7L28 7L28 6ZM39 8L39 9L40 9L40 10L39 10L39 11L40 11L40 10L41 10L41 9L40 9L40 8ZM1 9L1 10L2 10L2 14L3 14L3 13L4 13L4 14L5 14L5 16L4 16L4 17L3 17L3 18L5 18L5 19L2 19L2 20L4 20L4 21L5 21L5 22L3 22L3 24L7 24L7 25L6 25L6 26L8 26L8 28L9 28L9 26L8 26L8 24L9 24L9 22L8 22L8 21L6 21L6 20L8 20L8 19L6 19L6 18L7 18L7 17L6 17L6 18L5 18L5 16L7 16L7 15L6 15L6 14L7 14L7 13L6 13L6 12L7 12L7 11L6 11L6 12L5 12L5 11L4 11L4 9ZM6 9L6 10L7 10L7 9ZM11 9L11 10L12 10L12 9ZM17 10L17 11L18 11L18 10ZM22 10L22 11L23 11L23 12L24 12L24 13L25 13L25 11L23 11L23 10ZM3 11L3 12L4 12L4 11ZM28 12L28 13L29 13L29 12ZM22 13L22 15L23 15L23 13ZM8 14L8 15L9 15L9 14ZM27 14L27 15L26 15L26 16L24 16L24 17L23 17L23 16L22 16L22 17L23 17L23 18L24 18L24 19L23 19L23 21L21 21L21 24L22 24L22 25L18 25L18 24L19 24L19 23L18 23L18 24L16 24L16 22L15 22L15 25L18 25L18 26L21 26L21 28L20 28L20 29L21 29L21 28L24 28L24 29L25 29L25 25L26 25L26 26L27 26L27 27L26 27L26 29L27 29L27 27L28 27L28 28L29 28L29 27L30 27L30 26L31 26L31 25L29 25L29 23L30 23L30 24L32 24L32 26L33 26L33 28L32 28L32 27L31 27L31 28L32 28L32 30L33 30L33 31L34 31L34 30L35 30L35 29L36 29L36 28L37 28L37 27L35 27L35 29L34 29L34 26L35 26L35 25L36 25L36 26L37 26L37 25L36 25L36 24L35 24L35 25L34 25L34 22L35 22L35 21L36 21L36 20L37 20L37 17L36 17L36 16L35 16L35 17L34 17L34 14L32 14L32 16L33 16L33 17L34 17L34 18L33 18L33 20L32 20L32 19L31 19L31 20L32 20L32 21L29 21L29 20L28 20L28 18L32 18L32 17L31 17L31 15L30 15L30 14L29 14L29 15L28 15L28 14ZM27 15L27 16L26 16L26 17L24 17L24 18L26 18L26 19L24 19L24 21L23 21L23 25L22 25L22 27L24 27L24 26L23 26L23 25L24 25L24 23L25 23L25 24L26 24L26 25L28 25L28 23L27 23L27 22L29 22L29 21L26 21L26 19L27 19L27 18L26 18L26 17L27 17L27 16L28 16L28 17L29 17L29 16L30 16L30 15L29 15L29 16L28 16L28 15ZM35 17L35 19L34 19L34 21L32 21L32 22L30 22L30 23L32 23L32 24L33 24L33 22L34 22L34 21L35 21L35 19L36 19L36 17ZM15 18L15 19L16 19L16 18ZM19 18L19 19L20 19L20 18ZM11 19L11 20L12 20L12 21L13 21L13 19ZM19 21L19 22L20 22L20 21ZM6 22L6 23L7 23L7 24L8 24L8 22ZM25 22L25 23L26 23L26 22ZM1 24L1 25L2 25L2 24ZM33 25L33 26L34 26L34 25ZM28 26L28 27L29 27L29 26ZM14 27L14 28L15 28L15 27ZM12 29L12 30L13 30L13 29ZM22 29L22 30L23 30L23 29ZM33 29L33 30L34 30L34 29ZM10 30L10 31L8 31L8 32L11 32L11 30ZM15 33L15 34L17 34L17 36L18 36L18 34L17 34L17 33ZM29 33L29 35L30 35L30 34L31 34L31 33ZM33 33L33 36L36 36L36 33ZM9 34L9 35L10 35L10 36L11 36L11 35L10 35L10 34ZM34 34L34 35L35 35L35 34ZM34 37L34 38L35 38L35 37ZM36 37L36 38L39 38L39 37ZM9 38L9 39L10 39L10 38ZM28 38L28 39L29 39L29 38ZM15 39L15 40L16 40L16 39ZM21 39L21 40L22 40L22 41L23 41L23 40L22 40L22 39ZM25 39L25 40L26 40L26 39ZM31 40L31 41L32 41L32 40ZM36 40L36 41L37 41L37 40ZM0 0L0 7L7 7L7 0ZM1 1L1 6L6 6L6 1ZM2 2L2 5L5 5L5 2ZM34 0L34 7L41 7L41 0ZM35 1L35 6L40 6L40 1ZM36 2L36 5L39 5L39 2ZM0 34L0 41L7 41L7 34ZM1 35L1 40L6 40L6 35ZM2 36L2 39L5 39L5 36Z" fill="#000000"/></g></g></svg>
